<svg width="78" height="52" viewBox="0 0 78 52" fill="none" xmlns="http://www.w3.org/2000/svg">
<mask id="mask0_308_8638" style="mask-type:alpha" maskUnits="userSpaceOnUse" x="0" y="0" width="78" height="52">
<path fill-rule="evenodd" clip-rule="evenodd" d="M75.9161 24.666L76.1782 25.8663H0.000538952C0.000538952 25.55 0.121427 25.2691 0.237319 24.9761L0.616202 24.5036L0.868791 23.9681L0.995085 23.7791L1.05814 23.5112L1.26348 22.8968L1.53188 22.6292L1.84771 22.4085L1.98981 22.3613L2.17449 22.3282L2.80578 22.4385L3.24772 22.6433L3.29515 22.1865L3.2321 21.8243L3.02675 21.6039L2.8374 21.4149V21.2257C2.8374 21.2257 2.86669 21.0913 2.8895 20.9755C2.90423 20.9013 2.91627 20.8348 2.91627 20.8163V20.3438L2.66386 19.7454L2.50595 19.3358V18.8633L2.97933 18.186L4.03711 16.9418L4.82631 16.0124L5.74199 14.8154L7.1156 13.4923H7.5103L7.84175 13.4292L8.07871 13.3349L8.33112 13.0356L8.45759 12.6576L8.48903 12.2955L8.45759 11.7127L8.22063 11.3505L7.79432 10.7521L7.82594 10.5635H8.1574L8.45723 10.5L8.56772 10.3583V10.075L8.14141 9.64958L7.74672 9.11404L7.33639 8.42076L6.95751 7.53868L6.3891 6.16813L6.21555 5.53827L6.23999 5.21292L6.47694 5.0004H6.78487L7.05704 5.16585L7.2701 5.33131L7.48317 5.41395L7.8263 5.3076L8.15776 5.10675L8.40657 4.77601L8.70264 4.6578L8.96295 4.56349L9.04577 4.04376C9.04577 4.04376 9.05799 3.94926 9.07469 3.85458C9.09086 3.76296 9.11116 3.67134 9.12859 3.66559C9.16416 3.65373 9.50747 3.44103 9.54304 3.44103H10.6441C10.6797 3.44103 11.3191 3.38192 11.3191 3.38192L11.7217 3.1694L12.0768 3.07508L12.5978 2.92148L13.3673 2.99244L13.6987 3.12233L13.9829 3.16958L14.5156 3.24054L14.8352 3.14604H16.1256L16.7176 3.31168C16.7176 3.31168 17.0253 3.40618 17.0609 3.41803C17.0965 3.42971 17.4398 3.53624 17.4398 3.53624L17.6765 3.58349L18.0319 3.74895C18.0319 3.74895 18.245 3.9498 18.2805 3.9498C18.3161 3.9498 18.7068 3.92626 18.7068 3.92626C18.7068 3.92626 18.8524 3.90543 18.961 3.89141C19.0164 3.88423 19.062 3.87884 19.0739 3.87884C19.1093 3.87884 19.5 4.05597 19.5474 4.09136C19.5949 4.12693 20.0091 4.32778 20.0091 4.32778L20.6248 4.29221C20.6248 4.29221 20.752 4.25934 20.8549 4.23508C20.9151 4.22089 20.967 4.20957 20.9801 4.20957C20.9949 4.20957 21.0644 4.20347 21.1434 4.19879C21.2552 4.19233 21.3858 4.18873 21.4065 4.20957C21.4418 4.24514 21.6786 4.51678 21.6786 4.51678L21.8563 4.95387L22.0814 5.33203C22.0814 5.33203 22.4838 5.35557 22.5312 5.35557C22.555 5.35557 22.6823 5.35251 22.8095 5.34964C22.9367 5.34676 23.0641 5.34371 23.0878 5.34371C23.1352 5.34371 23.5495 5.43838 23.5495 5.43838L23.6914 5.59181L23.6798 5.88733C23.6798 5.88733 23.7389 6.05243 23.7863 6.088C23.8337 6.12357 24.0232 6.13543 24.0232 6.13543L24.1177 5.80469C24.1177 5.80469 24.1337 5.68181 24.1494 5.57151C24.1607 5.49138 24.172 5.4179 24.177 5.40299C24.1889 5.36778 24.3547 5.14322 24.3901 5.14322C24.4255 5.14322 24.7334 5.22586 24.7334 5.22586C24.7334 5.22586 24.7925 5.5212 24.9228 5.58031C25.053 5.63941 25.4912 5.65109 25.4912 5.65109L25.645 5.29664L25.7159 5.10765L26.1541 5.02501L26.296 5.28496L26.3316 5.4621C26.3316 5.4621 26.5804 5.50953 26.6749 5.50953H27.4445L27.6931 5.82841C27.6931 5.82841 27.8115 6.21825 27.8234 6.2655C27.8351 6.31256 28.072 6.60809 28.072 6.60809L28.2497 6.57252L28.38 6.14711L28.664 5.75726L28.8889 5.5327L29.5401 5.48545L29.8481 5.27293L30.0493 5.34371L30.3572 5.59181L30.4637 5.9344L30.5111 6.27681C30.5111 6.27681 30.5358 6.41227 30.5658 6.53317C30.5866 6.61743 30.6101 6.6945 30.6295 6.7139C30.677 6.76115 30.961 6.92661 30.961 6.92661L31.3517 6.74929L31.6478 6.45395C31.6478 6.45395 31.8492 6.15842 31.8846 6.15842C31.92 6.15842 32.2872 6.11118 32.2872 6.11118L32.6661 6.21753L32.7963 6.43006L33.1159 6.35927L33.3764 6.17028L33.7079 6.04021L34.2879 6.15842L34.7378 6.18196L35.0101 6.52455L35.1878 6.8199V7.07985C35.1878 7.07985 35.105 7.26884 35.1878 7.30442C35.2705 7.33963 35.5193 7.45784 35.5193 7.45784L35.7914 7.48137L36.111 7.46969L36.3597 7.15063V6.69001L36.2652 6.0756C36.2652 6.0756 36.2535 5.93925 36.2434 5.81421C36.2361 5.72151 36.2296 5.6351 36.2296 5.61498C36.2296 5.56791 36.277 5.1425 36.277 5.1425L36.502 4.62277L36.7271 4.10304L37.1178 3.53588L37.3546 3.22868L37.6151 2.81513L37.757 2.36636L37.9821 2.0473L38.3136 1.90555L38.7162 2.01209C38.7162 2.01209 38.8013 2.06131 38.875 2.09904C38.9211 2.12275 38.9628 2.14197 38.9765 2.14197C39.0119 2.14197 39.3079 1.96466 39.3079 1.96466L39.5567 1.70488L40.1014 1.51571L40.9302 1.65746C40.9302 1.65746 41.0816 1.6995 41.214 1.73345C41.3037 1.75644 41.3845 1.77567 41.4037 1.77567C41.451 1.77567 41.85 1.84286 41.85 1.84286L42.3708 2.17359H43.5549L44.1233 1.65386L44.2652 1.27588L44.3126 0.75615L44.2652 0.283668L44.7388 0.0946759L45.1176 0.377985L45.544 0.661474L46.0173 0.708722H46.7277L47.2012 0.425413L47.4853 0.23642L47.8167 0.0472481L48.243 0L48.8113 0.283489H49.3322L49.7586 0.141744L50.3268 0L50.6347 0.141744L51.0136 0.543264L51.132 1.01574L51.582 1.22827L51.7478 1.96089V2.40965C51.7478 2.40965 51.9137 2.78782 51.9846 2.8586C52.0556 2.92956 52.8845 3.44929 52.8845 3.44929L53.2159 4.01627L53.1213 4.44168H52.4819L51.6296 4.70146L51.8427 5.1504L52.3874 5.55192L52.7188 5.95362L52.3164 6.40257L52.5532 6.87487L52.3401 7.67827L52.719 7.77276H53.8792L54.2818 8.15075C54.2818 8.15075 55.2999 8.07997 55.371 8.15075C55.442 8.22153 55.8683 8.15075 55.8683 8.15075L56.2472 8.69419L56.6025 9.0014H57.1943L57.1629 9.51322L57.1943 10.1118L57.5101 10.6474L57.6048 11.3406L57.3208 12.0966L57.5732 12.7899L57.9206 13.6089L58.394 13.7979H59.0887L59.1834 13.3254L60.541 13.3568L61.1092 14.0499H62.2459L62.6564 14.6485L63.2563 14.1444L63.5721 13.8293L64.8034 13.8608L66.2241 13.0732L66.3186 13.7979L66.9184 14.1759L66.9501 14.8059L67.7709 15.6249L68.5601 16.444L69.002 16.7591L69.223 16.4125L69.286 15.6564L69.9491 15.5303L70.1385 16.2234L71.3068 16.2864L71.6856 16.7587L72.9484 17.2944L73.5166 16.9793L73.7692 17.4202L74.0533 17.7037L75.3478 17.8927L75.5057 18.6488L76.5793 19.0268L76.7372 18.8378L77.716 18.7749L77.3055 19.7829L77.9369 20.3814L78 21.0746L77.2422 21.6102L76.8003 22.1457L76.8948 22.3978H75.9161L75.6002 22.7443L76.137 22.9333L76.4211 23.3743H77.2421L77.463 23.5633L77.2104 23.8784L76.9578 24.036L76.4845 23.9099L76.074 24.036L75.9161 24.666ZM0 26.1005V26.0989V25.8683H76.18L76.2017 25.9274L76.6751 26.2739L77.054 26.9986L76.9595 27.3452L76.4541 27.219L76.8646 27.6915V28.2271L76.7067 28.6681L76.612 29.2036L76.4541 29.8021L76.3596 30.2431L75.9807 30.4007H74.9073C74.9073 30.4007 74.276 30.2745 74.1496 30.2431C74.0233 30.2117 73.4234 30.2117 73.4234 30.2117H72.2237L71.9711 30.4007V31.0938H71.5922L71.3398 31.3772L70.6451 31.5662H70.2346L69.9506 31.7868L69.8559 32.0387L69.698 33.0153L69.6349 33.3618L69.5086 33.8343L70.1085 34.0862L69.6033 34.2752L69.3507 34.8738L69.2715 35.0664L69.09 35.1609L68.7033 35.2947L68.3718 35.3105L67.9692 35.3499L67.6534 35.2947L67.4482 35.342L67.1087 35.3261L66.7458 35.3497L66.6274 35.4363L66.4143 35.5624L66.0275 35.6098L65.8538 35.7041L65.6487 36.0821L65.538 36.3421L65.3407 36.1373L65.1907 36.0505L64.8828 36.0819L64.7644 36.2945L64.4251 36.334C64.4251 36.334 64.1328 36.5386 64.1092 36.5465C64.0853 36.5544 64.0223 36.7434 64.0223 36.7434L63.6434 36.8695L63.5015 37.0585L63.3357 37.2868L63.0908 37.4286L62.775 37.4521L62.5935 37.397L62.4044 37.3025L62.0882 37.1924L61.7014 37.2003L61.5909 37.3025L61.3146 37.46L61.0701 37.9248L60.9831 38.1059L60.9436 38.2634C60.8013 38.5548 60.3279 38.7912 60.3279 38.7912C60.4621 38.7045 60.8252 38.232 60.8252 38.232L60.8094 37.9801L60.5252 37.7751L60.1937 37.7672H59.7913L59.4678 37.7751L59.1205 37.8854L58.8442 38.0116L58.5047 38.1691L58.2444 38.4054L58.0234 38.6811L57.818 38.8543L57.589 39.0119L57.4075 38.8622L57.2261 38.9725C57.2261 38.9725 57.192 38.9046 57.1578 38.8502C57.135 38.8139 57.1122 38.7835 57.0996 38.7835C57.0682 38.7835 57.0682 38.5629 57.0682 38.5629L56.9024 38.1535V37.7834H56.6183C56.5865 37.7834 56.6024 38.0985 56.6024 38.0985L56.6261 38.6576L56.697 39.0672L56.9338 39.2876L57.1469 39.2483L57.1864 39.4531L56.9733 39.6735L56.6575 40.1853L56.3102 40.7918L56.0577 41.1384L55.7183 41.2014L55.3473 41.3746L55.3238 41.1934C55.3238 41.1934 55.5764 40.8944 55.6001 40.8707C55.6236 40.8468 55.963 40.8626 55.963 40.8626C55.963 40.8626 56.2157 40.6107 56.2395 40.6028C56.263 40.5949 56.5788 39.9649 56.5788 39.9649L56.7682 39.6184L56.5237 39.579L56.492 39.3505L56.4211 39.0747L56.1527 38.7914L56.0108 38.815L56.1132 39.0354L56.2001 39.3976L56.0896 39.689L55.8843 39.7362L55.8369 39.87L55.6396 40.2166L55.3161 40.2719L54.9765 40.3348L54.7162 40.5003L54.4162 40.7602L54.1243 40.7681L53.9112 40.7996L53.8717 40.8624L53.7928 40.9569L53.627 41.083L53.5716 40.7758L53.3979 40.7599L53.3191 40.9095C53.3191 40.9095 53.258 40.9154 53.203 40.9183C53.1673 40.9201 53.134 40.9206 53.1216 40.9174C53.0902 40.9095 53.0032 40.8466 53.0032 40.8466L52.8058 40.7442L52.7034 40.6262L52.435 40.6813L52.5139 40.9018L52.4269 41.0514L51.9375 40.3977L51.7482 40.1614L51.5587 40.2243L51.7403 40.5471L51.6377 40.6258L51.5587 40.8937L51.4324 40.9172L51.2903 40.799L51.1088 41.0196L50.8483 40.6179L50.6748 40.4999L50.2564 40.4054L49.7986 40.4133L49.7356 40.5471C49.7356 40.5471 49.7772 40.6235 49.8101 40.6819C49.8266 40.7113 49.8408 40.7361 49.8461 40.744C49.8617 40.7676 50.067 40.9251 50.067 40.9251C50.067 40.9251 50.217 40.799 50.2485 40.799C50.2801 40.799 50.509 40.815 50.509 40.815L50.422 40.9882L50.2248 41.1536C50.2248 41.1536 50.3985 41.2401 50.422 41.2559C50.4459 41.2717 50.659 41.3741 50.659 41.3741L50.8799 41.437L50.9904 41.3108C50.9904 41.3108 51.0664 41.2887 51.1421 41.2693C51.2019 41.2539 51.2613 41.2401 51.2824 41.2401C51.3298 41.2401 51.4403 41.5 51.4403 41.5L51.7403 41.7833L51.9061 41.8148C51.9061 41.8148 51.8678 41.7593 51.8398 41.7125C51.8256 41.689 51.8141 41.6678 51.8114 41.6572C51.8035 41.6258 51.8589 41.5864 51.8589 41.5864C51.8589 41.5864 51.9853 41.7203 51.9853 41.6967C51.9853 41.6732 52.0798 41.6572 52.0798 41.6572L52.3482 41.791C52.3482 41.791 52.5061 41.7359 52.5378 41.7359C52.5692 41.7359 52.7113 41.7752 52.7113 41.7752L52.656 41.917C52.656 41.917 52.8058 42.0034 52.8295 42.0113C52.853 42.0192 52.7505 42.2792 52.7505 42.2792L52.6951 42.3974L52.7821 42.484L52.9321 42.4053L53.1056 42.1609C53.1056 42.1609 53.1056 42.0927 53.1044 42.0237C53.1033 41.9621 53.1013 41.8999 53.0975 41.8852C53.0896 41.8537 53.0582 41.7751 53.0582 41.7751L53.0501 41.6254L53.2001 41.4993L53.0266 41.3182L53.0345 41.1607L53.374 41.1842L53.5634 41.2629L53.8003 41.2314L53.7529 41.6331L53.516 41.8812L53.7411 42.0702L53.7646 42.212L53.6581 42.5425L53.5041 42.6726L53.2319 42.9798L53.4331 43.0506L53.6343 42.9324L53.8356 42.7198L53.9541 42.5544L54.1909 42.4953L54.404 42.5544L54.3447 42.6961L54.1079 42.7552L53.9302 42.9207L54.0012 43.0978C54.0012 43.0978 54.1176 43.0777 54.208 43.0671C54.2559 43.0614 54.2967 43.0583 54.3091 43.0624C54.3447 43.0741 54.2856 43.2631 54.2856 43.2631L54.096 43.4049L54.0015 43.6413L54.2856 43.5468L54.5816 43.3343L54.6882 43.405L54.5224 43.6177L54.5816 44.0665L54.7593 43.9248L55.0908 43.8423L55.2446 43.9487L55.3629 44.1612C55.3629 44.1612 55.576 44.3739 55.6116 44.3974C55.647 44.4211 55.7537 44.7517 55.7537 44.7873C55.7537 44.8228 55.73 44.9763 55.73 44.9763L55.4459 45.2362L55.4224 45.4843L55.3277 45.6025L55.1619 45.6261L55.3396 45.7795L55.6001 45.7678L55.908 45.7559L56.2157 45.815L56.5711 45.9924L56.8551 46.2169L57.1391 46.3585L57.2575 46.335L57.305 46.1695L57.2575 46.0161L56.8431 45.5555L55.9551 44.4569L55.4343 43.8545L55.008 42.9331L54.7829 42.8032L54.6761 42.8623L54.6999 42.6496L54.617 42.1653L54.5696 42.0708V41.811L54.5577 41.5746L54.4158 41.5273L54.2619 41.6807L54.1435 41.61L53.9658 41.4445L54.0486 41.232L54.2617 41.2084L54.3445 41.2911C54.3445 41.2911 54.3887 41.3241 54.4359 41.3452C54.4735 41.3619 54.513 41.371 54.534 41.35C54.5815 41.3028 54.534 41.232 54.534 41.232L54.4038 40.9248L54.5815 41.043L54.676 41.2911L54.7588 41.7043L54.9009 42.2596C55.3033 43.9725 57.4817 46.1226 57.4817 46.1226L57.8013 46.0991L58.1685 45.981L58.5474 45.792L58.6419 45.6029C58.6419 45.6029 58.6554 45.5495 58.6685 45.4945C58.6768 45.4601 58.6849 45.425 58.6894 45.4022C58.7014 45.3431 58.8552 45.3548 58.8552 45.3548L58.9619 45.0715L59.1157 45.2486L59.1868 45.4378L59.3762 45.6268L59.5892 45.7094L59.8733 45.662L59.9798 45.4139L60.0272 45.2484L60.1932 45.1893L60.3944 45.095L60.5838 45.0831L61.1522 45.1067L61.3415 45.2249L61.5192 45.2605L61.756 45.5202L61.7678 45.7567L61.756 45.9929L61.6141 46.123L61.4482 46.3236V46.5717L61.389 46.6662L61.4364 46.7489L61.5311 47.0205L61.4953 47.3512L61.3534 47.611L61.1283 47.6701H60.8561L60.7259 47.7411L60.5601 47.8002L60.3587 47.7411H60.1693L60.0391 47.6584L59.6837 47.7175L59.5418 47.9182L59.1985 47.9656L58.9617 47.8711L58.867 47.694L58.583 47.4694L58.3462 47.304L58.062 47.1975L57.6831 47.2449L57.4819 47.3864L57.2926 47.682L57.4702 47.8119L57.6831 48.0483L57.7543 48.3436L57.3989 48.5091L56.9372 48.4856L56.4399 48.4974L56.3453 48.5328L56.1559 48.6154L56.0021 48.8163L55.8836 49.0644C55.8836 49.0644 55.7063 49.1707 55.6707 49.1707C55.6349 49.1707 55.564 49.0527 55.564 49.0527L55.3863 48.8991L55.2561 48.8756L55.0902 48.9938L54.9009 49.1237L54.5455 49.1592H54.1785L53.8352 49.2537L53.4207 49.49L53.1602 49.7025L53.0181 49.9506L52.8644 50.2932L52.746 50.4587L52.3078 50.8366L52.2133 50.9665C52.2133 50.9665 51.9174 51.1203 51.8819 51.1438C51.8465 51.1676 51.799 51.3093 51.799 51.3093L51.4083 51.5457L51.1478 51.6637L50.6151 51.6284H50.3546L50.2363 51.7347L49.9876 51.6402L49.8455 51.4987L49.6206 51.4395L49.5848 51.215C49.5848 51.215 49.5369 51.1843 49.4851 51.1483C49.4408 51.1176 49.3939 51.0833 49.372 51.0614C49.3245 51.0141 49.1469 51.0614 49.1469 51.0614L48.9573 50.9198L48.7205 50.7898L48.531 50.6599L48.5429 50.4944L48.6613 50.4118L48.7796 50.3054H48.9456L49.1585 50.1991L49.2532 49.9626L49.2058 49.7501L49.1979 49.5065C49.1957 49.4359 49.1939 49.3741 49.1939 49.3603C49.1939 49.3247 49.2767 48.9823 49.2767 48.9823L49.407 48.7223V48.4507C49.407 48.4507 49.3718 48.2836 49.3389 48.1428C49.3179 48.0526 49.2978 47.973 49.2886 47.9545C49.2647 47.9073 49.253 47.6945 49.253 47.6945C49.253 47.6945 49.1952 47.5916 49.1431 47.4951C49.1068 47.4281 49.0732 47.3644 49.0635 47.3401C49.04 47.281 48.9925 47.0685 48.9925 47.0685L48.9097 46.9858L48.6846 46.8676L48.2822 46.8912L48.0691 46.9856H47.7731C47.7377 46.9856 47.5719 46.7611 47.5719 46.7611L47.3468 46.5232L47.0034 46.3357L46.885 46.1231L46.9443 45.9342L47.3351 45.6625L47.6311 45.4144L47.6902 45.2019L47.5719 45.0954L47.4181 45.2019L46.7194 45.7333L46.4945 45.7689L46.2103 45.6981L46.0091 45.639L45.7962 45.7453L45.5592 45.828L45.3224 46.0642L45.1685 46.0998L45.1329 45.9934L44.8843 45.9816L44.6831 45.9108L44.6121 45.7691L44.6238 45.5919L44.5528 45.4502L44.6949 45.2493L44.9078 45.1076L45.1564 44.9542L45.4762 44.8715L45.642 44.7298L45.8907 44.5643L46.0802 44.5408L46.1867 44.47L46.0684 44.3635V44.2219C46.0684 44.2219 46.246 44.0564 46.246 44.0092C46.246 43.9621 46.7077 43.7967 46.7077 43.7967L47.0866 43.6195L47.4297 43.4304L47.8561 43.2649L48.3535 43.1233L48.5193 43.0168L48.6613 42.8278L48.9692 42.7806L49.1943 42.7687L49.3127 42.5916C49.3127 42.5916 49.4664 42.6388 49.4664 42.6742C49.4664 42.7094 49.6916 42.8158 49.6916 42.8158L49.7625 42.7213L49.7862 42.4732L49.9874 42.4022L50.094 42.2605C50.094 42.2605 49.9044 42.1897 49.869 42.1897C49.8337 42.1897 49.6086 42.1662 49.6086 42.1662L49.5018 42.0835L49.4783 41.0676L49.2413 40.9731L49.1113 41.0676V41.3157L48.9573 41.3392L48.9099 41.6227C48.9099 41.6227 48.8549 41.6292 48.7906 41.6303C48.7319 41.6312 48.6654 41.6277 48.6259 41.6109C48.543 41.5755 48.5668 41.5401 48.5668 41.5401L48.3537 41.2566L48.0932 41.3157C48.0932 41.3157 48.0339 41.1267 47.9985 41.1267C47.9631 41.1267 47.8566 41.1502 47.8566 41.1502L47.6196 41.1267L47.7264 40.985V40.7369L47.608 40.7485L47.5487 40.9494L47.3475 41.1148L47.0395 40.9259L46.8383 40.985V41.1975L46.5423 41.292L46.2344 41.1619C46.2344 41.1619 45.7843 41.1028 45.7489 41.1028C45.7135 41.1028 45.5952 41.2093 45.5952 41.2093L45.0742 41.2684L44.9204 41.3157L44.7309 41.4339L44.5296 41.3394L44.4705 41.3277L44.281 41.2568L43.7363 41.1269L43.5586 41.0087V40.8669L43.4994 40.737L43.2153 40.6544L43.026 40.5953L42.8248 40.3591L42.6236 40.2999C42.6236 40.2999 42.5309 40.2956 42.4559 40.2814C42.4082 40.2725 42.3676 40.2593 42.3631 40.2408C42.3512 40.1936 42.2921 40.0991 42.2921 40.0991L42.1026 40.1582L41.6763 40.1817L41.5579 40.0874L41.617 39.9101L41.7237 39.7567L41.9959 39.7332L42.3392 39.674L42.5287 39.4732L42.5643 39.2961L42.5168 39.1543L42.351 39.1069H42.138L41.9012 39.0005L41.7352 38.9533L41.4156 38.9889L40.9539 39.0005L40.6817 38.977L40.5989 38.599L40.7291 38.5281L41.1434 38.41C41.1434 38.41 41.2681 38.4634 41.3865 38.5115C41.484 38.5511 41.5773 38.5872 41.5933 38.5872C41.6287 38.5872 41.9957 38.6581 41.9957 38.6581L42.6115 38.7054L42.8244 38.7997L43.0732 38.8471L43.2744 38.7997L43.4164 38.6581L43.6768 38.5755L43.7715 38.3509L43.5938 38.2092L43.3569 38.2918L43.0373 38.2562L42.9189 38.0673L42.8005 38.0317L42.54 37.8427C42.54 37.8427 42.4098 37.5001 42.3979 37.4412C42.3859 37.3821 42.4216 36.9687 42.4216 36.9687V36.3307L42.3742 36.1773L42.1965 36.6852L42.173 37.075V37.3231L42.0783 37.6303L41.9245 37.8549L41.7233 38.0439L41.4628 38.0795L41.1314 37.9022L40.7642 37.914L40.5513 38.103L40.3025 38.0911L40.2197 37.9496L40.3499 37.7487L40.3973 37.607L40.4448 37.3945L40.575 37.2881L40.7527 37.1108L40.7408 36.8154L40.5631 36.8271L40.4094 37.0044L40.291 37.0871L40.2082 37.2761L40.1963 37.6659L39.8767 38.0322C39.8767 38.0322 39.7076 38.0398 39.5515 38.0419C39.4304 38.0437 39.3173 38.0425 39.2966 38.0322C39.2492 38.0087 39.0007 37.9496 39.0007 37.9496C39.0007 37.9496 38.8229 37.914 38.7875 37.914C38.7521 37.914 38.5863 38.0083 38.5863 38.0083L38.1837 38.1384L37.7575 38.3509L37.3312 38.3626L37.1298 38.2446L36.8338 37.9846L36.8221 38.2562L36.6326 38.2798C36.6326 38.2798 36.8221 38.398 36.8221 38.4332C36.8221 38.4686 36.9879 38.6932 36.9879 38.6932L36.9051 38.9177L36.9761 39.1894L37.1656 39.4258L37.0353 39.7091C37.0353 39.7091 36.7984 39.8273 36.7393 39.8508C36.68 39.8744 36.7156 40.0517 36.7156 40.0517V40.2642L36.4906 40.4415L36.3367 40.5714L36.088 40.9138L35.804 41.292L35.5437 41.6816L35.4135 41.9062L35.1648 42.2608L34.8925 42.5916L34.5371 42.7215L34.549 42.485L34.4424 42.3907C34.4424 42.3907 34.3239 42.4969 34.3003 42.5441C34.2764 42.5916 34.1936 42.7806 34.1936 42.7806C34.1936 42.7806 34.1428 42.7931 34.0943 42.7984C34.0618 42.8018 34.0303 42.8018 34.0161 42.7922C33.9807 42.7687 33.9333 42.7215 33.9333 42.7215L33.7794 42.757L33.6965 43.0051L33.519 42.9106L33.5072 43.0923V43.3479H33.0216L32.9271 43.5013L32.9862 43.6431V43.8793L32.7968 44.0448C32.7968 44.0448 32.6901 43.974 32.6666 43.9384C32.6427 43.9028 32.6192 43.7022 32.6192 43.7022L32.5631 43.6075C32.5631 43.6075 32.5247 43.4185 32.5631 43.3829C32.6017 43.3475 32.6431 43.2412 32.6431 43.1704C32.6431 43.0994 32.5631 42.9812 32.5631 42.9812L32.3351 43.0168L32.2284 43.3594V43.7257C32.2284 43.7257 32.1219 44.1745 32.11 44.21C32.098 44.2456 32.2047 44.4465 32.2047 44.4465L32.3705 44.5999L32.3112 44.7889L32.0626 44.8363L32.1219 44.9662L32.3587 45.0961L32.5631 44.9662L32.8204 45.0134L32.7968 45.2615L32.714 45.4389L32.8443 45.6514V45.9586L32.7762 46.2286L32.6934 45.8741L32.4566 45.5669L32.1487 45.2716L31.7698 45.1299L31.2014 45.118L30.7989 45.189L30.361 45.3424L30.195 45.5669L29.9228 45.8034L29.686 45.9568L29.2953 46.2757L28.952 46.5238H28.6205L28.2061 46.4647L27.9337 46.3231L27.6734 46.2166L27.1285 46.004L26.8324 45.8858L26.6075 45.6852L26.5838 45.4726V45.1771L26.3235 44.8699L26.2049 44.6453H27.085L27.385 44.5548L27.527 44.4287L27.6216 44.1924L27.59 43.8617V43.6097L27.6849 43.4521L27.9375 43.3734L28.2059 43.2002L28.3952 43.1059L28.632 42.9167L28.6794 42.5388L28.711 42.2553L28.7741 42.0348L28.932 41.8458L29.2004 41.7515L29.4372 41.6412L29.5477 41.2632L29.5793 40.9639L29.6898 40.7275L29.6424 40.381L29.4844 40.192L29.374 39.9085V39.7509L29.3898 39.4358L29.4058 39.231L29.5162 38.9475L29.6742 38.7427L29.8951 38.5379L30.1635 38.4118L30.4003 38.4591L30.4163 38.6795V38.963L30.5268 39.2465L30.7952 39.1676L30.8426 38.9786L31.1266 38.7582L31.5055 38.774L31.7579 38.8527L31.9475 39.0733L32.1054 39.2623L32.3894 39.3884L32.5157 39.1678L32.6422 39.0102L32.8475 38.9474L32.942 39.0891L33.179 39.4829L33.6209 39.2625H34.0156L34.2414 39.2129L34.4189 39.0474L34.6084 39.0593L34.7622 39.0947L34.9043 39.2247L34.9753 39.3782L35.0462 39.5907L35.0227 39.7441L34.916 39.6969L34.8332 39.5434L34.8097 39.4252L34.7387 39.2953L34.5492 39.2598L34.3005 39.3661L34.2649 39.6733L34.3833 39.9097L34.5017 40.0632L34.7505 40.2286L35.0109 40.2405L35.2832 40.3468L35.449 40.6301L35.4609 40.831L35.6028 40.9374H35.804L35.9343 40.8075L35.9578 40.654L35.8394 40.5123L35.792 40.3233L35.721 40.146L35.5908 40.0869L35.425 39.9451L35.3657 39.7206L35.3301 39.496L35.2236 39.3661L35.0933 39.2835L35.0696 39.1063L34.8684 38.9646L34.6316 38.882H34.3356L34.0149 38.8212L33.8255 38.5694L33.636 38.2386L33.7307 37.8605C33.7307 37.8605 33.7621 37.577 33.7621 37.5297C33.7621 37.4827 33.8253 37.1676 33.8253 37.1676L33.6832 36.8525L33.4623 36.5217L33.2097 36.3642L32.8624 36.0965L32.7755 36.0491H32.4992L32.3729 35.8443V35.2773L32.1675 35.1355L31.8835 34.8991L31.8675 34.6158L31.8835 34.3165L32.1045 34.159V33.5604L31.8991 33.4186L31.6938 33.3714L31.5991 33.5289L31.5202 33.6707L31.2833 33.6078L31.1254 33.3399L31.0465 33.0406L30.857 32.8516L30.6046 32.6941L30.3362 32.5523L30.2257 32.2216L30.1941 31.8751V31.4971L30.3205 31.2921L30.4625 30.9928V30.5361L30.3205 30.2841V29.969L30.2415 29.6539L29.9731 29.4807L29.6891 29.4334L29.3576 29.402C29.3576 29.402 29.2784 29.3941 29.1934 29.3862C29.1088 29.3783 29.0183 29.3705 28.9947 29.3705C28.9473 29.3705 28.7894 29.1185 28.7894 29.1185V28.8981L28.6629 28.5673L28.4105 28.3623H28.2684C28.2684 28.3623 28.1177 28.3323 27.9914 28.302C27.9134 28.2831 27.8446 28.2643 27.8264 28.2522C27.779 28.2208 27.6843 28.1419 27.6843 28.1419L27.5424 28.2048L27.1635 28.1105L26.7688 27.9373L26.5163 27.7169L26.169 27.4334L25.9637 27.2286L25.6322 27.1183L25.3007 26.9451L25.1112 26.8664L24.7798 26.8348L24.4483 26.63L24.1168 26.3937L23.8328 26.2676L23.5959 26.4881L23.3905 26.4252L23.1537 26.3463L22.8379 26.4566H22.3171L22.0801 26.5669L21.9066 26.6612L21.6226 26.6454L21.3856 26.4564H21.1488L21.07 26.5825L20.9121 26.7556L20.6751 26.7715H20.4227L20.2648 26.5825H19.9489L19.8385 26.7241L19.9804 26.9447L20.0751 27.1337L20.0562 27.281L19.8381 27.4919H19.5857L19.2303 27.5629L18.9936 27.6693L18.7212 27.7991C18.7212 27.7991 18.2121 28.0002 18.1765 28.0237C18.1409 28.0472 17.9988 28.2718 17.9988 28.2718L17.9043 28.4845L17.7976 28.7091L17.62 28.9807L17.182 29.264L16.7794 29.3822L16.1876 29.4058L15.7494 29.6066L15.335 29.713L14.66 29.7721L14.1628 29.7956L13.6653 29.8312L13.4524 30.0318L13.2629 30.2564L12.9314 30.5871L12.6474 30.7407L12.2685 30.8825L11.8778 30.7998L11.6291 30.5753L11.4161 30.4217L11.2267 30.2683L10.9544 30.0909L10.6822 29.8903L10.4927 29.5947L10.2086 29.4884H10.0074L9.68784 29.5592L9.53406 29.6183L9.11943 29.571L8.78797 29.5355L8.3737 29.5827L7.92385 29.3583L7.7936 29.2992L7.37933 29.1927L7.23723 29.1219L6.92948 29.0984L6.76367 29.1339L6.60971 29.3346L6.29011 29.3583L5.92308 29.2401L5.73355 29.1101L5.55588 28.9685L5.30724 28.7676L5.15346 28.6377L5.03507 28.6969L4.98764 28.5668L4.57337 28.4134L4.34826 28.4725L4.3718 28.6615L4.1943 28.9214L4.00477 29.1577L3.81542 29.1221L3.62589 28.9214L3.44821 28.9922L3.38911 29.3111L3.37725 29.6183L3.29443 29.6539L3.08137 29.2523L2.96298 28.8979L3.03394 28.4725V28.1653L2.51313 28.0708L2.08682 28.1653L1.7877 28.0722L1.52739 27.8241L1.19593 27.576L0.958975 27.4106L0.639377 26.8553L0.580092 26.6188L0.342414 26.4417L0.070962 26.3943L0 26.1005Z" fill="#FFD700"/>
</mask>
<g mask="url(#mask0_308_8638)">
<path d="M0 24.283L42.6792 20.6038L86.0943 24.283V60.3396H0V24.283Z" fill="#FFD700"/>
<rect y="-11.7734" width="86.0943" height="36.0566" fill="#0057B8"/>
</g>
</svg>
