<svg width="60" height="60" viewBox="0 0 60 60" fill="none" xmlns="http://www.w3.org/2000/svg">
<path d="M7.67961 46.9424C8.57227 47.822 9.46969 48.6971 10.3672 49.5724L10.3673 49.5725L10.37 49.5751C11.0014 50.1909 11.6329 50.8067 12.2628 51.4241C14.0128 53.1686 15.9822 54.6994 18.1554 55.8828L7.67961 46.9424ZM7.67961 46.9424C7.67945 46.8927 7.67927 46.8431 7.6791 46.7934L7.5291 46.794M7.67961 46.9424L7.5291 46.794M7.5291 46.794L7.42375 46.9008C7.4591 46.9356 7.49445 46.9705 7.52982 47.0054M7.5291 46.794L7.52982 47.0054M7.52982 47.0054C7.53511 48.6362 7.53425 50.267 7.53339 51.8979C7.53282 52.9987 7.53224 54.0995 7.53355 55.2004M7.52982 47.0054L30.6976 59M7.53355 55.2004L7.53315 55.0504C7.48323 55.0505 7.4333 55.0506 7.38338 55.0507M7.53355 55.2004L7.38355 55.2006C7.38349 55.1506 7.38343 55.1007 7.38338 55.0507M7.53355 55.2004C6.68857 55.2026 5.8447 55.2015 5.00083 55.2004C4.99972 50.9788 4.99972 46.7561 5.00083 42.5346L22.8821 2.15M7.38338 55.0507C7.38229 53.9993 7.38284 52.9482 7.38339 51.8972C7.38429 50.1962 7.38518 48.4956 7.3791 46.7945L7.37781 46.434L7.63444 46.6872C8.57657 47.6166 9.52375 48.5403 10.4714 49.4644C11.1038 50.0812 11.7363 50.6981 12.3678 51.317L12.3687 51.3179C14.1101 53.0538 16.0682 54.5754 18.2271 55.7511L18.228 55.7516C21.7868 57.7218 25.8367 58.769 29.9019 58.85M7.38338 55.0507C6.63875 55.0524 5.89487 55.0515 5.1508 55.0506C5.14973 50.9289 5.14973 46.8062 5.1508 42.6845C5.7057 42.6844 6.26057 42.6842 6.81544 42.684C10.383 42.683 13.9499 42.6819 17.5176 42.6855C17.5171 43.1975 17.5173 43.71 17.5175 44.2224C17.5176 44.4537 17.5177 44.685 17.5177 44.9163C15.9885 44.9174 14.4595 44.9173 12.9305 44.9171C11.7467 44.9169 10.563 44.9168 9.37931 44.9173L9.00551 44.9174L9.27573 45.1757C9.99235 45.8607 10.6995 46.5598 11.4078 47.2599C12.8846 48.7198 14.3659 50.1842 15.9472 51.5348L15.9469 51.5351L15.9558 51.5416C16.118 51.6609 16.2802 51.7822 16.443 51.9041C17.0905 52.3885 17.7486 52.8809 18.4635 53.2813C23.5104 56.386 29.7988 57.3668 35.5614 56.0099L35.5614 56.0099C40.8587 54.7606 45.6783 51.5706 48.8636 47.1516C49.3443 46.5432 49.7419 45.8734 50.1329 45.2148C50.2498 45.0178 50.3662 44.8219 50.484 44.6289L50.4845 44.6292L50.4906 44.6167C50.5719 44.4508 50.6548 44.2845 50.7379 44.1178C51.1295 43.3318 51.5274 42.5331 51.8073 41.6873C52.7644 39.2617 53.222 36.6568 53.2735 34.059C53.3688 29.6058 52.0912 25.1481 49.6965 21.3997C46.9195 16.9924 42.5936 13.5897 37.6528 11.9343C32.179 10.0393 25.967 10.3732 20.7295 12.8498C18.47 13.8811 16.3916 15.3009 14.589 17.0081C10.0849 21.2323 7.39799 27.3333 7.38012 33.516C7.06843 33.5157 6.75708 33.5159 6.44578 33.516C6.01451 33.5161 5.58333 33.5163 5.15143 33.5154C5.17323 30.3778 5.77715 27.243 6.94906 24.3328L6.94923 24.3324C8.73749 19.8518 11.8497 15.9172 15.784 13.1294L15.7844 13.1291C19.654 10.3649 24.3232 8.75125 29.072 8.51221L29.2145 8.50504L29.2144 8.36227C29.2139 7.81595 29.2141 7.26907 29.2142 6.72207C29.2144 5.99246 29.2146 5.26262 29.2133 4.53357L29.213 4.38391L29.0634 4.38383C28.0085 4.38327 26.9533 4.38327 25.8982 4.38327C24.893 4.38327 23.8878 4.38327 22.8828 4.38279C22.8815 3.79975 22.8817 3.21629 22.8819 2.63287C22.882 2.47191 22.882 2.31095 22.8821 2.15M29.9019 58.85H29.9005V59L29.9035 58.85C29.903 58.85 29.9024 58.85 29.9019 58.85ZM29.9019 58.85H30.6966M30.6966 58.85C30.6961 58.85 30.6957 58.85 30.6953 58.85L30.6976 59M30.6966 58.85C35.7019 58.7734 40.6782 57.1796 44.7651 54.2831L44.7659 54.2825C48.1655 51.9066 50.9589 48.6738 52.8259 44.9708L52.8261 44.9706C54.8997 40.8763 55.8062 36.2049 55.4299 31.6311L55.4299 31.6304C55.005 26.1501 52.6899 20.8543 49.0001 16.7849L48.9043 16.6793L49.005 16.5783C49.6947 15.8865 50.3847 15.1964 51.0745 14.5065C51.8149 13.766 52.555 13.0257 53.2945 12.2836M30.6966 58.85H30.6976V59M30.6976 59L53.2945 12.2836M53.2945 12.2836C53.3298 12.3189 53.3652 12.3542 53.4005 12.3895L53.5065 12.2834L53.4002 12.1775C53.365 12.2129 53.3297 12.2483 53.2945 12.2836ZM53.2945 12.2836C53.1185 12.1078 52.9429 11.9318 52.7675 11.756C52.4169 11.4047 52.0668 11.0539 51.7147 10.7049M53.2945 12.2836L37.9317 4.53271M51.7147 10.7049C51.7499 10.6697 51.7851 10.6344 51.8203 10.5992L51.7141 10.4932L51.6086 10.5999C51.644 10.6349 51.6794 10.6699 51.7147 10.7049ZM51.7147 10.7049C50.2859 12.1359 48.8559 13.568 47.4249 14.9968L47.3238 15.0978L47.218 15.0017C42.9563 11.1306 37.3439 8.78665 31.5911 8.51223L31.4484 8.50542L31.4482 8.36253V8.36169C31.4471 7.08618 31.446 5.80933 31.4482 4.53357L31.4485 4.38399L31.5981 4.38383C32.6536 4.38271 33.7094 4.38299 34.765 4.38327C35.7708 4.38354 36.7765 4.3838 37.7819 4.38286M37.7819 4.38286C37.7818 4.43274 37.7818 4.48263 37.7817 4.53252L37.9317 4.53271M37.7819 4.38286C37.8318 4.38282 37.8816 4.38277 37.9315 4.38271L37.9317 4.53271M37.7819 4.38286C37.7822 4.01043 37.7822 3.63817 37.7822 3.26594C37.7822 2.89395 37.7822 2.52198 37.7826 2.15M37.9317 4.53271C37.9323 4.11022 37.9323 3.68801 37.9323 3.26594C37.9323 2.89388 37.9323 2.52194 37.9326 2.15H37.7826M37.7826 2.15H22.8821M37.7826 2.15C37.7827 2.1 37.7827 2.05 37.7828 2L22.8821 2.15M29.2154 16.0836C29.9592 16.0828 30.7031 16.0828 31.4469 16.0836C31.4447 17.6634 31.446 19.2426 31.4472 20.8217C31.4494 23.4684 31.4516 26.1145 31.4371 28.7613L31.4365 28.876L31.547 28.9067C32.822 29.2609 33.9616 30.1054 34.5972 31.2667L34.5972 31.2667L34.599 31.2698C35.2881 32.4605 35.4212 33.9578 34.9636 35.2562L34.9629 35.2582C34.4891 36.6655 33.3305 37.8251 31.9233 38.2989L31.9216 38.2995C30.8812 38.6642 29.7157 38.6557 28.6794 38.2778L28.6782 38.2774C27.3126 37.7927 26.1886 36.6643 25.7126 35.2946L25.712 35.2928C25.3281 34.2328 25.3439 33.0358 25.734 31.9768L25.7341 31.9765C26.2742 30.4988 27.5662 29.3074 29.0968 28.9324L29.2109 28.9044L29.2111 28.7869C29.2154 26.3878 29.2149 23.9877 29.2144 21.5879C29.214 19.7528 29.2136 17.9179 29.2154 16.0836ZM29.6315 31.0842C28.3905 31.4026 27.5053 32.6908 27.6729 33.9659C27.7948 35.2234 28.9073 36.2863 30.1734 36.3364C31.3417 36.4283 32.4895 35.6491 32.8586 34.5442C33.2443 33.497 32.8682 32.2471 31.9897 31.5702C31.3391 31.0413 30.4352 30.8632 29.6315 31.0842Z" fill="#F6881B" stroke="white" stroke-width="0.3"/>
</svg>
