<svg width="23" height="23" viewBox="0 0 23 23" fill="none" xmlns="http://www.w3.org/2000/svg">
<path d="M19.5612 -0.000229836H3.35719C1.50619 -0.000229836 0 1.50596 0 3.35696V19.561C0 21.412 1.50619 22.9182 3.35719 22.9182H10.1163V14.8162H7.43058V10.7875H10.1163V8.05702C10.1163 5.83551 11.9234 4.0284 14.145 4.0284H18.2183V8.05702H14.145V10.7875H18.2183L17.5469 14.8162H14.145V22.9182H19.5612C21.4122 22.9182 22.9184 21.412 22.9184 19.561V3.35696C22.9184 1.50596 21.4122 -0.000229836 19.5612 -0.000229836Z" fill="#3374E3"/>
<mask id="mask0_1_1801" style="mask-type:alpha" maskUnits="userSpaceOnUse" x="0" y="-1" width="23" height="24">
<path d="M19.5612 -0.00012207H3.35719C1.50619 -0.00012207 0 1.50607 0 3.35707V19.5611C0 21.4121 1.50619 22.9183 3.35719 22.9183H10.1163V14.8163H7.43058V10.7876H10.1163V8.05713C10.1163 5.83562 11.9234 4.0285 14.145 4.0285H18.2183V8.05713H14.145V10.7876H18.2183L17.5469 14.8163H14.145V22.9183H19.5612C21.4122 22.9183 22.9184 21.4121 22.9184 19.5611V3.35707C22.9184 1.50607 21.4122 -0.00012207 19.5612 -0.00012207Z" fill="#3374E3"/>
</mask>
<g mask="url(#mask0_1_1801)">
<path opacity="0.2" d="M10.743 11.4595H0V-0.715928" fill="#A7A9AC"/>
<path opacity="0.2" d="M10.7429 11.4595H22.9183V-0.715928" fill="#E6E7E8"/>
<path opacity="0.2" d="M22.9183 -0.715928H10.7429V11.4595" fill="#F1F2F2"/>
<path opacity="0.2" d="M0 -0.715928H10.743V11.4595" fill="white"/>
<path opacity="0.2" d="M0 24.351H10.743V11.4594" fill="#E6E7E8"/>
<path opacity="0.2" d="M10.743 11.4594H0V24.351" fill="white"/>
<path opacity="0.2" d="M22.9183 24.351H10.7429V11.4594" fill="#F1F2F2"/>
<path opacity="0.2" d="M10.7429 11.4594H22.9183V24.351" fill="white"/>
</g>
</svg>
