<svg width="58" height="58" viewBox="0 0 58 58" fill="none" xmlns="http://www.w3.org/2000/svg">
<g clip-path="url(#clip0_134_835)">
<mask id="path-1-inside-1_134_835" fill="white">
<path fill-rule="evenodd" clip-rule="evenodd" d="M0.103516 23.0204C0.103516 35.5668 10.3114 45.7742 22.8596 45.7742C26.7584 45.7742 30.4313 44.7887 33.6423 43.0538L45.9366 55.3464C46.545 55.9558 47.2677 56.439 48.0633 56.7683C48.8589 57.0976 49.7118 57.2666 50.5729 57.2654C52.2453 57.2654 53.9176 56.6298 55.1888 55.358C57.7425 52.8044 57.7425 48.6481 55.1888 46.0945L42.8944 33.8019C44.6292 30.5913 45.6146 26.9188 45.6146 23.0204C45.6146 10.4728 35.4078 0.265381 22.8596 0.265381C10.3114 0.265381 0.103516 10.4739 0.103516 23.0204ZM41.6197 35.8854C40.033 38.1918 38.0324 40.1924 35.726 41.7791L47.6157 53.6672C49.2453 55.2953 51.8894 55.3 53.5097 53.6788C55.1378 52.0505 55.1378 49.4019 53.5097 47.7737L41.6197 35.8854ZM2.47863 23.0204C2.47863 11.7832 11.6219 2.64038 22.8596 2.64038C34.0974 2.64038 43.2395 11.7832 43.2395 23.0204C43.2395 34.2575 34.0974 43.3992 22.8596 43.3992C11.6219 43.3992 2.47863 34.2575 2.47863 23.0204ZM18.6551 23.1784C17.1836 21.9641 16.2441 20.127 16.2441 18.0746C16.2441 14.4264 19.2119 11.4597 22.8605 11.4597C26.509 11.4597 29.4754 14.4273 29.4754 18.0746C29.4754 20.1271 28.5355 21.9648 27.0635 23.1793C30.8595 24.8139 33.5238 28.5913 33.5238 32.9796C33.5238 33.0892 33.5172 33.1976 33.5105 33.306L33.51 33.3148L33.5018 33.4436C33.4889 33.7496 33.3582 34.0389 33.1371 34.2508C32.916 34.4628 32.6215 34.5812 32.3152 34.5811H13.4018C13.0971 34.581 12.804 34.4639 12.5832 34.2539C12.3624 34.0439 12.2308 33.7571 12.2154 33.4527L12.2084 33.3334C12.2004 33.2162 12.1934 33.0991 12.1934 32.9796C12.1934 28.5906 14.8582 24.8126 18.6551 23.1784ZM22.8789 22.3153C22.872 22.3153 22.8651 22.3153 22.8582 22.3153C22.8518 22.3153 22.8454 22.3153 22.839 22.3153C20.5108 22.3037 18.6193 20.4054 18.6193 18.0746C18.6193 15.7366 20.5233 13.8347 22.8605 13.8347C25.1985 13.8347 27.1003 15.7368 27.1003 18.0746C27.1003 20.4062 25.2085 22.3054 22.8789 22.3153ZM22.8387 24.6903C18.5383 24.7006 14.9952 28.003 14.605 32.2061H31.1126C30.7224 28.0036 27.1803 24.7015 22.8807 24.6903C22.874 24.6904 22.8672 24.6904 22.8605 24.6904C22.8532 24.6904 22.846 24.6904 22.8387 24.6903Z"/>
</mask>
<path fill-rule="evenodd" clip-rule="evenodd" d="M0.103516 23.0204C0.103516 35.5668 10.3114 45.7742 22.8596 45.7742C26.7584 45.7742 30.4313 44.7887 33.6423 43.0538L45.9366 55.3464C46.545 55.9558 47.2677 56.439 48.0633 56.7683C48.8589 57.0976 49.7118 57.2666 50.5729 57.2654C52.2453 57.2654 53.9176 56.6298 55.1888 55.358C57.7425 52.8044 57.7425 48.6481 55.1888 46.0945L42.8944 33.8019C44.6292 30.5913 45.6146 26.9188 45.6146 23.0204C45.6146 10.4728 35.4078 0.265381 22.8596 0.265381C10.3114 0.265381 0.103516 10.4739 0.103516 23.0204ZM41.6197 35.8854C40.033 38.1918 38.0324 40.1924 35.726 41.7791L47.6157 53.6672C49.2453 55.2953 51.8894 55.3 53.5097 53.6788C55.1378 52.0505 55.1378 49.4019 53.5097 47.7737L41.6197 35.8854ZM2.47863 23.0204C2.47863 11.7832 11.6219 2.64038 22.8596 2.64038C34.0974 2.64038 43.2395 11.7832 43.2395 23.0204C43.2395 34.2575 34.0974 43.3992 22.8596 43.3992C11.6219 43.3992 2.47863 34.2575 2.47863 23.0204ZM18.6551 23.1784C17.1836 21.9641 16.2441 20.127 16.2441 18.0746C16.2441 14.4264 19.2119 11.4597 22.8605 11.4597C26.509 11.4597 29.4754 14.4273 29.4754 18.0746C29.4754 20.1271 28.5355 21.9648 27.0635 23.1793C30.8595 24.8139 33.5238 28.5913 33.5238 32.9796C33.5238 33.0892 33.5172 33.1976 33.5105 33.306L33.51 33.3148L33.5018 33.4436C33.4889 33.7496 33.3582 34.0389 33.1371 34.2508C32.916 34.4628 32.6215 34.5812 32.3152 34.5811H13.4018C13.0971 34.581 12.804 34.4639 12.5832 34.2539C12.3624 34.0439 12.2308 33.7571 12.2154 33.4527L12.2084 33.3334C12.2004 33.2162 12.1934 33.0991 12.1934 32.9796C12.1934 28.5906 14.8582 24.8126 18.6551 23.1784ZM22.8789 22.3153C22.872 22.3153 22.8651 22.3153 22.8582 22.3153C22.8518 22.3153 22.8454 22.3153 22.839 22.3153C20.5108 22.3037 18.6193 20.4054 18.6193 18.0746C18.6193 15.7366 20.5233 13.8347 22.8605 13.8347C25.1985 13.8347 27.1003 15.7368 27.1003 18.0746C27.1003 20.4062 25.2085 22.3054 22.8789 22.3153ZM22.8387 24.6903C18.5383 24.7006 14.9952 28.003 14.605 32.2061H31.1126C30.7224 28.0036 27.1803 24.7015 22.8807 24.6903C22.874 24.6904 22.8672 24.6904 22.8605 24.6904C22.8532 24.6904 22.846 24.6904 22.8387 24.6903Z" fill="#F6881B"/>
<path d="M33.6423 43.0538L33.7837 42.9123L33.6783 42.807L33.5472 42.8778L33.6423 43.0538ZM45.9366 55.3464L46.0782 55.2051L46.078 55.205L45.9366 55.3464ZM50.5729 57.2654V57.0654H50.5726L50.5729 57.2654ZM55.1888 55.358L55.0474 55.2166L55.0473 55.2166L55.1888 55.358ZM55.1888 46.0945L55.3302 45.9531L55.3302 45.9531L55.1888 46.0945ZM42.8944 33.8019L42.7185 33.7068L42.6476 33.8379L42.753 33.9433L42.8944 33.8019ZM35.726 41.7791L35.6126 41.6143L35.4146 41.7505L35.5846 41.9205L35.726 41.7791ZM41.6197 35.8854L41.7611 35.744L41.5912 35.5741L41.4549 35.7721L41.6197 35.8854ZM47.6157 53.6672L47.4743 53.8086L47.4744 53.8087L47.6157 53.6672ZM53.5097 53.6788L53.3682 53.5373L53.3682 53.5374L53.5097 53.6788ZM53.5097 47.7737L53.6511 47.6323L53.6511 47.6323L53.5097 47.7737ZM18.6551 23.1784L18.7341 23.3621L19.035 23.2327L18.7824 23.0242L18.6551 23.1784ZM27.0635 23.1793L26.9362 23.025L26.6836 23.2335L26.9844 23.363L27.0635 23.1793ZM33.5105 33.306L33.7101 33.3183V33.3183L33.5105 33.306ZM33.51 33.3148L33.7096 33.3274L33.7096 33.3271L33.51 33.3148ZM33.5018 33.4436L33.3021 33.4309L33.302 33.4352L33.5018 33.4436ZM33.1371 34.2508L33.2755 34.3952L33.1371 34.2508ZM32.3152 34.5811L32.3152 34.3811H32.3152V34.5811ZM13.4018 34.5811L13.4018 34.7811H13.4018V34.5811ZM12.5832 34.2539L12.4454 34.3988L12.5832 34.2539ZM12.2154 33.4527L12.4152 33.4426L12.4151 33.441L12.2154 33.4527ZM12.2084 33.3334L12.408 33.3216L12.4079 33.3198L12.2084 33.3334ZM22.8789 22.3153L22.8785 22.5153L22.8797 22.5153L22.8789 22.3153ZM22.839 22.3153L22.838 22.5153L22.8394 22.5153L22.839 22.3153ZM22.8387 24.6903L22.8393 24.4903L22.8382 24.4903L22.8387 24.6903ZM14.605 32.2061L14.4058 32.1876L14.3855 32.4061H14.605V32.2061ZM31.1126 32.2061V32.4061H31.332L31.3118 32.1876L31.1126 32.2061ZM22.8807 24.6903L22.8812 24.4903L22.8801 24.4903L22.8807 24.6903ZM22.8596 45.5742C10.4218 45.5742 0.303516 35.4563 0.303516 23.0204H-0.0964844C-0.0964844 35.6773 10.201 45.9742 22.8596 45.9742V45.5742ZM33.5472 42.8778C30.3647 44.5974 26.7243 45.5742 22.8596 45.5742V45.9742C26.7925 45.9742 30.498 44.98 33.7374 43.2297L33.5472 42.8778ZM46.078 55.205L33.7837 42.9123L33.5009 43.1952L45.7952 55.4878L46.078 55.205ZM48.1398 56.5835C47.3685 56.2643 46.6679 55.7958 46.0782 55.2051L45.7951 55.4877C46.422 56.1157 47.1669 56.6137 47.9868 56.9531L48.1398 56.5835ZM50.5726 57.0654C49.7378 57.0665 48.9111 56.9028 48.1398 56.5835L47.9868 56.9531C48.8068 57.2925 49.6857 57.4666 50.5731 57.4654L50.5726 57.0654ZM55.0473 55.2166C53.8154 56.4492 52.1948 57.0654 50.5729 57.0654V57.4654C52.2959 57.4654 54.0198 56.8105 55.3302 55.4994L55.0473 55.2166ZM55.0474 46.2359C57.523 48.7114 57.523 52.7411 55.0474 55.2166L55.3302 55.4994C57.962 52.8677 57.962 48.5848 55.3302 45.9531L55.0474 46.2359ZM42.753 33.9433L55.0474 46.236L55.3302 45.9531L43.0358 33.6604L42.753 33.9433ZM45.4146 23.0204C45.4146 26.8848 44.4379 30.5246 42.7185 33.7068L43.0704 33.8969C44.8205 30.658 45.8146 26.9529 45.8146 23.0204H45.4146ZM22.8596 0.465381C35.2974 0.465381 45.4146 10.5832 45.4146 23.0204H45.8146C45.8146 10.3623 35.5183 0.0653809 22.8596 0.0653809V0.465381ZM0.303516 23.0204C0.303516 10.5844 10.4218 0.465381 22.8596 0.465381V0.0653809C10.2009 0.0653809 -0.0964844 10.3634 -0.0964844 23.0204H0.303516ZM35.8393 41.9438C38.1659 40.3433 40.1839 38.3253 41.7845 35.9988L41.4549 35.7721C39.8821 38.0583 37.8989 40.0415 35.6126 41.6143L35.8393 41.9438ZM47.7572 53.5257L35.8674 41.6376L35.5846 41.9205L47.4743 53.8086L47.7572 53.5257ZM53.3682 53.5374C51.8267 55.0799 49.3091 55.0764 47.7571 53.5257L47.4744 53.8087C49.1814 55.5142 51.9522 55.5201 53.6511 53.8201L53.3682 53.5374ZM53.3682 47.9152C54.9183 49.4652 54.9183 51.9871 53.3682 53.5373L53.6511 53.8202C55.3574 52.1138 55.3574 49.3385 53.6511 47.6323L53.3682 47.9152ZM41.4783 36.0269L53.3682 47.9152L53.6511 47.6323L41.7611 35.744L41.4783 36.0269ZM22.8596 2.44038C11.5114 2.44038 2.27863 11.6727 2.27863 23.0204H2.67863C2.67863 11.8936 11.7323 2.84038 22.8596 2.84038V2.44038ZM43.4395 23.0204C43.4395 11.6727 34.2078 2.44038 22.8596 2.44038V2.84038C33.9869 2.84038 43.0395 11.8936 43.0395 23.0204H43.4395ZM22.8596 43.5992C34.2078 43.5992 43.4395 34.368 43.4395 23.0204H43.0395C43.0395 34.1471 33.9869 43.1992 22.8596 43.1992V43.5992ZM2.27863 23.0204C2.27863 34.368 11.5115 43.5992 22.8596 43.5992V43.1992C11.7323 43.1992 2.67863 34.147 2.67863 23.0204H2.27863ZM16.0441 18.0746C16.0441 20.1894 17.0124 22.0821 18.5278 23.3327L18.7824 23.0242C17.3548 21.846 16.4441 20.0646 16.4441 18.0746H16.0441ZM22.8605 11.2597C19.1015 11.2597 16.0441 14.3159 16.0441 18.0746H16.4441C16.4441 14.5369 19.3223 11.6597 22.8605 11.6597V11.2597ZM29.6754 18.0746C29.6754 14.3169 26.6195 11.2597 22.8605 11.2597V11.6597C26.3985 11.6597 29.2754 14.5378 29.2754 18.0746H29.6754ZM27.1908 23.3336C28.7067 22.0828 29.6754 20.1896 29.6754 18.0746H29.2754C29.2754 20.0647 28.3643 21.8467 26.9362 23.025L27.1908 23.3336ZM26.9844 23.363C30.7099 24.9672 33.3238 28.6743 33.3238 32.9796H33.7238C33.7238 28.5084 31.0091 24.6606 27.1426 22.9956L26.9844 23.363ZM33.3238 32.9796C33.3238 33.082 33.3176 33.1844 33.3109 33.2938L33.7101 33.3183C33.7167 33.2109 33.7238 33.0963 33.7238 32.9796H33.3238ZM33.3109 33.2938L33.3103 33.3025L33.7096 33.3271L33.7101 33.3183L33.3109 33.2938ZM33.3104 33.3021L33.3022 33.431L33.7014 33.4563L33.7096 33.3274L33.3104 33.3021ZM33.302 33.4352C33.2912 33.6897 33.1826 33.9302 32.9987 34.1065L33.2755 34.3952C33.5339 34.1475 33.6865 33.8096 33.7016 33.452L33.302 33.4352ZM32.9987 34.1065C32.8148 34.2827 32.5699 34.3812 32.3152 34.3811L32.3152 34.7811C32.6731 34.7812 33.0172 34.6429 33.2755 34.3952L32.9987 34.1065ZM32.3152 34.3811H13.4018V34.7811H32.3152V34.3811ZM13.4019 34.3811C13.1484 34.3811 12.9047 34.2836 12.7211 34.1089L12.4454 34.3988C12.7034 34.6441 13.0457 34.781 13.4018 34.7811L13.4019 34.3811ZM12.7211 34.1089C12.5374 33.9343 12.4279 33.6958 12.4151 33.4426L12.0157 33.4628C12.0336 33.8184 12.1874 34.1534 12.4454 34.3988L12.7211 34.1089ZM12.4151 33.441L12.408 33.3216L12.0087 33.3452L12.0157 33.4645L12.4151 33.441ZM12.4079 33.3198C12.4 33.2031 12.3934 33.0918 12.3934 32.9796H11.9934C11.9934 33.1064 12.0008 33.2293 12.0088 33.347L12.4079 33.3198ZM12.3934 32.9796C12.3934 28.6735 15.0078 24.9659 18.7341 23.3621L18.576 22.9947C14.7086 24.6593 11.9934 28.5076 11.9934 32.9796H12.3934ZM22.8582 22.5153C22.865 22.5153 22.8718 22.5153 22.8785 22.5153L22.8793 22.1153C22.8722 22.1153 22.8652 22.1153 22.8582 22.1153V22.5153ZM22.8394 22.5153C22.8455 22.5153 22.8516 22.5153 22.8582 22.5153V22.1153C22.852 22.1153 22.8453 22.1153 22.8387 22.1153L22.8394 22.5153ZM22.84 22.1153C20.6217 22.1043 18.8193 20.2952 18.8193 18.0746H18.4193C18.4193 20.5155 20.3998 22.5032 22.838 22.5153L22.84 22.1153ZM18.8193 18.0746C18.8193 15.8472 20.6337 14.0347 22.8605 14.0347V13.6347C20.413 13.6347 18.4193 15.626 18.4193 18.0746H18.8193ZM22.8605 14.0347C25.0881 14.0347 26.9003 15.8473 26.9003 18.0746H27.3003C27.3003 15.6264 25.309 13.6347 22.8605 13.6347V14.0347ZM26.9003 18.0746C26.9003 20.2961 25.0975 22.1058 22.878 22.1153L22.8797 22.5153C25.3195 22.5049 27.3003 20.5163 27.3003 18.0746H26.9003ZM22.8382 24.4903C18.4338 24.5008 14.8055 27.8829 14.4058 32.1876L14.8041 32.2246C15.1849 28.1232 18.6429 24.9003 22.8392 24.8903L22.8382 24.4903ZM14.605 32.4061H31.1126V32.0061H14.605V32.4061ZM31.3118 32.1876C30.9121 27.8835 27.2848 24.5018 22.8812 24.4903L22.8802 24.8903C27.0757 24.9013 30.5327 28.1238 30.9135 32.2246L31.3118 32.1876ZM22.8605 24.8904C22.8674 24.8904 22.8744 24.8904 22.8813 24.8903L22.8801 24.4903C22.8736 24.4904 22.867 24.4904 22.8605 24.4904V24.8904ZM22.8381 24.8903C22.8455 24.8904 22.853 24.8904 22.8605 24.8904V24.4904C22.8534 24.4904 22.8464 24.4904 22.8393 24.4903L22.8381 24.8903Z" fill="white" mask="url(#path-1-inside-1_134_835)"/>
</g>
<defs>
<clipPath id="clip0_134_835">
<rect width="57" height="57" fill="white" transform="translate(0.103516 0.265381)"/>
</clipPath>
</defs>
</svg>
