<svg width="38" height="38" viewBox="0 0 38 38" fill="none" xmlns="http://www.w3.org/2000/svg">
<path d="M33.4901 2H4.50986C3.8442 2 3.20581 2.26443 2.73512 2.73512C2.26443 3.20581 2 3.8442 2 4.50986V33.4901C2 34.1558 2.26443 34.7942 2.73512 35.2649C3.20581 35.7356 3.8442 36 4.50986 36H33.4901C34.1558 36 34.7942 35.7356 35.2649 35.2649C35.7356 34.7942 36 34.1558 36 33.4901V4.50986C36 3.8442 35.7356 3.20581 35.2649 2.73512C34.7942 2.26443 34.1558 2 33.4901 2ZM12.1339 30.9637H7.02208V14.7264H12.1339V30.9637ZM9.57445 12.4763C8.9946 12.473 8.42871 12.298 7.94821 11.9735C7.4677 11.6489 7.09411 11.1893 6.87458 10.6526C6.65505 10.1159 6.59942 9.52617 6.71471 8.95789C6.83 8.38962 7.11105 7.86823 7.52239 7.45952C7.93372 7.05082 8.4569 6.77313 9.02591 6.66149C9.59492 6.54984 10.1842 6.60926 10.7195 6.83223C11.2548 7.0552 11.712 7.43174 12.0335 7.91432C12.355 8.3969 12.5263 8.9639 12.5258 9.54375C12.5313 9.93196 12.4586 10.3173 12.3119 10.6768C12.1653 11.0363 11.9478 11.3626 11.6724 11.6363C11.397 11.9099 11.0693 12.1253 10.7089 12.2696C10.3484 12.4139 9.96262 12.4842 9.57445 12.4763ZM30.9756 30.9779H25.8661V22.1072C25.8661 19.4911 24.754 18.6836 23.3185 18.6836C21.8026 18.6836 20.3151 19.8264 20.3151 22.1733V30.9779H15.2033V14.7382H20.1192V16.9883H20.1853C20.6788 15.9896 22.4071 14.2825 25.0444 14.2825C27.8967 14.2825 30.9779 15.9754 30.9779 20.9338L30.9756 30.9779Z" fill="#3BA17C"/>
<path d="M33.4901 2H4.50986C3.8442 2 3.20581 2.26443 2.73512 2.73512C2.26443 3.20581 2 3.8442 2 4.50986V33.4901C2 34.1558 2.26443 34.7942 2.73512 35.2649C3.20581 35.7356 3.8442 36 4.50986 36H33.4901C34.1558 36 34.7942 35.7356 35.2649 35.2649C35.7356 34.7942 36 34.1558 36 33.4901V4.50986C36 3.8442 35.7356 3.20581 35.2649 2.73512C34.7942 2.26443 34.1558 2 33.4901 2ZM12.1339 30.9637H7.02208V14.7264H12.1339V30.9637ZM9.57445 12.4763C8.9946 12.473 8.42871 12.298 7.94821 11.9735C7.4677 11.6489 7.09411 11.1893 6.87458 10.6526C6.65505 10.1159 6.59942 9.52617 6.71471 8.95789C6.83 8.38962 7.11105 7.86823 7.52239 7.45952C7.93372 7.05082 8.4569 6.77313 9.02591 6.66149C9.59492 6.54984 10.1842 6.60926 10.7195 6.83223C11.2548 7.0552 11.712 7.43174 12.0335 7.91432C12.355 8.3969 12.5263 8.9639 12.5258 9.54375C12.5313 9.93196 12.4586 10.3173 12.3119 10.6768C12.1653 11.0363 11.9478 11.3626 11.6724 11.6363C11.397 11.9099 11.0693 12.1253 10.7089 12.2696C10.3484 12.4139 9.96262 12.4842 9.57445 12.4763ZM30.9756 30.9779H25.8661V22.1072C25.8661 19.4911 24.754 18.6836 23.3185 18.6836C21.8026 18.6836 20.3151 19.8264 20.3151 22.1733V30.9779H15.2033V14.7382H20.1192V16.9883H20.1853C20.6788 15.9896 22.4071 14.2825 25.0444 14.2825C27.8967 14.2825 30.9779 15.9754 30.9779 20.9338L30.9756 30.9779Z" fill="#0098AE"/>
<path d="M33.4901 2H4.50986C3.8442 2 3.20581 2.26443 2.73512 2.73512C2.26443 3.20581 2 3.8442 2 4.50986V33.4901C2 34.1558 2.26443 34.7942 2.73512 35.2649C3.20581 35.7356 3.8442 36 4.50986 36H33.4901C34.1558 36 34.7942 35.7356 35.2649 35.2649C35.7356 34.7942 36 34.1558 36 33.4901V4.50986C36 3.8442 35.7356 3.20581 35.2649 2.73512C34.7942 2.26443 34.1558 2 33.4901 2ZM12.1339 30.9637H7.02208V14.7264H12.1339V30.9637ZM9.57445 12.4763C8.9946 12.473 8.42871 12.298 7.94821 11.9735C7.4677 11.6489 7.09411 11.1893 6.87458 10.6526C6.65505 10.1159 6.59942 9.52617 6.71471 8.95789C6.83 8.38962 7.11105 7.86823 7.52239 7.45952C7.93372 7.05082 8.4569 6.77313 9.02591 6.66149C9.59492 6.54984 10.1842 6.60926 10.7195 6.83223C11.2548 7.0552 11.712 7.43174 12.0335 7.91432C12.355 8.3969 12.5263 8.9639 12.5258 9.54375C12.5313 9.93196 12.4586 10.3173 12.3119 10.6768C12.1653 11.0363 11.9478 11.3626 11.6724 11.6363C11.397 11.9099 11.0693 12.1253 10.7089 12.2696C10.3484 12.4139 9.96262 12.4842 9.57445 12.4763ZM30.9756 30.9779H25.8661V22.1072C25.8661 19.4911 24.754 18.6836 23.3185 18.6836C21.8026 18.6836 20.3151 19.8264 20.3151 22.1733V30.9779H15.2033V14.7382H20.1192V16.9883H20.1853C20.6788 15.9896 22.4071 14.2825 25.0444 14.2825C27.8967 14.2825 30.9779 15.9754 30.9779 20.9338L30.9756 30.9779Z" fill="url(#paint0_linear_199_10199)" fill-opacity="0.5"/>
<path d="M33.4901 2H4.50986C3.8442 2 3.20581 2.26443 2.73512 2.73512C2.26443 3.20581 2 3.8442 2 4.50986V33.4901C2 34.1558 2.26443 34.7942 2.73512 35.2649C3.20581 35.7356 3.8442 36 4.50986 36H33.4901C34.1558 36 34.7942 35.7356 35.2649 35.2649C35.7356 34.7942 36 34.1558 36 33.4901V4.50986C36 3.8442 35.7356 3.20581 35.2649 2.73512C34.7942 2.26443 34.1558 2 33.4901 2ZM12.1339 30.9637H7.02208V14.7264H12.1339V30.9637ZM9.57445 12.4763C8.9946 12.473 8.42871 12.298 7.94821 11.9735C7.4677 11.6489 7.09411 11.1893 6.87458 10.6526C6.65505 10.1159 6.59942 9.52617 6.71471 8.95789C6.83 8.38962 7.11105 7.86823 7.52239 7.45952C7.93372 7.05082 8.4569 6.77313 9.02591 6.66149C9.59492 6.54984 10.1842 6.60926 10.7195 6.83223C11.2548 7.0552 11.712 7.43174 12.0335 7.91432C12.355 8.3969 12.5263 8.9639 12.5258 9.54375C12.5313 9.93196 12.4586 10.3173 12.3119 10.6768C12.1653 11.0363 11.9478 11.3626 11.6724 11.6363C11.397 11.9099 11.0693 12.1253 10.7089 12.2696C10.3484 12.4139 9.96262 12.4842 9.57445 12.4763ZM30.9756 30.9779H25.8661V22.1072C25.8661 19.4911 24.754 18.6836 23.3185 18.6836C21.8026 18.6836 20.3151 19.8264 20.3151 22.1733V30.9779H15.2033V14.7382H20.1192V16.9883H20.1853C20.6788 15.9896 22.4071 14.2825 25.0444 14.2825C27.8967 14.2825 30.9779 15.9754 30.9779 20.9338L30.9756 30.9779Z" fill="url(#paint1_linear_199_10199)" fill-opacity="0.5"/>
<defs>
<linearGradient id="paint0_linear_199_10199" x1="40.6164" y1="1.99999" x2="-1.71161" y2="3.6948" gradientUnits="userSpaceOnUse">
<stop stop-color="#35CADF"/>
<stop offset="1" stop-color="#1EDC53" stop-opacity="0"/>
</linearGradient>
<linearGradient id="paint1_linear_199_10199" x1="33.5705" y1="1.99998" x2="5.84435" y2="3.10378" gradientUnits="userSpaceOnUse">
<stop stop-color="#35CADF"/>
<stop offset="1" stop-color="#1EDC53" stop-opacity="0.39"/>
</linearGradient>
</defs>
</svg>
