<svg width="55" height="50" viewBox="0 0 55 50" fill="none" xmlns="http://www.w3.org/2000/svg">
<mask id="path-1-inside-1_134_812" fill="white">
<path fill-rule="evenodd" clip-rule="evenodd" d="M4.57163 37.1977H7.27524V49.2675H4.57163V37.1977ZM44.0871 7.81029L37.1028 14.7715C36.0293 14.2419 34.8103 14.0809 33.6355 14.3136C32.4607 14.5463 31.396 15.1597 30.6074 16.0582L25.7273 14.0372C25.7273 13.9159 25.7273 13.7969 25.7273 13.6756C25.7332 12.869 25.5579 12.0712 25.2143 11.3408C24.8708 10.6103 24.3677 9.96571 23.7419 9.45413C23.1161 8.94254 22.3834 8.57695 21.5975 8.3841C20.8115 8.19125 19.9923 8.17604 19.1997 8.33958C18.4071 8.50312 17.6613 8.84127 17.0168 9.32927C16.3723 9.81727 15.8454 10.4428 15.4748 11.1599C15.1043 11.8771 14.8993 12.6678 14.875 13.4742C14.8506 14.2805 15.0076 15.0821 15.3342 15.8201L8.34992 22.7813C7.19593 22.211 5.87617 22.068 4.62617 22.3778C3.37617 22.6876 2.27729 23.43 1.52565 24.4725C0.774019 25.5151 0.418543 26.7899 0.522669 28.0695C0.626795 29.3491 1.18375 30.5501 2.09412 31.4583C3.0045 32.3665 4.20906 32.9227 5.4928 33.0277C6.77655 33.1326 8.05594 32.7795 9.10264 32.0313C10.1493 31.2831 10.8952 30.1886 11.2072 28.943C11.5191 27.6974 11.3768 26.3819 10.8057 25.2312L17.6616 18.398C18.748 19.0082 20.0122 19.2266 21.2413 19.0164C22.4704 18.8062 23.5892 18.1801 24.4093 17.2438L29.2871 19.2648C29.2191 19.9989 29.3024 20.7391 29.5319 21.44C29.7613 22.1409 30.1321 22.7876 30.6214 23.3404C31.1108 23.8933 31.7083 24.3407 32.3774 24.655C33.0464 24.9694 33.7729 25.1441 34.5122 25.1685C35.2515 25.1928 35.9879 25.0663 36.6764 24.7967C37.3648 24.5271 37.9907 24.1201 38.5156 23.6007C39.0406 23.0813 39.4534 22.4604 39.7288 21.7762C40.0042 21.0919 40.1364 20.3588 40.1173 19.6218V19.5275C40.1121 19.1994 40.0767 18.8724 40.0114 18.5507C39.9407 18.2089 39.8381 17.8743 39.705 17.5515C39.6577 17.4392 39.6059 17.3269 39.554 17.2236L46.4099 10.3949C47.5319 11.0253 48.8421 11.2378 50.1068 10.9946C51.3714 10.7513 52.5082 10.0681 53.3142 9.06685C54.1203 8.06559 54.5431 6.81146 54.5073 5.52824C54.4715 4.24503 53.9794 3.01624 53.1189 2.06115C52.2583 1.10607 51.0852 0.486842 49.8089 0.313974C48.5327 0.141106 47.2363 0.425847 46.1512 1.11738C45.0661 1.80892 44.2628 2.86225 43.8847 4.08941C43.5067 5.31656 43.5784 6.63769 44.0871 7.81703V7.81029ZM47.7144 15.4115H50.418V49.2675H47.7144V15.4115ZM33.3335 29.3585H36.0371V49.2675H33.3335V29.3585ZM18.9526 23.4191H21.6674V49.2653H18.9526V23.4191ZM5.92794 24.9236C6.46218 24.9258 6.98378 25.0857 7.4269 25.3832C7.87002 25.6806 8.2148 26.1022 8.4177 26.5948C8.6206 27.0874 8.67254 27.6288 8.56695 28.1508C8.46136 28.6727 8.20299 29.1518 7.82443 29.5276C7.44588 29.9033 6.96413 30.1588 6.43999 30.2619C5.91586 30.365 5.37283 30.3109 4.87947 30.1067C4.3861 29.9024 3.96452 29.557 3.66794 29.1141C3.37136 28.6712 3.21307 28.1507 3.21307 27.6182C3.21307 27.2634 3.28337 26.9121 3.41994 26.5844C3.55652 26.2568 3.75667 25.9592 4.00892 25.7088C4.26116 25.4585 4.56054 25.2602 4.88986 25.1255C5.21917 24.9907 5.57195 24.9221 5.92794 24.9236ZM20.3111 10.9765C20.8444 10.9805 21.3646 11.1416 21.8062 11.4395C22.2478 11.7374 22.5912 12.1588 22.7931 12.6508C22.995 13.1427 23.0465 13.6832 22.941 14.2042C22.8355 14.7252 22.5777 15.2035 22.2002 15.5789C21.8226 15.9542 21.3421 16.2099 20.8191 16.3138C20.2961 16.4176 19.754 16.365 19.2609 16.1626C18.7678 15.9601 18.3459 15.6168 18.0481 15.1759C17.7503 14.735 17.5899 14.2161 17.5872 13.6846C17.5858 13.3289 17.655 12.9763 17.7909 12.6474C17.9268 12.3184 18.1267 12.0195 18.3791 11.768C18.6315 11.5164 18.9314 11.3172 19.2614 11.1817C19.5915 11.0462 19.9452 10.9773 20.3021 10.9788L20.3111 10.9765ZM34.6898 16.907C35.224 16.907 35.7463 17.0647 36.1907 17.3603C36.635 17.6559 36.9816 18.0761 37.1865 18.5679C37.3915 19.0596 37.4457 19.6008 37.3423 20.1232C37.2388 20.6456 36.9825 21.1258 36.6055 21.5031C36.2285 21.8804 35.7478 22.1379 35.2241 22.2431C34.7004 22.3484 34.1572 22.2966 33.663 22.0944C33.1687 21.8921 32.7457 21.5485 32.4473 21.1069C32.1489 20.6652 31.9884 20.1453 31.9862 19.6129C31.9847 19.2581 32.0535 18.9064 32.1888 18.5782C32.324 18.25 32.5229 17.9516 32.7741 17.7002C33.0253 17.4488 33.3238 17.2493 33.6526 17.1132C33.9813 16.977 34.3338 16.907 34.6898 16.907ZM49.073 2.96216C49.6077 2.96216 50.1304 3.1202 50.575 3.41629C51.0196 3.71238 51.3662 4.13323 51.5708 4.62562C51.7754 5.118 51.829 5.6598 51.7246 6.18251C51.6203 6.70523 51.3628 7.18537 50.9847 7.56222C50.6066 7.93907 50.1249 8.19571 49.6004 8.29969C49.076 8.40366 48.5324 8.3503 48.0384 8.14635C47.5443 7.9424 47.1221 7.59702 46.825 7.15388C46.5279 6.71075 46.3694 6.18976 46.3694 5.65681C46.3718 4.9437 46.6577 4.26061 47.1644 3.75721C47.6712 3.25381 48.3575 2.97114 49.073 2.97114V2.96216Z"/>
</mask>
<path fill-rule="evenodd" clip-rule="evenodd" d="M4.57163 37.1977H7.27524V49.2675H4.57163V37.1977ZM44.0871 7.81029L37.1028 14.7715C36.0293 14.2419 34.8103 14.0809 33.6355 14.3136C32.4607 14.5463 31.396 15.1597 30.6074 16.0582L25.7273 14.0372C25.7273 13.9159 25.7273 13.7969 25.7273 13.6756C25.7332 12.869 25.5579 12.0712 25.2143 11.3408C24.8708 10.6103 24.3677 9.96571 23.7419 9.45413C23.1161 8.94254 22.3834 8.57695 21.5975 8.3841C20.8115 8.19125 19.9923 8.17604 19.1997 8.33958C18.4071 8.50312 17.6613 8.84127 17.0168 9.32927C16.3723 9.81727 15.8454 10.4428 15.4748 11.1599C15.1043 11.8771 14.8993 12.6678 14.875 13.4742C14.8506 14.2805 15.0076 15.0821 15.3342 15.8201L8.34992 22.7813C7.19593 22.211 5.87617 22.068 4.62617 22.3778C3.37617 22.6876 2.27729 23.43 1.52565 24.4725C0.774019 25.5151 0.418543 26.7899 0.522669 28.0695C0.626795 29.3491 1.18375 30.5501 2.09412 31.4583C3.0045 32.3665 4.20906 32.9227 5.4928 33.0277C6.77655 33.1326 8.05594 32.7795 9.10264 32.0313C10.1493 31.2831 10.8952 30.1886 11.2072 28.943C11.5191 27.6974 11.3768 26.3819 10.8057 25.2312L17.6616 18.398C18.748 19.0082 20.0122 19.2266 21.2413 19.0164C22.4704 18.8062 23.5892 18.1801 24.4093 17.2438L29.2871 19.2648C29.2191 19.9989 29.3024 20.7391 29.5319 21.44C29.7613 22.1409 30.1321 22.7876 30.6214 23.3404C31.1108 23.8933 31.7083 24.3407 32.3774 24.655C33.0464 24.9694 33.7729 25.1441 34.5122 25.1685C35.2515 25.1928 35.9879 25.0663 36.6764 24.7967C37.3648 24.5271 37.9907 24.1201 38.5156 23.6007C39.0406 23.0813 39.4534 22.4604 39.7288 21.7762C40.0042 21.0919 40.1364 20.3588 40.1173 19.6218V19.5275C40.1121 19.1994 40.0767 18.8724 40.0114 18.5507C39.9407 18.2089 39.8381 17.8743 39.705 17.5515C39.6577 17.4392 39.6059 17.3269 39.554 17.2236L46.4099 10.3949C47.5319 11.0253 48.8421 11.2378 50.1068 10.9946C51.3714 10.7513 52.5082 10.0681 53.3142 9.06685C54.1203 8.06559 54.5431 6.81146 54.5073 5.52824C54.4715 4.24503 53.9794 3.01624 53.1189 2.06115C52.2583 1.10607 51.0852 0.486842 49.8089 0.313974C48.5327 0.141106 47.2363 0.425847 46.1512 1.11738C45.0661 1.80892 44.2628 2.86225 43.8847 4.08941C43.5067 5.31656 43.5784 6.63769 44.0871 7.81703V7.81029ZM47.7144 15.4115H50.418V49.2675H47.7144V15.4115ZM33.3335 29.3585H36.0371V49.2675H33.3335V29.3585ZM18.9526 23.4191H21.6674V49.2653H18.9526V23.4191ZM5.92794 24.9236C6.46218 24.9258 6.98378 25.0857 7.4269 25.3832C7.87002 25.6806 8.2148 26.1022 8.4177 26.5948C8.6206 27.0874 8.67254 27.6288 8.56695 28.1508C8.46136 28.6727 8.20299 29.1518 7.82443 29.5276C7.44588 29.9033 6.96413 30.1588 6.43999 30.2619C5.91586 30.365 5.37283 30.3109 4.87947 30.1067C4.3861 29.9024 3.96452 29.557 3.66794 29.1141C3.37136 28.6712 3.21307 28.1507 3.21307 27.6182C3.21307 27.2634 3.28337 26.9121 3.41994 26.5844C3.55652 26.2568 3.75667 25.9592 4.00892 25.7088C4.26116 25.4585 4.56054 25.2602 4.88986 25.1255C5.21917 24.9907 5.57195 24.9221 5.92794 24.9236ZM20.3111 10.9765C20.8444 10.9805 21.3646 11.1416 21.8062 11.4395C22.2478 11.7374 22.5912 12.1588 22.7931 12.6508C22.995 13.1427 23.0465 13.6832 22.941 14.2042C22.8355 14.7252 22.5777 15.2035 22.2002 15.5789C21.8226 15.9542 21.3421 16.2099 20.8191 16.3138C20.2961 16.4176 19.754 16.365 19.2609 16.1626C18.7678 15.9601 18.3459 15.6168 18.0481 15.1759C17.7503 14.735 17.5899 14.2161 17.5872 13.6846C17.5858 13.3289 17.655 12.9763 17.7909 12.6474C17.9268 12.3184 18.1267 12.0195 18.3791 11.768C18.6315 11.5164 18.9314 11.3172 19.2614 11.1817C19.5915 11.0462 19.9452 10.9773 20.3021 10.9788L20.3111 10.9765ZM34.6898 16.907C35.224 16.907 35.7463 17.0647 36.1907 17.3603C36.635 17.6559 36.9816 18.0761 37.1865 18.5679C37.3915 19.0596 37.4457 19.6008 37.3423 20.1232C37.2388 20.6456 36.9825 21.1258 36.6055 21.5031C36.2285 21.8804 35.7478 22.1379 35.2241 22.2431C34.7004 22.3484 34.1572 22.2966 33.663 22.0944C33.1687 21.8921 32.7457 21.5485 32.4473 21.1069C32.1489 20.6652 31.9884 20.1453 31.9862 19.6129C31.9847 19.2581 32.0535 18.9064 32.1888 18.5782C32.324 18.25 32.5229 17.9516 32.7741 17.7002C33.0253 17.4488 33.3238 17.2493 33.6526 17.1132C33.9813 16.977 34.3338 16.907 34.6898 16.907ZM49.073 2.96216C49.6077 2.96216 50.1304 3.1202 50.575 3.41629C51.0196 3.71238 51.3662 4.13323 51.5708 4.62562C51.7754 5.118 51.829 5.6598 51.7246 6.18251C51.6203 6.70523 51.3628 7.18537 50.9847 7.56222C50.6066 7.93907 50.1249 8.19571 49.6004 8.29969C49.076 8.40366 48.5324 8.3503 48.0384 8.14635C47.5443 7.9424 47.1221 7.59702 46.825 7.15388C46.5279 6.71075 46.3694 6.18976 46.3694 5.65681C46.3718 4.9437 46.6577 4.26061 47.1644 3.75721C47.6712 3.25381 48.3575 2.97114 49.073 2.97114V2.96216Z" fill="#F6881B" stroke="white" stroke-width="0.4" mask="url(#path-1-inside-1_134_812)"/>
</svg>
