<svg width="38" height="38" viewBox="0 0 38 38" fill="none" xmlns="http://www.w3.org/2000/svg">
<path d="M37.2055 10.18C36.9906 9.37157 36.5672 8.63375 35.9776 8.04037C35.388 7.44699 34.6529 7.01888 33.8459 6.79886C30.875 6 19 6 19 6C19 6 7.125 6 4.15409 6.79886C3.34706 7.01888 2.61196 7.44699 2.02237 8.04037C1.43278 8.63375 1.00938 9.37157 0.794546 10.18C9.4374e-08 13.1639 0 19.3864 0 19.3864C0 19.3864 9.4374e-08 25.6089 0.794546 28.5927C1.00938 29.4012 1.43278 30.139 2.02237 30.7324C2.61196 31.3257 3.34706 31.7539 4.15409 31.9739C7.125 32.7727 19 32.7727 19 32.7727C19 32.7727 30.875 32.7727 33.8459 31.9739C34.6529 31.7539 35.388 31.3257 35.9776 30.7324C36.5672 30.139 36.9906 29.4012 37.2055 28.5927C38 25.6089 38 19.3864 38 19.3864C38 19.3864 38 13.1639 37.2055 10.18Z" fill="#3BA17C"/>
<path d="M37.2055 10.18C36.9906 9.37157 36.5672 8.63375 35.9776 8.04037C35.388 7.44699 34.6529 7.01888 33.8459 6.79886C30.875 6 19 6 19 6C19 6 7.125 6 4.15409 6.79886C3.34706 7.01888 2.61196 7.44699 2.02237 8.04037C1.43278 8.63375 1.00938 9.37157 0.794546 10.18C9.4374e-08 13.1639 0 19.3864 0 19.3864C0 19.3864 9.4374e-08 25.6089 0.794546 28.5927C1.00938 29.4012 1.43278 30.139 2.02237 30.7324C2.61196 31.3257 3.34706 31.7539 4.15409 31.9739C7.125 32.7727 19 32.7727 19 32.7727C19 32.7727 30.875 32.7727 33.8459 31.9739C34.6529 31.7539 35.388 31.3257 35.9776 30.7324C36.5672 30.139 36.9906 29.4012 37.2055 28.5927C38 25.6089 38 19.3864 38 19.3864C38 19.3864 38 13.1639 37.2055 10.18Z" fill="#0098AE"/>
<path d="M37.2055 10.18C36.9906 9.37157 36.5672 8.63375 35.9776 8.04037C35.388 7.44699 34.6529 7.01888 33.8459 6.79886C30.875 6 19 6 19 6C19 6 7.125 6 4.15409 6.79886C3.34706 7.01888 2.61196 7.44699 2.02237 8.04037C1.43278 8.63375 1.00938 9.37157 0.794546 10.18C9.4374e-08 13.1639 0 19.3864 0 19.3864C0 19.3864 9.4374e-08 25.6089 0.794546 28.5927C1.00938 29.4012 1.43278 30.139 2.02237 30.7324C2.61196 31.3257 3.34706 31.7539 4.15409 31.9739C7.125 32.7727 19 32.7727 19 32.7727C19 32.7727 30.875 32.7727 33.8459 31.9739C34.6529 31.7539 35.388 31.3257 35.9776 30.7324C36.5672 30.139 36.9906 29.4012 37.2055 28.5927C38 25.6089 38 19.3864 38 19.3864C38 19.3864 38 13.1639 37.2055 10.18Z" fill="url(#paint0_linear_199_10196)" fill-opacity="0.5"/>
<path d="M37.2055 10.18C36.9906 9.37157 36.5672 8.63375 35.9776 8.04037C35.388 7.44699 34.6529 7.01888 33.8459 6.79886C30.875 6 19 6 19 6C19 6 7.125 6 4.15409 6.79886C3.34706 7.01888 2.61196 7.44699 2.02237 8.04037C1.43278 8.63375 1.00938 9.37157 0.794546 10.18C9.4374e-08 13.1639 0 19.3864 0 19.3864C0 19.3864 9.4374e-08 25.6089 0.794546 28.5927C1.00938 29.4012 1.43278 30.139 2.02237 30.7324C2.61196 31.3257 3.34706 31.7539 4.15409 31.9739C7.125 32.7727 19 32.7727 19 32.7727C19 32.7727 30.875 32.7727 33.8459 31.9739C34.6529 31.7539 35.388 31.3257 35.9776 30.7324C36.5672 30.139 36.9906 29.4012 37.2055 28.5927C38 25.6089 38 19.3864 38 19.3864C38 19.3864 38 13.1639 37.2055 10.18Z" fill="url(#paint1_linear_199_10196)" fill-opacity="0.5"/>
<path d="M15.1136 25.0368V13.7361L25.0455 19.3864L15.1136 25.0368Z" fill="#FEFEFE"/>
<defs>
<linearGradient id="paint0_linear_199_10196" x1="43.1595" y1="5.99999" x2="-4.07156" y2="8.68418" gradientUnits="userSpaceOnUse">
<stop stop-color="#35CADF"/>
<stop offset="1" stop-color="#1EDC53" stop-opacity="0"/>
</linearGradient>
<linearGradient id="paint1_linear_199_10196" x1="35.2847" y1="5.99998" x2="4.3463" y2="7.74818" gradientUnits="userSpaceOnUse">
<stop stop-color="#35CADF"/>
<stop offset="1" stop-color="#1EDC53" stop-opacity="0.39"/>
</linearGradient>
</defs>
</svg>
