<svg width="1118" height="981" viewBox="0 0 1118 981" fill="none" xmlns="http://www.w3.org/2000/svg">
<g opacity="0.1">
<path d="M576.51 355.753L551.17 438.7L502.34 364.303L485.327 0L576.51 355.753Z" fill="#0095B0"/>
<path d="M462.861 384.29L511.902 458.58L417.333 436.354L111.665 189.216L462.861 384.29Z" fill="#F39200"/>
<path d="M405.6 474.766L500.169 496.991L415.349 539.821L1.43378e-05 554.743L405.6 474.766Z" fill="#4DA880"/>
<path d="M654.767 596.09L605.725 521.801L700.295 544.026L1006.01 791.019L654.767 596.09Z" fill="#F39200"/>
<path d="M712.028 505.615L617.458 483.389L702.324 440.414L1117.63 425.638L712.028 505.615Z" fill="#4DA880"/>
<path d="M679.656 405.974L594.958 448.989L620.297 366.042L901.898 97.9L679.656 405.974Z" fill="#E94E1B"/>
<path d="M540.421 624.847L565.761 541.899L614.591 616.296L631.604 980.599L540.421 624.847Z" fill="#0095B0"/>
<path d="M438.021 574.259L522.887 531.284L497.547 614.231L215.78 882.333L438.021 574.259Z" fill="#E94E1B"/>
</g>
</svg>
