<svg width="445" height="432" viewBox="0 0 445 432" fill="none" xmlns="http://www.w3.org/2000/svg">
<g opacity="0.2">
<path d="M228.318 166.193L220.106 196.94L204.279 169.363L198.766 34.3241L228.318 166.193Z" fill="#0095B0"/>
<path d="M191.483 176.773L207.378 204.31L176.728 196.072L77.6602 104.463L191.483 176.773Z" fill="#F39200"/>
<path d="M172.926 210.308L203.576 218.546L176.085 234.422L41.4701 239.954L172.926 210.308Z" fill="#4DA880"/>
<path d="M253.681 255.28L237.786 227.742L268.436 235.981L367.518 327.535L253.681 255.28Z" fill="#F39200"/>
<path d="M272.239 221.744L241.589 213.506L269.094 197.576L403.695 192.099L272.239 221.744Z" fill="#4DA880"/>
<path d="M261.748 184.81L234.297 200.754L242.509 170.008L333.776 70.6139L261.748 184.81Z" fill="#E94E1B"/>
<path d="M216.62 265.939L224.833 235.193L240.659 262.77L246.173 397.808L216.62 265.939Z" fill="#0095B0"/>
<path d="M183.434 247.189L210.939 231.259L202.726 262.005L111.405 361.385L183.434 247.189Z" fill="#E94E1B"/>
</g>
</svg>
