<svg width="691" height="669" viewBox="0 0 691 669" fill="none" xmlns="http://www.w3.org/2000/svg">
<g opacity="0.3">
<path d="M354.534 257.369L341.781 304.983L317.206 262.277L308.645 53.1545L354.534 257.369Z" fill="#0095B0"/>
<path d="M297.337 273.752L322.018 316.397L274.424 303.639L120.591 161.773L297.337 273.752Z" fill="#F39200"/>
<path d="M268.52 325.685L316.113 338.443L273.426 363.029L64.3943 371.595L268.52 325.685Z" fill="#4DA880"/>
<path d="M393.918 395.329L369.236 352.684L416.83 365.442L570.686 507.224L393.918 395.329Z" fill="#F39200"/>
<path d="M422.735 343.396L375.141 330.637L417.851 305.968L626.86 297.486L422.735 343.396Z" fill="#4DA880"/>
<path d="M406.443 286.198L363.817 310.89L376.569 263.276L518.29 109.353L406.443 286.198Z" fill="#E94E1B"/>
<path d="M336.37 411.836L349.123 364.222L373.697 406.928L382.259 616.05L336.37 411.836Z" fill="#0095B0"/>
<path d="M284.837 382.799L327.547 358.13L314.794 405.744L172.99 559.644L284.837 382.799Z" fill="#E94E1B"/>
</g>
</svg>
