<svg width="1117" height="1117" viewBox="0 0 1117 1117" fill="none" xmlns="http://www.w3.org/2000/svg">
<path d="M503.192 693.309C503.448 693.024 503.648 692.682 503.733 692.312L527.783 603.977C528.324 601.897 526.073 600.245 524.249 601.327L445.575 647.375C445.233 647.575 444.948 647.86 444.749 648.202L247.45 971.334C245.94 973.813 249.331 976.349 251.268 974.183L503.192 693.309Z" fill="#F7EFE1"/>
<path d="M702.94 576.366C702.57 576.451 702.171 576.451 701.801 576.337L612.982 554.054C610.93 553.513 610.56 550.749 612.384 549.666L691.058 503.619C691.4 503.419 691.799 503.305 692.169 503.305L1070.52 489.428C1073.43 489.314 1073.97 493.531 1071.15 494.158L702.94 576.366Z" fill="#DEEFF3"/>
<path d="M414.059 541.061C414.43 540.975 414.829 540.975 415.199 541.089L504.018 563.372C506.069 563.914 506.44 566.678 504.616 567.761L425.942 613.808C425.6 614.008 425.201 614.122 424.83 614.122L46.4752 628.027C43.5687 628.141 43.0273 623.924 45.8483 623.297L414.059 541.061Z" fill="#DEEFF3"/>
<path d="M613.809 424.118C613.552 424.403 613.353 424.745 613.267 425.115L589.218 513.449C588.676 515.529 590.927 517.182 592.751 516.099L671.425 470.052C671.767 469.852 672.052 469.567 672.252 469.225L869.551 146.093C871.061 143.614 867.67 141.078 865.732 143.244L613.809 424.118Z" fill="#F7EFE1"/>
<path d="M466.918 443.124C467.26 443.323 467.516 443.637 467.715 443.979L512.566 520.573C513.649 522.397 511.996 524.619 509.916 524.106L422.779 502.137C422.38 502.051 422.067 501.852 421.753 501.596L140.936 249.644C138.77 247.706 141.306 244.287 143.785 245.825L466.918 443.124Z" fill="#F6E8E4"/>
<path d="M576.481 411.381C576.566 411.751 576.566 412.178 576.452 412.549L552.488 499.202C551.918 501.254 549.154 501.595 548.1 499.772L503.762 423.235C503.562 422.893 503.448 422.522 503.448 422.123L489.087 43.711C488.973 40.8045 493.19 40.2631 493.817 43.0841L576.481 411.381Z" fill="#E6F1EE"/>
<path d="M651.251 673.876C650.909 673.676 650.652 673.363 650.453 673.021L605.602 596.427C604.519 594.603 606.172 592.38 608.252 592.893L695.389 614.863C695.788 614.948 696.102 615.148 696.415 615.404L977.232 867.328C979.398 869.265 976.862 872.685 974.383 871.146L651.251 673.876Z" fill="#F6E8E4"/>
<path d="M541.688 705.62C541.602 705.249 541.602 704.822 541.716 704.451L565.681 617.798C566.25 615.747 569.014 615.405 570.069 617.228L614.407 693.766C614.606 694.108 614.72 694.478 614.72 694.877L629.082 1073.29C629.196 1076.2 624.978 1076.74 624.352 1073.92L541.688 705.62Z" fill="#E6F1EE"/>
</svg>
