<svg width="1073" height="435" viewBox="0 0 1073 435" fill="none" xmlns="http://www.w3.org/2000/svg">
<mask id="mask0_1131_9331" style="mask-type:alpha" maskUnits="userSpaceOnUse" x="0" y="0" width="1073" height="435">
<rect width="1073" height="435" fill="#4AAC87"/>
</mask>
<g mask="url(#mask0_1131_9331)">
<path opacity="0.18" d="M995.083 71.1083H1073.04V-13.083" fill="#F1F2F2" fill-opacity="0.4"/>
<path opacity="0.18" d="M995.08 71.1083H917.121V-13.083" fill="#F1F2F2" fill-opacity="0.4"/>
<path opacity="0.18" d="M839.159 71.1083H917.119V-13.083" fill="#E6E7E8" fill-opacity="0.5"/>
<path opacity="0.18" d="M917.119 -13.083H839.159V71.1083" fill="#F1F2F2" fill-opacity="0.4"/>
<path opacity="0.18" d="M839.163 71.1083H761.203V-13.083" fill="#F1F2F2" fill-opacity="0.4"/>
<path opacity="0.18" d="M761.203 -13.083H839.163V71.1083" fill="#E6E7E8" fill-opacity="0.5"/>
<path opacity="0.18" d="M683.247 71.1083H761.207V-13.083" fill="#D1D3D4" fill-opacity="0.3"/>
<path opacity="0.18" d="M761.207 -13.083H683.247V71.1083" fill="#D1D3D4" fill-opacity="0.3"/>
<path opacity="0.18" d="M683.245 71.1083H605.285V-13.083" fill="#E6E7E8" fill-opacity="0.5"/>
<path opacity="0.18" d="M605.285 -13.083H683.245V71.1083" fill="white"/>
<path opacity="0.18" d="M527.323 71.1083H605.283V-13.083" fill="white"/>
<path opacity="0.18" d="M605.283 -13.083H527.323V71.1083" fill="#D1D3D4" fill-opacity="0.3"/>
<path opacity="0.18" d="M527.323 71.1083H449.35V-13.083" fill="#D1D3D4" fill-opacity="0.3"/>
<path opacity="0.18" d="M371.394 71.1083H449.353V-13.083" fill="#D1D3D4" fill-opacity="0.3"/>
<path opacity="0.18" d="M449.353 -13.083H371.394V71.1083" fill="white"/>
<path opacity="0.18" d="M371.391 71.1083H293.432V-13.083" fill="#F1F2F2" fill-opacity="0.4"/>
<path opacity="0.18" d="M293.432 -13.083H371.391V71.1083" fill="white"/>
<path opacity="0.18" d="M215.47 71.1083H293.43V-13.083" fill="#E6E7E8" fill-opacity="0.5"/>
<path opacity="0.18" d="M293.43 -13.083H215.47V71.1083" fill="#E6E7E8" fill-opacity="0.5"/>
<path opacity="0.18" d="M-18.4097 155.3H59.5499V71.1091" fill="#D1D3D4" fill-opacity="0.3"/>
<path opacity="0.18" d="M59.5499 71.1091H-18.4097V155.3" fill="#E6E7E8" fill-opacity="0.5"/>
<path opacity="0.18" d="M137.512 155.3H59.5522V71.1091" fill="#E6E7E8" fill-opacity="0.5"/>
<path opacity="0.18" d="M137.514 155.3H215.474V71.1091" fill="#E6E7E8" fill-opacity="0.5"/>
<path opacity="0.18" d="M293.43 155.3H215.47V71.1091" fill="white"/>
<path opacity="0.18" d="M215.47 71.1091H293.43V155.3" fill="white"/>
<path opacity="0.18" d="M293.432 155.3H371.391V71.1091" fill="white"/>
<path opacity="0.18" d="M371.391 71.1091H293.432V155.3" fill="#E6E7E8" fill-opacity="0.5"/>
<path opacity="0.18" d="M371.394 71.1091H449.353V155.3" fill="#D1D3D4" fill-opacity="0.3"/>
<path opacity="0.18" d="M527.323 71.1077H449.35V155.299" fill="white"/>
<path opacity="0.18" d="M605.283 155.299H527.323V71.1077" fill="#E6E7E8" fill-opacity="0.5"/>
<path opacity="0.18" d="M527.323 71.1077H605.283V155.299" fill="white"/>
<path opacity="0.18" d="M761.207 155.299H683.247V71.1077" fill="white"/>
<path opacity="0.18" d="M839.163 71.1077H761.203V155.299" fill="#E6E7E8" fill-opacity="0.5"/>
<path opacity="0.18" d="M917.119 155.299H839.159V71.1077" fill="#F1F2F2" fill-opacity="0.4"/>
<path opacity="0.18" d="M839.159 71.1077H917.119V155.299" fill="white"/>
<path opacity="0.18" d="M995.083 239.491H1073.04V155.3" fill="#D1D3D4" fill-opacity="0.3"/>
<path opacity="0.18" d="M1073.04 155.3H995.083V239.491" fill="white"/>
<path opacity="0.18" d="M995.08 239.491H917.121V155.3" fill="white"/>
<path opacity="0.18" d="M839.159 239.491H917.119V155.3" fill="#E6E7E8" fill-opacity="0.5"/>
<path opacity="0.18" d="M917.119 155.3H839.159V239.491" fill="#D1D3D4" fill-opacity="0.3"/>
<path opacity="0.18" d="M761.203 155.3H839.163V239.491" fill="white"/>
<path opacity="0.18" d="M683.247 239.491H761.207V155.3" fill="#E6E7E8" fill-opacity="0.5"/>
<path opacity="0.18" d="M761.207 155.3H683.247V239.491" fill="#E6E7E8" fill-opacity="0.5"/>
<path opacity="0.18" d="M683.245 239.491H605.285V155.3" fill="white"/>
<path opacity="0.18" d="M605.285 155.3H683.245V239.491" fill="#F1F2F2" fill-opacity="0.4"/>
<path opacity="0.18" d="M527.323 239.491H605.283V155.3" fill="white"/>
<path opacity="0.18" d="M605.283 155.3H527.323V239.491" fill="#D1D3D4" fill-opacity="0.3"/>
<path opacity="0.18" d="M527.323 239.491H449.35V155.3" fill="white"/>
<path opacity="0.18" d="M449.35 155.3H527.323V239.491" fill="white"/>
<path opacity="0.18" d="M371.394 239.491H449.353V155.3" fill="#D1D3D4" fill-opacity="0.3"/>
<path opacity="0.18" d="M449.353 155.3H371.394V239.491" fill="white"/>
<path opacity="0.18" d="M371.391 239.491H293.432V155.3" fill="white"/>
<path opacity="0.18" d="M293.43 155.3H215.47V239.491" fill="white"/>
<path opacity="0.18" d="M-18.4097 323.684H59.5499V239.492" fill="#D1D3D4" fill-opacity="0.3"/>
<path opacity="0.18" d="M59.5499 239.492H-18.4097V323.684" fill="#F1F2F2" fill-opacity="0.4"/>
<path opacity="0.18" d="M137.512 323.684H59.5522V239.492" fill="#D1D3D4" fill-opacity="0.3"/>
<path opacity="0.18" d="M59.5522 239.492H137.512V323.684" fill="#D1D3D4" fill-opacity="0.3"/>
<path opacity="0.18" d="M137.514 323.684H215.474V239.492" fill="white"/>
<path opacity="0.18" d="M215.474 239.492H137.514V323.684" fill="white"/>
<path opacity="0.18" d="M293.43 323.684H215.47V239.492" fill="#D1D3D4" fill-opacity="0.3"/>
<path opacity="0.18" d="M215.47 239.492H293.43V323.684" fill="white"/>
<path opacity="0.18" d="M293.432 323.684H371.391V239.492" fill="#E6E7E8" fill-opacity="0.5"/>
<path opacity="0.18" d="M371.391 239.492H293.432V323.684" fill="white"/>
<path opacity="0.18" d="M371.394 239.492H449.353V323.684" fill="#D1D3D4" fill-opacity="0.3"/>
<path opacity="0.18" d="M449.35 323.684H527.323V239.492" fill="#D1D3D4" fill-opacity="0.3"/>
<path opacity="0.18" d="M527.323 239.492H449.35V323.684" fill="#E6E7E8" fill-opacity="0.5"/>
<path opacity="0.18" d="M527.323 239.492H605.283V323.684" fill="#E6E7E8" fill-opacity="0.5"/>
<path opacity="0.18" d="M605.285 323.684H683.245V239.492" fill="white"/>
<path opacity="0.18" d="M683.245 239.492H605.285V323.684" fill="white"/>
<path opacity="0.18" d="M761.207 323.684H683.247V239.492" fill="#D1D3D4" fill-opacity="0.3"/>
<path opacity="0.18" d="M683.247 239.492H761.207V323.684" fill="white"/>
<path opacity="0.18" d="M839.163 239.492H761.203V323.684" fill="#D1D3D4" fill-opacity="0.3"/>
<path opacity="0.18" d="M917.119 323.684H839.159V239.492" fill="#F1F2F2" fill-opacity="0.4"/>
<path opacity="0.18" d="M839.159 239.492H917.119V323.684" fill="#D1D3D4" fill-opacity="0.3"/>
<path opacity="0.18" d="M995.083 407.888H1073.04V323.682" fill="white"/>
<path opacity="0.18" d="M1073.04 323.682H995.083V407.888" fill="#D1D3D4" fill-opacity="0.3"/>
<path opacity="0.18" d="M995.08 407.888H917.121V323.682" fill="#E6E7E8" fill-opacity="0.5"/>
<path opacity="0.18" d="M917.121 323.682H995.08V407.888" fill="#F1F2F2" fill-opacity="0.4"/>
<path opacity="0.18" d="M839.159 407.888H917.119V323.682" fill="#D1D3D4" fill-opacity="0.3"/>
<path opacity="0.18" d="M917.119 323.682H839.159V407.888" fill="white"/>
<path opacity="0.18" d="M839.163 407.888H761.203V323.682" fill="#F1F2F2" fill-opacity="0.4"/>
<path opacity="0.18" d="M761.203 323.682H839.163V407.888" fill="#D1D3D4" fill-opacity="0.3"/>
<path opacity="0.18" d="M683.247 407.888H761.207V323.682" fill="#E6E7E8" fill-opacity="0.5"/>
<path opacity="0.18" d="M761.207 323.682H683.247V407.888" fill="#E6E7E8" fill-opacity="0.5"/>
<path opacity="0.18" d="M605.285 323.682H683.245V407.888" fill="#D1D3D4" fill-opacity="0.3"/>
<path opacity="0.18" d="M527.323 407.888H605.283V323.682" fill="#E6E7E8" fill-opacity="0.5"/>
<path opacity="0.18" d="M605.283 323.682H527.323V407.888" fill="#F1F2F2" fill-opacity="0.4"/>
<path opacity="0.18" d="M449.35 323.682H527.323V407.888" fill="white"/>
<path opacity="0.18" d="M449.353 323.682H371.394V407.888" fill="white"/>
<path opacity="0.18" d="M371.391 407.888H293.432V323.682" fill="#E6E7E8" fill-opacity="0.5"/>
<path opacity="0.18" d="M215.47 407.888H293.43V323.682" fill="#D1D3D4" fill-opacity="0.3"/>
<path opacity="0.18" d="M293.43 323.682H215.47V407.888" fill="white"/>
<path opacity="0.18" d="M-18.4097 492.08H59.5499V407.889" fill="#E6E7E8" fill-opacity="0.5"/>
<path opacity="0.18" d="M59.5499 407.889H-18.4097V492.08" fill="#D1D3D4" fill-opacity="0.3"/>
<path opacity="0.18" d="M137.512 492.08H59.5522V407.889" fill="#E6E7E8" fill-opacity="0.5"/>
<path opacity="0.18" d="M59.5522 407.889H137.512V492.08" fill="white"/>
<path opacity="0.18" d="M137.514 492.08H215.474V407.889" fill="white"/>
<path opacity="0.18" d="M215.474 407.889H137.514V492.08" fill="#D1D3D4" fill-opacity="0.3"/>
<path opacity="0.18" d="M293.43 492.08H215.47V407.889" fill="#D1D3D4" fill-opacity="0.3"/>
<path opacity="0.18" d="M215.47 407.889H293.43V492.08" fill="#F1F2F2" fill-opacity="0.4"/>
<path opacity="0.18" d="M293.432 492.08H371.391V407.889" fill="#D1D3D4" fill-opacity="0.3"/>
<path opacity="0.18" d="M371.391 407.889H293.432V492.08" fill="white"/>
<path opacity="0.18" d="M449.353 492.08H371.394V407.889" fill="#D1D3D4" fill-opacity="0.3"/>
<path opacity="0.18" d="M449.35 492.08H527.323V407.889" fill="#E6E7E8" fill-opacity="0.5"/>
<path opacity="0.18" d="M527.323 407.889H449.35V492.08" fill="white"/>
<path opacity="0.18" d="M605.283 492.08H527.323V407.889" fill="#F1F2F2" fill-opacity="0.4"/>
<path opacity="0.18" d="M527.323 407.889H605.283V492.08" fill="white"/>
<path opacity="0.18" d="M761.207 492.08H683.247V407.889" fill="white"/>
<path opacity="0.18" d="M683.247 407.889H761.207V492.08" fill="#F1F2F2" fill-opacity="0.4"/>
<path opacity="0.18" d="M839.163 407.889H761.203V492.08" fill="#D1D3D4" fill-opacity="0.3"/>
<path opacity="0.18" d="M917.119 492.08H839.159V407.889" fill="#D1D3D4" fill-opacity="0.3"/>
<path opacity="0.18" d="M839.159 407.889H917.119V492.08" fill="white"/>
<path opacity="0.18" d="M215.474 71.1083H137.514V-13.083" fill="white"/>
<path opacity="0.18" d="M137.514 -13.083H215.474V71.1083" fill="white"/>
<path opacity="0.18" d="M59.5522 71.1083H137.512V-13.083" fill="#F1F2F2" fill-opacity="0.4"/>
<path opacity="0.18" d="M137.512 -13.083H59.5522V71.1083" fill="white"/>
<path opacity="0.18" d="M917.121 155.299H995.08V71.1077" fill="white"/>
<path opacity="0.18" d="M1073.04 155.3H995.083V71.1091" fill="white"/>
<path opacity="0.18" d="M215.474 239.491H137.514V155.3" fill="white"/>
<path opacity="0.18" d="M59.5522 239.491H137.512V155.3" fill="white"/>
<path opacity="0.18" d="M137.512 155.3H59.5522V239.491" fill="#E6E7E8" fill-opacity="0.5"/>
<path opacity="0.18" d="M917.121 323.684H995.08V239.492" fill="white"/>
<path opacity="0.18" d="M995.08 239.492H917.121V323.684" fill="#D1D3D4" fill-opacity="0.3"/>
<path opacity="0.18" d="M1073.04 323.684H995.083V239.492" fill="white"/>
<path opacity="0.18" d="M995.083 239.492H1073.04V323.684" fill="white"/>
<path opacity="0.18" d="M137.514 323.682H215.474V407.888" fill="#F1F2F2" fill-opacity="0.4"/>
<path opacity="0.18" d="M137.512 323.682H59.5522V407.888" fill="white"/>
<path opacity="0.18" d="M917.121 492.08H995.08V407.889" fill="white"/>
<path opacity="0.18" d="M1073.04 492.08H995.083V407.889" fill="#E6E7E8" fill-opacity="0.5"/>
<path opacity="0.18" d="M59.5499 71.1083H-18.4097V-13.083" fill="white"/>
<path opacity="0.18" d="M-18.4097 -13.083H59.5499V71.1083" fill="#D1D3D4" fill-opacity="0.3"/>
<path opacity="0.18" d="M59.5499 239.491H-18.4097V155.3" fill="white"/>
<path opacity="0.18" d="M-18.4097 155.3H59.5499V239.491" fill="white"/>
<path opacity="0.18" d="M59.5499 407.888H-18.4097V323.682" fill="#D1D3D4" fill-opacity="0.3"/>
<path opacity="0.18" d="M-18.4097 323.682H59.5499V407.888" fill="#E6E7E8" fill-opacity="0.5"/>
</g>
</svg>
