<svg width="797" height="509" viewBox="0 0 797 509" fill="none" xmlns="http://www.w3.org/2000/svg">
<path opacity="0.18" d="M0 51H53V0" fill="white"/>
<path opacity="0.18" d="M53 0H0V51" fill="white"/>
<path opacity="0.18" d="M106 51H53V0" fill="#A7A9AC"/>
<path opacity="0.18" d="M53 0H106V51" fill="#D1D3D4"/>
<path opacity="0.18" d="M106 51H159V0" fill="#F1F2F2"/>
<path opacity="0.18" d="M159 0H106V51" fill="#E6E7E8"/>
<path opacity="0.18" d="M212 51H159V0" fill="white"/>
<path opacity="0.18" d="M159 0H212V51" fill="white"/>
<path opacity="0.18" d="M212 51H265V0" fill="#E6E7E8"/>
<path opacity="0.18" d="M265 0H212V51" fill="#D1D3D4"/>
<path opacity="0.18" d="M319 51H266V0" fill="#E6E7E8"/>
<path opacity="0.18" d="M266 0H319V51" fill="white"/>
<path opacity="0.18" d="M319 51H372V0" fill="#E6E7E8"/>
<path opacity="0.18" d="M372 0H319V51" fill="#D1D3D4"/>
<path opacity="0.18" d="M425 51H372V0" fill="white"/>
<path opacity="0.18" d="M372 0H425V51" fill="#A7A9AC"/>
<path opacity="0.18" d="M425 51H478V0" fill="white"/>
<path opacity="0.18" d="M478 0H425V51" fill="#A7A9AC"/>
<path opacity="0.18" d="M531 51H478V0" fill="#D1D3D4"/>
<path opacity="0.18" d="M478 0H531V51" fill="white"/>
<path opacity="0.18" d="M531 51H584V0" fill="#D1D3D4"/>
<path opacity="0.18" d="M584 0H531V51" fill="#E6E7E8"/>
<path opacity="0.18" d="M637 51H584V0" fill="#A7A9AC"/>
<path opacity="0.18" d="M584 0H637V51" fill="white"/>
<path opacity="0.18" d="M797 102H744V51" fill="white"/>
<path opacity="0.18" d="M744 51H797V102" fill="#D1D3D4"/>
<path opacity="0.18" d="M690 102H743V51" fill="#D1D3D4"/>
<path opacity="0.18" d="M743 51H690V102" fill="white"/>
<path opacity="0.18" d="M690 102H637V51" fill="white"/>
<path opacity="0.18" d="M637 51H690V102" fill="#E6E7E8"/>
<path opacity="0.18" d="M584 102H637V51" fill="#A7A9AC"/>
<path opacity="0.18" d="M637 51H584V102" fill="#A7A9AC"/>
<path opacity="0.18" d="M584 102H531V51" fill="#A7A9AC"/>
<path opacity="0.18" d="M531 51H584V102" fill="#A7A9AC"/>
<path opacity="0.18" d="M478 102H531V51" fill="white"/>
<path opacity="0.18" d="M531 51H478V102" fill="#E6E7E8"/>
<path opacity="0.18" d="M478 102H425V51" fill="#F1F2F2"/>
<path opacity="0.18" d="M425 51H478V102" fill="#D1D3D4"/>
<path opacity="0.18" d="M372 102H425V51" fill="#A7A9AC"/>
<path opacity="0.18" d="M425 51H372V102" fill="#E6E7E8"/>
<path opacity="0.18" d="M372 102H319V51" fill="white"/>
<path opacity="0.18" d="M319 51H372V102" fill="#E6E7E8"/>
<path opacity="0.18" d="M266 102H319V51" fill="#E6E7E8"/>
<path opacity="0.18" d="M319 51H266V102" fill="#A7A9AC"/>
<path opacity="0.18" d="M265 102H212V51" fill="#F1F2F2"/>
<path opacity="0.18" d="M212 51H265V102" fill="white"/>
<path opacity="0.18" d="M159 102H212V51" fill="#E6E7E8"/>
<path opacity="0.18" d="M212 51H159V102" fill="#A7A9AC"/>
<path opacity="0.18" d="M0 153H53V102" fill="#A7A9AC"/>
<path opacity="0.18" d="M53 102H0V153" fill="#A7A9AC"/>
<path opacity="0.18" d="M106 153H53V102" fill="#E6E7E8"/>
<path opacity="0.18" d="M53 102H106V153" fill="#E6E7E8"/>
<path opacity="0.18" d="M106 153H159V102" fill="#D1D3D4"/>
<path opacity="0.18" d="M159 102H106V153" fill="white"/>
<path opacity="0.18" d="M212 153H159V102" fill="#A7A9AC"/>
<path opacity="0.18" d="M159 102H212V153" fill="#D1D3D4"/>
<path opacity="0.18" d="M212 153H265V102" fill="white"/>
<path opacity="0.18" d="M265 102H212V153" fill="white"/>
<path opacity="0.18" d="M319 153H266V102" fill="white"/>
<path opacity="0.18" d="M266 102H319V153" fill="white"/>
<path opacity="0.18" d="M319 153H372V102" fill="#E6E7E8"/>
<path opacity="0.18" d="M372 102H319V153" fill="#D1D3D4"/>
<path opacity="0.18" d="M425 153H372V102" fill="#F1F2F2"/>
<path opacity="0.18" d="M372 102H425V153" fill="#D1D3D4"/>
<path opacity="0.18" d="M425 153H478V102" fill="white"/>
<path opacity="0.18" d="M478 102H425V153" fill="white"/>
<path opacity="0.18" d="M531 153H478V102" fill="white"/>
<path opacity="0.18" d="M478 102H531V153" fill="#F1F2F2"/>
<path opacity="0.18" d="M531 153H584V102" fill="#E6E7E8"/>
<path opacity="0.18" d="M584 102H531V153" fill="white"/>
<path opacity="0.18" d="M637 153H584V102" fill="white"/>
<path opacity="0.18" d="M584 102H637V153" fill="#D1D3D4"/>
<path opacity="0.18" d="M797 204H744V153" fill="#E6E7E8"/>
<path opacity="0.18" d="M744 153H797V204" fill="white"/>
<path opacity="0.18" d="M690 204H743V153" fill="#F1F2F2"/>
<path opacity="0.18" d="M743 153H690V204" fill="#A7A9AC"/>
<path opacity="0.18" d="M690 204H637V153" fill="#F1F2F2"/>
<path opacity="0.18" d="M637 153H690V204" fill="#A7A9AC"/>
<path opacity="0.18" d="M584 204H637V153" fill="#E6E7E8"/>
<path opacity="0.18" d="M637 153H584V204" fill="#F1F2F2"/>
<path opacity="0.18" d="M584 204H531V153" fill="#F1F2F2"/>
<path opacity="0.18" d="M531 153H584V204" fill="#E6E7E8"/>
<path opacity="0.18" d="M478 204H531V153" fill="#D1D3D4"/>
<path opacity="0.18" d="M531 153H478V204" fill="#D1D3D4"/>
<path opacity="0.18" d="M478 204H425V153" fill="#E6E7E8"/>
<path opacity="0.18" d="M425 153H478V204" fill="white"/>
<path opacity="0.18" d="M372 204H425V153" fill="white"/>
<path opacity="0.18" d="M425 153H372V204" fill="#D1D3D4"/>
<path opacity="0.18" d="M372 204H319V153" fill="#D1D3D4"/>
<path opacity="0.18" d="M319 153H372V204" fill="#A7A9AC"/>
<path opacity="0.18" d="M266 204H319V153" fill="#D1D3D4"/>
<path opacity="0.18" d="M319 153H266V204" fill="white"/>
<path opacity="0.18" d="M265 204H212V153" fill="#F1F2F2"/>
<path opacity="0.18" d="M212 153H265V204" fill="white"/>
<path opacity="0.18" d="M159 204H212V153" fill="#E6E7E8"/>
<path opacity="0.18" d="M212 153H159V204" fill="#E6E7E8"/>
<path opacity="0.18" d="M0 255H53V204" fill="#D1D3D4"/>
<path opacity="0.18" d="M53 204H0V255" fill="#E6E7E8"/>
<path opacity="0.18" d="M106 255H53V204" fill="#E6E7E8"/>
<path opacity="0.18" d="M53 204H106V255" fill="#A7A9AC"/>
<path opacity="0.18" d="M106 255H159V204" fill="#E6E7E8"/>
<path opacity="0.18" d="M159 204H106V255" fill="#A7A9AC"/>
<path opacity="0.18" d="M212 255H159V204" fill="white"/>
<path opacity="0.18" d="M159 204H212V255" fill="white"/>
<path opacity="0.18" d="M212 255H265V204" fill="white"/>
<path opacity="0.18" d="M265 204H212V255" fill="#E6E7E8"/>
<path opacity="0.18" d="M319 255H266V204" fill="#A7A9AC"/>
<path opacity="0.18" d="M266 204H319V255" fill="#D1D3D4"/>
<path opacity="0.18" d="M319 255H372V204" fill="#A7A9AC"/>
<path opacity="0.18" d="M372 204H319V255" fill="white"/>
<path opacity="0.18" d="M425 255H372V204" fill="#E6E7E8"/>
<path opacity="0.18" d="M372 204H425V255" fill="white"/>
<path opacity="0.18" d="M425 255H478V204" fill="#A7A9AC"/>
<path opacity="0.18" d="M478 204H425V255" fill="#A7A9AC"/>
<path opacity="0.18" d="M531 255H478V204" fill="white"/>
<path opacity="0.18" d="M478 204H531V255" fill="#A7A9AC"/>
<path opacity="0.18" d="M531 255H584V204" fill="#A7A9AC"/>
<path opacity="0.18" d="M584 204H531V255" fill="#E6E7E8"/>
<path opacity="0.18" d="M637 255H584V204" fill="#F1F2F2"/>
<path opacity="0.18" d="M584 204H637V255" fill="white"/>
<path opacity="0.18" d="M797 305H744V254" fill="#E6E7E8"/>
<path opacity="0.18" d="M744 254H797V305" fill="white"/>
<path opacity="0.18" d="M690 305H743V254" fill="#D1D3D4"/>
<path opacity="0.18" d="M743 254H690V305" fill="white"/>
<path opacity="0.18" d="M690 305H637V254" fill="white"/>
<path opacity="0.18" d="M637 254H690V305" fill="#A7A9AC"/>
<path opacity="0.18" d="M584 305H637V254" fill="#E6E7E8"/>
<path opacity="0.18" d="M637 254H584V305" fill="#D1D3D4"/>
<path opacity="0.18" d="M584 305H531V254" fill="#A7A9AC"/>
<path opacity="0.18" d="M531 254H584V305" fill="white"/>
<path opacity="0.18" d="M531 255H478V306" fill="#E6E7E8"/>
<path opacity="0.18" d="M478 306H425V255" fill="white"/>
<path opacity="0.18" d="M425 255H478V306" fill="#F1F2F2"/>
<path opacity="0.18" d="M372 306H425V255" fill="white"/>
<path opacity="0.18" d="M425 255H372V306" fill="#D1D3D4"/>
<path opacity="0.18" d="M372 306H319V255" fill="white"/>
<path opacity="0.18" d="M319 255H372V306" fill="white"/>
<path opacity="0.18" d="M266 306H319V255" fill="#D1D3D4"/>
<path opacity="0.18" d="M319 255H266V306" fill="white"/>
<path opacity="0.18" d="M265 305H212V254" fill="white"/>
<path opacity="0.18" d="M212 254H265V305" fill="#A7A9AC"/>
<path opacity="0.18" d="M159 305H212V254" fill="#A7A9AC"/>
<path opacity="0.18" d="M212 254H159V305" fill="white"/>
<path opacity="0.18" d="M0 356H53V305" fill="#D1D3D4"/>
<path opacity="0.18" d="M53 305H0V356" fill="#F1F2F2"/>
<path opacity="0.18" d="M106 356H53V305" fill="#D1D3D4"/>
<path opacity="0.18" d="M53 305H106V356" fill="#D1D3D4"/>
<path opacity="0.18" d="M106 356H159V305" fill="white"/>
<path opacity="0.18" d="M159 305H106V356" fill="white"/>
<path opacity="0.18" d="M212 356H159V305" fill="#D1D3D4"/>
<path opacity="0.18" d="M159 305H212V356" fill="white"/>
<path opacity="0.18" d="M212 356H265V305" fill="#E6E7E8"/>
<path opacity="0.18" d="M265 305H212V356" fill="white"/>
<path opacity="0.18" d="M319 356H266V305" fill="#A7A9AC"/>
<path opacity="0.18" d="M266 305H319V356" fill="#D1D3D4"/>
<path opacity="0.18" d="M319 356H372V305" fill="#D1D3D4"/>
<path opacity="0.18" d="M372 305H319V356" fill="#E6E7E8"/>
<path opacity="0.18" d="M425 356H372V305" fill="#A7A9AC"/>
<path opacity="0.18" d="M372 305H425V356" fill="#E6E7E8"/>
<path opacity="0.18" d="M425 356H478V305" fill="white"/>
<path opacity="0.18" d="M478 305H425V356" fill="white"/>
<path opacity="0.18" d="M531 356H478V305" fill="#D1D3D4"/>
<path opacity="0.18" d="M478 305H531V356" fill="white"/>
<path opacity="0.18" d="M531 356H584V305" fill="#A7A9AC"/>
<path opacity="0.18" d="M584 305H531V356" fill="#D1D3D4"/>
<path opacity="0.18" d="M637 356H584V305" fill="#F1F2F2"/>
<path opacity="0.18" d="M584 305H637V356" fill="#D1D3D4"/>
<path opacity="0.18" d="M797 407H744V356" fill="#D1D3D4"/>
<path opacity="0.18" d="M744 356H797V407" fill="#A7A9AC"/>
<path opacity="0.18" d="M690 407H743V356" fill="white"/>
<path opacity="0.18" d="M743 356H690V407" fill="#D1D3D4"/>
<path opacity="0.18" d="M690 407H637V356" fill="#E6E7E8"/>
<path opacity="0.18" d="M637 356H690V407" fill="#F1F2F2"/>
<path opacity="0.18" d="M584 407H637V356" fill="#D1D3D4"/>
<path opacity="0.18" d="M637 356H584V407" fill="white"/>
<path opacity="0.18" d="M584 407H531V356" fill="#F1F2F2"/>
<path opacity="0.18" d="M531 356H584V407" fill="#D1D3D4"/>
<path opacity="0.18" d="M478 407H531V356" fill="#E6E7E8"/>
<path opacity="0.18" d="M531 356H478V407" fill="#E6E7E8"/>
<path opacity="0.18" d="M478 407H425V356" fill="#A7A9AC"/>
<path opacity="0.18" d="M425 356H478V407" fill="#D1D3D4"/>
<path opacity="0.18" d="M372 407H425V356" fill="#E6E7E8"/>
<path opacity="0.18" d="M425 356H372V407" fill="#F1F2F2"/>
<path opacity="0.18" d="M372 407H319V356" fill="#A7A9AC"/>
<path opacity="0.18" d="M319 356H372V407" fill="white"/>
<path opacity="0.18" d="M266 407H319V356" fill="#A7A9AC"/>
<path opacity="0.18" d="M319 356H266V407" fill="white"/>
<path opacity="0.18" d="M265 407H212V356" fill="#E6E7E8"/>
<path opacity="0.18" d="M212 356H265V407" fill="#A7A9AC"/>
<path opacity="0.18" d="M159 407H212V356" fill="#D1D3D4"/>
<path opacity="0.18" d="M212 356H159V407" fill="white"/>
<path opacity="0.18" d="M0 458H53V407" fill="#E6E7E8"/>
<path opacity="0.18" d="M53 407H0V458" fill="#D1D3D4"/>
<path opacity="0.18" d="M106 458H53V407" fill="#E6E7E8"/>
<path opacity="0.18" d="M53 407H106V458" fill="white"/>
<path opacity="0.18" d="M106 458H159V407" fill="white"/>
<path opacity="0.18" d="M159 407H106V458" fill="#D1D3D4"/>
<path opacity="0.18" d="M212 458H159V407" fill="#D1D3D4"/>
<path opacity="0.18" d="M159 407H212V458" fill="#F1F2F2"/>
<path opacity="0.18" d="M212 458H265V407" fill="#D1D3D4"/>
<path opacity="0.18" d="M265 407H212V458" fill="white"/>
<path opacity="0.18" d="M319 458H266V407" fill="#D1D3D4"/>
<path opacity="0.18" d="M266 407H319V458" fill="#A7A9AC"/>
<path opacity="0.18" d="M319 458H372V407" fill="#E6E7E8"/>
<path opacity="0.18" d="M372 407H319V458" fill="white"/>
<path opacity="0.18" d="M425 458H372V407" fill="#F1F2F2"/>
<path opacity="0.18" d="M372 407H425V458" fill="white"/>
<path opacity="0.18" d="M425 458H478V407" fill="#A7A9AC"/>
<path opacity="0.18" d="M478 407H425V458" fill="#A7A9AC"/>
<path opacity="0.18" d="M531 458H478V407" fill="white"/>
<path opacity="0.18" d="M478 407H531V458" fill="#F1F2F2"/>
<path opacity="0.18" d="M531 458H584V407" fill="#A7A9AC"/>
<path opacity="0.18" d="M584 407H531V458" fill="#D1D3D4"/>
<path opacity="0.18" d="M637 458H584V407" fill="#D1D3D4"/>
<path opacity="0.18" d="M584 407H637V458" fill="white"/>
<path opacity="0.18" d="M797 509H744V458" fill="white"/>
<path opacity="0.18" d="M744 458H797V509" fill="#D1D3D4"/>
<path opacity="0.18" d="M690 509H743V458" fill="#E6E7E8"/>
<path opacity="0.18" d="M743 458H690V509" fill="#E6E7E8"/>
<path opacity="0.18" d="M690 509H637V458" fill="#A7A9AC"/>
<path opacity="0.18" d="M637 458H690V509" fill="white"/>
<path opacity="0.18" d="M584 509H637V458" fill="#A7A9AC"/>
<path opacity="0.18" d="M637 458H584V509" fill="#E6E7E8"/>
<path opacity="0.18" d="M584 509H531V458" fill="white"/>
<path opacity="0.18" d="M531 458H584V509" fill="#F1F2F2"/>
<path opacity="0.18" d="M478 509H531V458" fill="#D1D3D4"/>
<path opacity="0.18" d="M531 458H478V509" fill="#D1D3D4"/>
<path opacity="0.18" d="M478 509H425V458" fill="#E6E7E8"/>
<path opacity="0.18" d="M425 458H478V509" fill="#D1D3D4"/>
<path opacity="0.18" d="M372 509H425V458" fill="white"/>
<path opacity="0.18" d="M425 458H372V509" fill="#D1D3D4"/>
<path opacity="0.18" d="M372 509H319V458" fill="white"/>
<path opacity="0.18" d="M319 458H372V509" fill="white"/>
<path opacity="0.18" d="M266 509H319V458" fill="#D1D3D4"/>
<path opacity="0.18" d="M319 458H266V509" fill="#D1D3D4"/>
<path opacity="0.18" d="M265 509H212V458" fill="#D1D3D4"/>
<path opacity="0.18" d="M212 458H265V509" fill="#D1D3D4"/>
<path opacity="0.18" d="M159 509H212V458" fill="#E6E7E8"/>
<path opacity="0.18" d="M212 458H159V509" fill="#D1D3D4"/>
<path opacity="0.18" d="M637 51H690V0" fill="white"/>
<path opacity="0.18" d="M690 0H637V51" fill="white"/>
<path opacity="0.18" d="M743 51H690V0" fill="#D1D3D4"/>
<path opacity="0.18" d="M690 0H743V51" fill="#A7A9AC"/>
<path opacity="0.18" d="M159 102H106V51" fill="#A7A9AC"/>
<path opacity="0.18" d="M106 51H159V102" fill="#E6E7E8"/>
<path opacity="0.18" d="M53 102H106V51" fill="#F1F2F2"/>
<path opacity="0.18" d="M106 51H53V102" fill="#D1D3D4"/>
<path opacity="0.18" d="M637 153H690V102" fill="#E6E7E8"/>
<path opacity="0.18" d="M690 102H637V153" fill="#E6E7E8"/>
<path opacity="0.18" d="M743 153H690V102" fill="#D1D3D4"/>
<path opacity="0.18" d="M690 102H743V153" fill="#A7A9AC"/>
<path opacity="0.18" d="M159 204H106V153" fill="white"/>
<path opacity="0.18" d="M106 153H159V204" fill="white"/>
<path opacity="0.18" d="M53 204H106V153" fill="#F1F2F2"/>
<path opacity="0.18" d="M106 153H53V204" fill="white"/>
<path opacity="0.18" d="M637 255H690V204" fill="white"/>
<path opacity="0.18" d="M690 204H637V255" fill="#A7A9AC"/>
<path opacity="0.18" d="M743 255H690V204" fill="white"/>
<path opacity="0.18" d="M690 204H743V255" fill="#A7A9AC"/>
<path opacity="0.18" d="M159 305H106V254" fill="white"/>
<path opacity="0.18" d="M106 254H159V305" fill="#A7A9AC"/>
<path opacity="0.18" d="M53 305H106V254" fill="white"/>
<path opacity="0.18" d="M106 254H53V305" fill="#E6E7E8"/>
<path opacity="0.18" d="M637 356H690V305" fill="white"/>
<path opacity="0.18" d="M690 305H637V356" fill="#D1D3D4"/>
<path opacity="0.18" d="M743 356H690V305" fill="white"/>
<path opacity="0.18" d="M690 305H743V356" fill="white"/>
<path opacity="0.18" d="M159 407H106V356" fill="#A7A9AC"/>
<path opacity="0.18" d="M106 356H159V407" fill="#F1F2F2"/>
<path opacity="0.18" d="M53 407H106V356" fill="#A7A9AC"/>
<path opacity="0.18" d="M106 356H53V407" fill="white"/>
<path opacity="0.18" d="M637 458H690V407" fill="white"/>
<path opacity="0.18" d="M690 407H637V458" fill="#A7A9AC"/>
<path opacity="0.18" d="M743 458H690V407" fill="#E6E7E8"/>
<path opacity="0.18" d="M690 407H743V458" fill="#A7A9AC"/>
<path opacity="0.18" d="M159 509H106V458" fill="white"/>
<path opacity="0.18" d="M106 458H159V509" fill="#E6E7E8"/>
<path opacity="0.18" d="M53 509H106V458" fill="#A7A9AC"/>
<path opacity="0.18" d="M106 458H53V509" fill="#A7A9AC"/>
<path opacity="0.18" d="M744 51H797V0" fill="#D1D3D4"/>
<path opacity="0.18" d="M797 0H744V51" fill="#D1D3D4"/>
<path opacity="0.18" d="M53 102H0V51" fill="#D1D3D4"/>
<path opacity="0.18" d="M0 51H53V102" fill="white"/>
<path opacity="0.18" d="M744 153H797V102" fill="#E6E7E8"/>
<path opacity="0.18" d="M797 102H744V153" fill="white"/>
<path opacity="0.18" d="M53 204H0V153" fill="white"/>
<path opacity="0.18" d="M0 153H53V204" fill="#D1D3D4"/>
<path opacity="0.18" d="M744 255H797V204" fill="white"/>
<path opacity="0.18" d="M797 204H744V255" fill="#D1D3D4"/>
<path opacity="0.18" d="M53 305H0V254" fill="white"/>
<path opacity="0.18" d="M0 254H53V305" fill="white"/>
<path opacity="0.18" d="M744 356H797V305" fill="#F1F2F2"/>
<path opacity="0.18" d="M797 305H744V356" fill="#D1D3D4"/>
<path opacity="0.18" d="M53 407H0V356" fill="#D1D3D4"/>
<path opacity="0.18" d="M0 356H53V407" fill="#E6E7E8"/>
<path opacity="0.18" d="M744 458H797V407" fill="white"/>
<path opacity="0.18" d="M797 407H744V458" fill="#E6E7E8"/>
<path opacity="0.18" d="M53 509H0V458" fill="#A7A9AC"/>
<path opacity="0.18" d="M0 458H53V509" fill="white"/>
</svg>
