<svg width="168" height="61" viewBox="0 0 168 61" fill="none" xmlns="http://www.w3.org/2000/svg">
<path d="M31.251 58.5643V60.4706C31.2567 60.4826 31.2597 60.4957 31.2597 60.509C31.2597 60.5223 31.2567 60.5354 31.251 60.5474H31.1615H30.9954H30.4713H30.3052H30.2157C30.2102 60.5221 30.2102 60.4959 30.2157 60.4706V58.5643L28.7458 55.6216C28.705 55.548 28.6708 55.4709 28.6436 55.3912C28.6436 55.3273 28.6436 55.2889 28.6436 55.2633C28.6436 55.2377 28.733 55.2633 28.8225 55.1993H29.4871C29.5465 55.1908 29.6067 55.1908 29.6661 55.1993C29.6661 55.1993 29.7428 55.1993 29.7556 55.1993C29.784 55.2284 29.8058 55.2634 29.8195 55.3017L30.4202 56.5811C30.4202 56.7091 30.5353 56.837 30.5992 56.9778C30.6631 57.1185 30.7142 57.272 30.7653 57.4255C30.8129 57.2777 30.8684 57.1325 30.9315 56.9905L31.0849 56.5811L31.6856 55.3017C31.6787 55.2679 31.6787 55.2331 31.6856 55.1993C31.7073 55.1685 31.7389 55.1459 31.7751 55.1354C31.8301 55.1267 31.8862 55.1267 31.9412 55.1354H32.6059C32.671 55.1363 32.7339 55.1588 32.7848 55.1993C32.7961 55.2188 32.802 55.2409 32.802 55.2633C32.802 55.2858 32.7961 55.3078 32.7848 55.3273C32.7848 55.3273 32.7848 55.468 32.6826 55.5576L31.251 58.5643Z" fill="#009DB7"/>
<path d="M38.6774 57.8868C38.685 58.2939 38.629 58.6998 38.5112 59.0895C38.4174 59.4203 38.2515 59.7262 38.0255 59.9851C37.7973 60.2305 37.5181 60.4226 37.2075 60.5481C36.848 60.6822 36.4664 60.7474 36.0827 60.7401C35.7094 60.7501 35.3372 60.6938 34.9835 60.5737C34.6866 60.4741 34.4188 60.3027 34.2038 60.0747C33.9845 59.8276 33.823 59.5348 33.7309 59.2175C33.6187 58.8006 33.5671 58.3697 33.5775 57.938C33.5698 57.5393 33.6259 57.1419 33.7437 56.7609C33.8478 56.4317 34.0173 56.1271 34.2421 55.8653C34.4655 55.6144 34.7462 55.4212 35.0602 55.3023C35.4194 55.167 35.8012 55.1018 36.185 55.1103C36.5499 55.1011 36.9135 55.1575 37.2586 55.2767C37.5616 55.3713 37.8347 55.5433 38.0511 55.7757C38.2729 56.0209 38.4348 56.3144 38.524 56.6329C38.6407 57.049 38.6924 57.4805 38.6774 57.9124V57.8868ZM37.5271 57.9124C37.5334 57.6549 37.5119 57.3976 37.4631 57.1447C37.4339 56.9292 37.3551 56.7234 37.2331 56.5434C37.1317 56.378 36.9854 56.2449 36.8113 56.1595C36.6039 56.0608 36.3762 56.0126 36.1466 56.0188C35.9114 56.0108 35.678 56.0637 35.4692 56.1723C35.2941 56.2726 35.1452 56.4129 35.0346 56.5818C34.9159 56.7648 34.8334 56.9689 34.7918 57.1831C34.7711 57.4215 34.7711 57.6612 34.7918 57.8996C34.7702 58.1636 34.7702 58.4289 34.7918 58.6929C34.835 58.9046 34.9127 59.1078 35.0218 59.2943C35.1232 59.4596 35.2695 59.5927 35.4436 59.6781C35.6564 59.773 35.8884 59.8168 36.1211 59.806C36.3524 59.8161 36.5821 59.763 36.7857 59.6525C36.9678 59.5631 37.1224 59.426 37.2331 59.2559C37.3401 59.0639 37.4177 58.8568 37.4631 58.6417C37.5109 58.4017 37.5323 58.1571 37.5271 57.9124Z" fill="#009DB7"/>
<path d="M44.6463 58.6292C44.6483 58.9334 44.6008 59.236 44.5057 59.5249C44.4085 59.7744 44.2605 60.001 44.0711 60.1902C43.8705 60.3778 43.6302 60.5178 43.3681 60.5997C43.0582 60.6978 42.7345 60.7453 42.4095 60.7404C42.1021 60.7464 41.7958 60.7032 41.502 60.6125C41.2488 60.5315 41.0142 60.401 40.8118 60.2286C40.6255 60.0443 40.4815 59.8217 40.39 59.5761C40.2818 59.2902 40.2298 58.9861 40.2366 58.6804V55.3921C40.231 55.3668 40.231 55.3406 40.2366 55.3153H40.3261H40.505H41.029H41.1952H41.2847C41.2902 55.3406 41.2902 55.3668 41.2847 55.3921V58.5653C41.2806 58.7558 41.3065 58.9458 41.3614 59.1282C41.4068 59.2726 41.4856 59.4041 41.5914 59.5121C41.6947 59.6146 41.816 59.697 41.9493 59.7552C42.0967 59.8088 42.2527 59.8348 42.4095 59.832C42.5671 59.8307 42.7231 59.8004 42.8696 59.7424C43.0025 59.6966 43.1214 59.6173 43.2147 59.5121C43.3162 59.4079 43.3908 59.2806 43.432 59.1411C43.4852 58.9758 43.5111 58.8029 43.5087 58.6292V55.3793C43.5032 55.354 43.5032 55.3279 43.5087 55.3026H43.5982H43.7643H44.2884H44.4546C44.4839 55.295 44.5147 55.295 44.544 55.3026C44.5496 55.3279 44.5496 55.354 44.544 55.3793L44.6463 58.6292Z" fill="#009DB7"/>
<path d="M50.4628 60.4963C50.4628 60.4963 50.4628 60.5603 50.4628 60.573C50.438 60.5818 50.4109 60.5818 50.3861 60.573C50.3225 60.5815 50.258 60.5815 50.1944 60.573H49.6448C49.5899 60.5834 49.5335 60.5834 49.4786 60.573C49.4786 60.573 49.4019 60.573 49.3891 60.573V60.4835L48.9034 59.2808C48.8395 59.1401 48.7884 59.0249 48.7245 58.9098C48.6786 58.8156 48.6182 58.7293 48.5455 58.6539C48.4835 58.5805 48.4046 58.5234 48.3155 58.4876C48.21 58.4659 48.1013 58.4659 47.9959 58.4876H47.6636V60.5474C47.6691 60.5727 47.6691 60.5989 47.6636 60.6242H47.5741H47.3952H46.8711H46.7049C46.6756 60.6318 46.6448 60.6318 46.6155 60.6242C46.6099 60.5989 46.6099 60.5727 46.6155 60.5474V55.6345C46.6098 55.5878 46.615 55.5405 46.6305 55.4962C46.646 55.4518 46.6715 55.4116 46.7049 55.3786C46.7692 55.3233 46.8504 55.2917 46.935 55.2891H48.6861H48.9418C49.1404 55.3095 49.3345 55.3613 49.5169 55.4426C49.6832 55.5116 49.835 55.6115 49.9643 55.7369C50.0839 55.8634 50.1792 56.0108 50.2455 56.1719C50.3102 56.3523 50.3405 56.5432 50.335 56.7348C50.3553 56.9005 50.3553 57.0681 50.335 57.2338C50.2905 57.3769 50.2213 57.5112 50.1305 57.6304C50.0355 57.7486 49.9235 57.8521 49.7981 57.9375C49.6605 58.0284 49.5096 58.0975 49.3508 58.1422C49.4335 58.1784 49.5109 58.2258 49.5808 58.2829L49.7854 58.4876C49.8509 58.5731 49.9106 58.6629 49.9643 58.7563L50.1177 59.1017L50.5778 60.1636L50.6545 60.3939C50.6579 60.4322 50.6579 60.4707 50.6545 60.5091L50.4628 60.4963ZM49.2357 56.8499C49.2419 56.6926 49.2019 56.537 49.1207 56.4021C49.0759 56.3344 49.0175 56.2767 48.9493 56.2327C48.8811 56.1887 48.8046 56.1592 48.7245 56.1462C48.6608 56.1378 48.5964 56.1378 48.5327 56.1462H47.7531V57.6816H48.3027C48.4416 57.6826 48.5797 57.661 48.7117 57.6176C48.8183 57.5849 48.9179 57.5329 49.0057 57.4641C49.0831 57.3979 49.1444 57.3147 49.1846 57.221C49.2041 57.1153 49.2041 57.0069 49.1846 56.9011" fill="#009DB7"/>
<path d="M58.1696 56.8882C58.177 57.1635 58.1292 57.4376 58.029 57.6942C57.9397 57.9193 57.7997 58.1207 57.62 58.2828C57.4255 58.4469 57.1992 58.5688 56.9553 58.641C56.6532 58.7336 56.3381 58.7768 56.0223 58.769H55.5749V60.4962C55.5804 60.5215 55.5804 60.5477 55.5749 60.573H55.4854H55.3193H54.7569H54.5907H54.5012C54.4957 60.5477 54.4957 60.5215 54.5012 60.4962V55.6343C54.4952 55.5265 54.532 55.4208 54.6035 55.34C54.6777 55.2745 54.773 55.2382 54.8719 55.2376H56.1501H56.508C56.6484 55.2281 56.7893 55.2281 56.9298 55.2376C57.0968 55.2824 57.2594 55.3424 57.4155 55.4168C57.5741 55.5026 57.7168 55.6151 57.8373 55.7494C57.956 55.8839 58.0472 56.0404 58.1057 56.21C58.1703 56.4037 58.2006 56.6073 58.1952 56.8114L58.1696 56.8882ZM57.0576 56.8882C57.0613 56.7245 57.0263 56.5623 56.9553 56.4148C56.8942 56.305 56.8063 56.2125 56.6997 56.146C56.61 56.0892 56.5101 56.0501 56.4057 56.0309H55.6005V57.8606H56.0989C56.2475 57.8646 56.3953 57.8385 56.5335 57.7838C56.6448 57.743 56.7453 57.6773 56.8275 57.5918C56.9025 57.5014 56.9589 57.3971 56.9937 57.2848C57.0356 57.1612 57.0572 57.0315 57.0576 56.901" fill="#009DB7"/>
<path d="M63.7044 60.4963C63.7044 60.4963 63.7044 60.5603 63.7044 60.573C63.6795 60.5818 63.6525 60.5818 63.6277 60.573C63.564 60.5815 63.4996 60.5815 63.4359 60.573H62.8352C62.7803 60.5834 62.7239 60.5834 62.669 60.573C62.669 60.573 62.5923 60.573 62.5796 60.573V60.4835L62.0939 59.2808C62.0939 59.1401 61.9788 59.0249 61.9149 58.9098C61.8691 58.8156 61.8087 58.7293 61.736 58.6539C61.674 58.5805 61.595 58.5234 61.5059 58.4876C61.4005 58.4659 61.2918 58.4659 61.1863 58.4876H60.854V60.5474C60.8596 60.5727 60.8596 60.5989 60.854 60.6242H60.7645H60.5856H60.0615H59.8954C59.8661 60.6318 59.8353 60.6318 59.8059 60.6242C59.8004 60.5989 59.8004 60.5727 59.8059 60.5474V55.6345C59.8003 55.5878 59.8054 55.5405 59.8209 55.4962C59.8364 55.4518 59.8619 55.4116 59.8954 55.3786C59.9596 55.3233 60.0408 55.2917 60.1255 55.2891H61.8766H62.1322C62.3308 55.3095 62.5249 55.3613 62.7074 55.4426C62.8737 55.5116 63.0254 55.6115 63.1547 55.7369C63.2743 55.8634 63.3696 56.0108 63.4359 56.1719C63.5006 56.3523 63.531 56.5432 63.5254 56.7348C63.5247 56.9031 63.5032 57.0707 63.4615 57.2338C63.4171 57.3769 63.3478 57.5112 63.257 57.6304C63.162 57.7486 63.05 57.8521 62.9247 57.9375C62.787 58.0284 62.6361 58.0975 62.4773 58.1422C62.56 58.1784 62.6374 58.2258 62.7074 58.2829L62.9119 58.4876C62.9774 58.5731 63.0372 58.6629 63.0908 58.7563C63.142 58.8586 63.1931 58.9738 63.2442 59.1017L63.7044 60.1636L63.781 60.3939C63.7844 60.4322 63.7844 60.4707 63.781 60.5091L63.7044 60.4963ZM62.3623 56.8499C62.3684 56.6926 62.3284 56.537 62.2472 56.4021C62.2024 56.3344 62.1441 56.2767 62.0759 56.2327C62.0077 56.1887 61.9311 56.1592 61.851 56.1462C61.7874 56.1378 61.7229 56.1378 61.6593 56.1462H60.8796V57.6816H61.4292C61.5681 57.6826 61.7062 57.661 61.8382 57.6176C61.9448 57.5849 62.0445 57.5329 62.1322 57.4641C62.2097 57.3979 62.2709 57.3147 62.3111 57.221C62.3306 57.1153 62.3306 57.0069 62.3111 56.9011" fill="#009DB7"/>
<path d="M69.8776 57.8868C69.8852 58.2939 69.8292 58.6998 69.7114 59.0895C69.618 59.4232 69.4472 59.73 69.2129 59.9851C68.9919 60.2329 68.7162 60.4257 68.4077 60.5481C68.0479 60.6814 67.6665 60.7465 67.2829 60.7401C66.9096 60.7501 66.5374 60.6938 66.1837 60.5737C65.8853 60.4771 65.6168 60.3052 65.404 60.0747C65.1802 59.8309 65.018 59.5369 64.9311 59.2175C64.8189 58.8006 64.7673 58.3697 64.7777 57.938C64.7699 57.5393 64.8261 57.1419 64.9438 56.7609C65.0373 56.4272 65.208 56.1204 65.4423 55.8653C65.6634 55.6175 65.9391 55.4247 66.2476 55.3023C66.6116 55.1681 66.9973 55.103 67.3852 55.1103C67.7501 55.1011 68.1137 55.1575 68.4588 55.2767C68.7618 55.3713 69.0349 55.5433 69.2513 55.7757C69.4685 56.0242 69.6298 56.3165 69.7242 56.6329C69.8409 57.049 69.8926 57.4805 69.8776 57.9124V57.8868ZM68.7272 57.9124C68.7336 57.6549 68.7121 57.3976 68.6633 57.1447C68.6341 56.9292 68.5553 56.7234 68.4333 56.5434C68.3318 56.378 68.1856 56.2449 68.0115 56.1595C67.8041 56.0608 67.5764 56.0126 67.3468 56.0188C67.1116 56.0108 66.8782 56.0637 66.6694 56.1723C66.4943 56.2726 66.3454 56.4129 66.2348 56.5818C66.1161 56.7648 66.0336 56.9689 65.9919 57.1831C65.9713 57.4215 65.9713 57.6612 65.9919 57.8996C65.964 58.1633 65.964 58.4292 65.9919 58.6929C66.0233 58.9079 66.1019 59.1133 66.222 59.2943C66.3234 59.4596 66.4697 59.5927 66.6438 59.6781C66.8524 59.7719 67.08 59.8157 67.3085 59.806C67.5437 59.8141 67.7771 59.7612 67.9859 59.6525C68.1644 59.5628 68.3148 59.4256 68.4205 59.2559C68.5372 59.0672 68.6195 58.8592 68.6633 58.6417C68.7048 58.4008 68.7261 58.1569 68.7272 57.9124Z" fill="#009DB7"/>
<path d="M75.2079 59.8447V60.011C75.215 60.0534 75.215 60.0966 75.2079 60.139C75.2155 60.1683 75.2155 60.1991 75.2079 60.2285L75.144 60.3181L74.965 60.446L74.6455 60.5868L74.2109 60.702C74.0322 60.7156 73.8528 60.7156 73.6741 60.702C73.3344 60.7084 72.9964 60.652 72.6771 60.5356C72.3885 60.4277 72.1299 60.2522 71.923 60.0238C71.7069 59.7772 71.5419 59.4902 71.4373 59.1793C71.3248 58.7928 71.2688 58.392 71.2711 57.9894C71.2583 57.5548 71.3233 57.1215 71.4628 56.7099C71.5708 56.3797 71.7447 56.0749 71.9741 55.8142C72.1935 55.5734 72.4644 55.3853 72.7666 55.264C73.0876 55.1367 73.4311 55.0757 73.7763 55.0849H74.2109L74.5944 55.1872L74.9139 55.328L75.1184 55.4687L75.1951 55.5583C75.1982 55.5924 75.1982 55.6266 75.1951 55.6607C75.1951 55.6607 75.1951 55.7374 75.1951 55.7886V55.9933C75.2023 56.0614 75.2023 56.13 75.1951 56.1981C75.2048 56.2445 75.2048 56.2924 75.1951 56.3388C75.2017 56.3683 75.2017 56.3989 75.1951 56.4284C75.1381 56.4257 75.0837 56.4031 75.0417 56.3644L74.7861 56.1981C74.673 56.1301 74.553 56.0743 74.4282 56.0317C74.2656 55.9883 74.098 55.9668 73.9297 55.9678C73.7303 55.9614 73.5325 56.0054 73.3545 56.0957C73.1848 56.1867 73.0366 56.3133 72.92 56.4667C72.7979 56.6463 72.7071 56.8454 72.6515 57.0553C72.5873 57.3104 72.5572 57.5728 72.5621 57.8358C72.5525 58.1167 72.587 58.3973 72.6643 58.6675C72.7172 58.8745 72.8082 59.0698 72.9327 59.2433C73.0556 59.3858 73.2084 59.4994 73.3801 59.576C73.5611 59.656 73.7575 59.6953 73.9553 59.6911C74.1246 59.6947 74.2933 59.6688 74.4538 59.6144C74.584 59.5812 74.7088 59.5295 74.8244 59.4608L75.0673 59.3201C75.144 59.3201 75.1823 59.2433 75.2207 59.2433H75.2974C75.3023 59.2643 75.3023 59.2862 75.2974 59.3073C75.3008 59.3541 75.3008 59.4012 75.2974 59.448V59.8447" fill="#009DB7"/>
<path d="M81.0111 58.6293C81.0155 58.9347 80.9635 59.2384 80.8577 59.5249C80.765 59.7737 80.6213 60.0003 80.4359 60.1903C80.2335 60.3755 79.9938 60.5151 79.7329 60.5997C79.4225 60.6957 79.0992 60.7432 78.7743 60.7405C78.4627 60.7474 78.152 60.7042 77.854 60.6125C77.6035 60.5344 77.3725 60.4035 77.1766 60.2287C76.9822 60.0486 76.8333 59.825 76.742 59.5761C76.6448 59.2877 76.5972 58.9848 76.6014 58.6805V55.3921C76.5957 55.3801 76.5928 55.367 76.5928 55.3537C76.5928 55.3404 76.5957 55.3273 76.6014 55.3153C76.6307 55.3077 76.6615 55.3077 76.6909 55.3153H76.857H77.3811H77.5473C77.5766 55.3077 77.6074 55.3077 77.6367 55.3153C77.6455 55.3402 77.6455 55.3673 77.6367 55.3921V58.5653C77.6326 58.7558 77.6585 58.9458 77.7134 59.1283C77.7588 59.2726 77.8376 59.4041 77.9435 59.5121C78.0422 59.6142 78.1593 59.6967 78.2886 59.7552C78.436 59.8089 78.592 59.8349 78.7487 59.832C78.9105 59.8307 79.0706 59.8004 79.2217 59.7425C79.3512 59.6901 79.4687 59.6117 79.5668 59.5121C79.664 59.4048 79.738 59.2785 79.7841 59.1411C79.8372 58.9758 79.8631 58.8029 79.8608 58.6293V55.3793C79.8551 55.3673 79.8521 55.3542 79.8521 55.3409C79.8521 55.3277 79.8551 55.3146 79.8608 55.3026C79.8901 55.295 79.9209 55.295 79.9502 55.3026H80.1164H80.6404H80.8066H80.8961C80.9016 55.3279 80.9016 55.354 80.8961 55.3793L81.0111 58.6293Z" fill="#009DB7"/>
<path d="M86.8264 60.4966C86.8364 60.5212 86.8364 60.5487 86.8264 60.5734C86.8016 60.5821 86.7745 60.5821 86.7497 60.5734C86.6905 60.5834 86.63 60.5834 86.5708 60.5734H85.9573C85.9022 60.582 85.8461 60.582 85.7911 60.5734H85.7016V60.4838L85.2159 59.2811C85.2159 59.1403 85.1009 59.0252 85.0498 58.91C85.0039 58.8158 84.9435 58.7295 84.8708 58.6541C84.8016 58.5833 84.719 58.5267 84.628 58.4878C84.5267 58.4675 84.4224 58.4675 84.3212 58.4878H83.9761V60.5477C83.9816 60.573 83.9816 60.5992 83.9761 60.6245H83.8866H83.7205H83.1836H83.0175H82.928C82.9224 60.5992 82.9224 60.573 82.928 60.5477V55.6345C82.9249 55.5869 82.9325 55.5393 82.9502 55.495C82.9679 55.4507 82.9952 55.411 83.0302 55.3786C83.0945 55.3233 83.1757 55.2917 83.2603 55.2891H85.0114H85.2543C85.4567 55.3114 85.6547 55.3631 85.8422 55.4426C86.0051 55.5178 86.1559 55.6171 86.2896 55.7369C86.4053 55.8639 86.4963 56.0115 86.558 56.1719C86.6273 56.3514 86.662 56.5425 86.6603 56.7349C86.6617 56.9043 86.6358 57.0728 86.5836 57.2339C86.5442 57.3791 86.4745 57.5143 86.3791 57.6305C86.2912 57.7507 86.1831 57.8547 86.0595 57.9376C85.9218 58.0286 85.7709 58.0976 85.6122 58.1423L85.8422 58.2831L86.034 58.4878C86.1037 58.5702 86.1637 58.6603 86.2129 58.7565C86.2129 58.8588 86.3279 58.974 86.3791 59.102L86.8264 60.1639C86.8602 60.2391 86.8901 60.316 86.9159 60.3942C86.9193 60.4325 86.9193 60.4711 86.9159 60.5094L86.8264 60.4966ZM85.4971 56.85C85.5033 56.6927 85.4633 56.537 85.3821 56.4022C85.2883 56.2685 85.1462 56.1767 84.9859 56.1463C84.9221 56.1403 84.8579 56.1403 84.7941 56.1463H84.0016V57.6817H84.564C84.703 57.6828 84.8411 57.6612 84.9731 57.6177C85.0796 57.5851 85.1793 57.533 85.2671 57.4642C85.3406 57.3972 85.3975 57.314 85.4332 57.2211C85.4524 57.1153 85.4524 57.007 85.4332 56.9012" fill="#009DB7"/>
<path d="M91.4663 60.2167C91.4663 60.2935 91.4663 60.3575 91.4663 60.4214C91.4663 60.4854 91.4663 60.511 91.4663 60.5494V60.6261H88.6927C88.6094 60.6281 88.528 60.601 88.4626 60.5494C88.4281 60.5145 88.402 60.4721 88.3865 60.4255C88.371 60.3789 88.3664 60.3293 88.3731 60.2807V55.5723C88.3675 55.5256 88.3726 55.4783 88.3881 55.4339C88.4036 55.3895 88.4291 55.3493 88.4626 55.3164C88.4926 55.2863 88.5286 55.2628 88.5682 55.2474C88.6078 55.232 88.6502 55.225 88.6927 55.2268H91.3896C91.3948 55.2522 91.3948 55.2783 91.3896 55.3036C91.3982 55.3458 91.3982 55.3893 91.3896 55.4315C91.3968 55.4996 91.3968 55.5682 91.3896 55.6362C91.3968 55.7043 91.3968 55.7729 91.3896 55.841C91.3968 55.8833 91.3968 55.9266 91.3896 55.9689C91.3948 55.9942 91.3948 56.0204 91.3896 56.0457H89.4596V57.3251H91.1595C91.1655 57.3504 91.1655 57.3767 91.1595 57.4019C91.1681 57.4441 91.1681 57.4876 91.1595 57.5299C91.1667 57.5979 91.1667 57.6665 91.1595 57.7346C91.1668 57.7983 91.1668 57.8627 91.1595 57.9265C91.1681 57.9687 91.1681 58.0122 91.1595 58.0544C91.1683 58.0793 91.1683 58.1064 91.1595 58.1312H89.4596V59.8457H91.4024C91.4024 59.8457 91.4024 59.8457 91.4024 59.9224C91.4048 59.965 91.4048 60.0078 91.4024 60.0504C91.4024 60.0504 91.4024 60.1783 91.4024 60.2551" fill="#009DB7"/>
<path d="M99.3525 60.4984C99.3584 60.5236 99.3584 60.5499 99.3525 60.5751H99.263H99.1096H98.5983H98.4449H98.3555C98.3499 60.5498 98.3499 60.5237 98.3555 60.4984V56.0971L96.7833 60.4856C96.7833 60.4856 96.7833 60.5623 96.7833 60.5751L96.6811 60.6391H96.5149H96.0292H95.863H95.7608C95.7548 60.6249 95.7517 60.6097 95.7517 60.5943C95.7517 60.5789 95.7548 60.5637 95.7608 60.5495L94.2397 56.161V60.5623C94.2453 60.5876 94.2453 60.6138 94.2397 60.6391C94.2104 60.6467 94.1796 60.6467 94.1503 60.6391H93.9969H93.4856H93.3322H93.2428C93.2368 60.6138 93.2368 60.5876 93.2428 60.5623V55.7516C93.237 55.6322 93.2732 55.5145 93.345 55.419C93.3855 55.3797 93.4336 55.3491 93.4864 55.3293C93.5392 55.3095 93.5955 55.3008 93.6518 55.3038H94.3676C94.4779 55.2893 94.5896 55.2893 94.6999 55.3038C94.7844 55.3165 94.8639 55.3519 94.93 55.4062C95.0018 55.4538 95.0592 55.5201 95.0961 55.5981C95.1518 55.6884 95.1908 55.7881 95.2112 55.8924L96.3871 59.1038L97.6653 55.9052L97.7803 55.5981C97.8167 55.5236 97.8691 55.458 97.9337 55.4062C97.9899 55.352 98.0612 55.3163 98.1382 55.3038C98.2271 55.2895 98.3177 55.2895 98.4066 55.3038H99.1479H99.3397C99.3887 55.3168 99.433 55.3434 99.4675 55.3806C99.5051 55.4199 99.5315 55.4684 99.5442 55.5213C99.5585 55.5845 99.5585 55.65 99.5442 55.7132L99.3525 60.4984Z" fill="#009DB7"/>
<path d="M104.376 60.2167C104.376 60.2935 104.376 60.3575 104.376 60.4214V60.5494C104.382 60.5746 104.382 60.6009 104.376 60.6261H101.602C101.519 60.6281 101.437 60.601 101.372 60.5494C101.336 60.5151 101.308 60.4732 101.29 60.4267C101.273 60.3802 101.266 60.3303 101.27 60.2807V55.5723C101.267 55.5247 101.274 55.477 101.292 55.4327C101.31 55.3885 101.337 55.3487 101.372 55.3164C101.402 55.2863 101.438 55.2628 101.478 55.2474C101.517 55.232 101.56 55.225 101.602 55.2268H104.299C104.304 55.2522 104.304 55.2783 104.299 55.3036C104.308 55.3458 104.308 55.3893 104.299 55.4315C104.306 55.4996 104.306 55.5682 104.299 55.6362C104.306 55.7043 104.306 55.7729 104.299 55.841C104.306 55.8833 104.306 55.9266 104.299 55.9689C104.304 55.9942 104.304 56.0204 104.299 56.0457H102.369V57.3251H104.069C104.069 57.3251 104.069 57.3251 104.069 57.4019C104.078 57.4441 104.078 57.4876 104.069 57.5299C104.076 57.5979 104.076 57.6665 104.069 57.7346C104.076 57.7983 104.076 57.8627 104.069 57.9265C104.078 57.9687 104.078 58.0122 104.069 58.0544C104.074 58.0798 104.074 58.1059 104.069 58.1312H102.369V59.8457H104.312C104.321 59.8705 104.321 59.8976 104.312 59.9224C104.315 59.965 104.315 60.0078 104.312 60.0504C104.312 60.0504 104.312 60.1783 104.312 60.2551" fill="#009DB7"/>
<path d="M110.422 60.2541C110.435 60.3131 110.435 60.3743 110.422 60.4333C110.399 60.4807 110.369 60.524 110.332 60.5612L110.191 60.6252C110.141 60.6376 110.088 60.6376 110.038 60.6252H109.578H109.322C109.251 60.6069 109.185 60.5718 109.131 60.5228C109.061 60.459 109.001 60.3858 108.952 60.3053L108.76 59.9727L107.482 57.4136C107.405 57.2729 107.328 57.1066 107.252 56.9274C107.171 56.7649 107.098 56.5983 107.034 56.4284C107.034 56.6203 107.034 56.8251 107.034 57.017C107.034 57.2089 107.034 57.4264 107.034 57.6439V60.4589C107.044 60.4835 107.044 60.511 107.034 60.5356C107.034 60.5356 107.034 60.5356 106.958 60.5996H106.804H106.319H106.165C106.165 60.5996 106.101 60.5996 106.089 60.5356C106.079 60.511 106.079 60.4835 106.089 60.4589V55.6095C106.085 55.555 106.093 55.5004 106.113 55.4495C106.133 55.3986 106.164 55.3528 106.204 55.3152C106.283 55.2498 106.382 55.2137 106.485 55.2129H107.073H107.341C107.412 55.2312 107.478 55.2663 107.533 55.3152C107.6 55.357 107.657 55.414 107.699 55.4816L107.852 55.7503L108.901 57.7335C108.901 57.8487 109.028 57.9638 109.079 58.079C109.131 58.1941 109.207 58.3093 109.258 58.4245L109.425 58.7699L109.578 59.1026C109.578 58.9107 109.578 58.7059 109.578 58.4884C109.578 58.2709 109.578 58.079 109.578 57.8871V55.328C109.572 55.3028 109.572 55.2766 109.578 55.2513C109.578 55.2513 109.578 55.2513 109.667 55.2513C109.717 55.2363 109.771 55.2363 109.821 55.2513H110.307C110.352 55.2366 110.401 55.2366 110.447 55.2513C110.472 55.2425 110.499 55.2425 110.524 55.2513C110.53 55.2765 110.53 55.3028 110.524 55.328L110.422 60.2541Z" fill="#009DB7"/>
<path d="M115.828 55.6987V55.9034V56.0441C115.832 56.0696 115.832 56.0954 115.828 56.1209H114.473V60.4708C114.479 60.4961 114.479 60.5223 114.473 60.5476H114.384H114.218H113.553H113.387H113.297C113.292 60.5223 113.292 60.4961 113.297 60.4708V56.1209H111.943H111.879C111.875 56.0954 111.875 56.0696 111.879 56.0441V55.9034V55.4811C111.875 55.4343 111.875 55.3873 111.879 55.3404C111.87 55.3156 111.87 55.2885 111.879 55.2637H111.943H115.777C115.786 55.2885 115.786 55.3156 115.777 55.3404C115.78 55.3873 115.78 55.4343 115.777 55.4811V55.6987" fill="#009DB7"/>
<path d="M122.884 60.2167C122.884 60.2935 122.884 60.3575 122.884 60.4214C122.892 60.4638 122.892 60.507 122.884 60.5494C122.89 60.5746 122.89 60.6009 122.884 60.6261H120.111C120.027 60.6281 119.946 60.601 119.881 60.5494C119.846 60.5145 119.82 60.4721 119.804 60.4255C119.789 60.3789 119.784 60.3293 119.791 60.2807V55.5723C119.785 55.5256 119.791 55.4783 119.806 55.4339C119.822 55.3895 119.847 55.3493 119.881 55.3164C119.911 55.2863 119.947 55.2628 119.986 55.2474C120.026 55.232 120.068 55.225 120.111 55.2268H122.808C122.813 55.2522 122.813 55.2783 122.808 55.3036C122.816 55.3458 122.816 55.3893 122.808 55.4315C122.815 55.4996 122.815 55.5682 122.808 55.6362C122.815 55.7043 122.815 55.7729 122.808 55.841C122.815 55.8833 122.815 55.9266 122.808 55.9689C122.813 55.9942 122.813 56.0204 122.808 56.0457H120.878V57.3251H122.501C122.507 57.3504 122.507 57.3767 122.501 57.4019C122.509 57.4441 122.509 57.4876 122.501 57.5299C122.508 57.5979 122.508 57.6665 122.501 57.7346C122.508 57.7983 122.508 57.8627 122.501 57.9265C122.509 57.9687 122.509 58.0122 122.501 58.0544C122.51 58.0793 122.51 58.1064 122.501 58.1312H120.801V59.8457H122.744C122.752 59.8705 122.752 59.8976 122.744 59.9224C122.744 59.9224 122.744 59.9992 122.744 60.0504C122.744 60.1016 122.744 60.1783 122.744 60.2551" fill="#009DB7"/>
<path d="M128.329 60.2285C128.369 60.3021 128.404 60.3792 128.431 60.4588C128.441 60.4808 128.447 60.5048 128.447 60.5292C128.447 60.5535 128.441 60.5775 128.431 60.5995C128.372 60.6159 128.311 60.6159 128.252 60.5995H127.613H127.434H127.345C127.338 60.57 127.338 60.5394 127.345 60.51L126.335 58.5652L125.325 60.51L125.261 60.5995H125.172H124.993H124.354C124.304 60.6182 124.25 60.6182 124.2 60.5995C124.2 60.5995 124.2 60.5228 124.2 60.4588L124.302 60.2285L125.581 57.8742L124.379 55.6608C124.336 55.5841 124.301 55.5025 124.277 55.4177C124.263 55.3968 124.256 55.3723 124.256 55.3473C124.256 55.3222 124.263 55.2978 124.277 55.2769C124.336 55.2645 124.397 55.2645 124.456 55.2769H125.057H125.236H125.338V55.3665L126.284 57.145L127.204 55.3665C127.197 55.337 127.197 55.3064 127.204 55.2769H127.293H127.46H128.086C128.147 55.2796 128.205 55.3021 128.252 55.3409C128.267 55.359 128.274 55.3816 128.274 55.4049C128.274 55.4281 128.267 55.4507 128.252 55.4688C128.233 55.5535 128.203 55.6352 128.163 55.7119L126.961 57.9126L128.329 60.2285Z" fill="#009DB7"/>
<path d="M133.531 56.8881C133.535 57.1644 133.482 57.4385 133.378 57.6942C133.288 57.9193 133.149 58.1207 132.969 58.2827C132.776 58.4491 132.549 58.5714 132.304 58.641C132.006 58.7335 131.695 58.7767 131.384 58.7689H130.924V60.4962C130.929 60.5082 130.932 60.5213 130.932 60.5346C130.932 60.5479 130.929 60.561 130.924 60.573H130.834H130.668H130.17H129.991H129.914C129.908 60.561 129.905 60.5479 129.905 60.5346C129.905 60.5213 129.908 60.5082 129.914 60.4962V55.6342C129.908 55.5806 129.914 55.5263 129.931 55.4754C129.949 55.4244 129.978 55.3781 130.016 55.3399C130.052 55.3059 130.094 55.2792 130.14 55.2617C130.186 55.2441 130.235 55.2359 130.285 55.2376H131.563H131.933C132.07 55.2281 132.206 55.2281 132.342 55.2376C132.51 55.2807 132.673 55.3407 132.828 55.4167C132.987 55.5026 133.129 55.6151 133.25 55.7493C133.378 55.8772 133.47 56.0359 133.518 56.21C133.588 56.4028 133.622 56.6064 133.621 56.8113L133.531 56.8881ZM132.47 56.8881C132.474 56.7244 132.439 56.5622 132.368 56.4147C132.308 56.3084 132.225 56.2166 132.125 56.146C132.03 56.0909 131.926 56.052 131.818 56.0308H131.013V57.8605H131.448C131.596 57.8657 131.744 57.8395 131.882 57.7838C131.995 57.7462 132.096 57.6801 132.176 57.5918C132.251 57.5013 132.308 57.397 132.342 57.2847C132.363 57.1576 132.363 57.028 132.342 56.9009" fill="#009DB7"/>
<path d="M138.209 60.216V60.4207V60.5486C138.215 60.5738 138.215 60.6001 138.209 60.6254H135.435C135.393 60.6289 135.352 60.6239 135.312 60.6107C135.273 60.5975 135.236 60.5764 135.205 60.5486C135.169 60.5143 135.141 60.4724 135.123 60.4259C135.106 60.3794 135.099 60.3295 135.103 60.2799V55.5716C135.1 55.524 135.107 55.4763 135.125 55.432C135.143 55.3878 135.17 55.348 135.205 55.3157C135.233 55.2834 135.269 55.2584 135.309 55.2429C135.349 55.2273 135.392 55.2216 135.435 55.2261H138.119H138.196V55.3029C138.198 55.3455 138.198 55.3882 138.196 55.4308C138.196 55.4308 138.196 55.5588 138.196 55.6355C138.196 55.7123 138.196 55.7891 138.196 55.8403C138.196 55.8914 138.196 55.9298 138.196 55.9682V56.045H138.119H136.202V57.3244H137.838C137.838 57.3244 137.838 57.3244 137.838 57.4012C137.847 57.4434 137.847 57.4869 137.838 57.5291C137.845 57.5972 137.845 57.6658 137.838 57.7338C137.845 57.7976 137.845 57.862 137.838 57.9258C137.847 57.968 137.847 58.0115 137.838 58.0537C137.843 58.079 137.843 58.1051 137.838 58.1305H136.138V59.8449H138.081C138.09 59.8698 138.09 59.8969 138.081 59.9217C138.084 59.9643 138.084 60.0071 138.081 60.0496V60.2544" fill="#009DB7"/>
<path d="M143.821 60.4966C143.821 60.4966 143.821 60.5606 143.821 60.5734C143.796 60.5821 143.769 60.5821 143.744 60.5734C143.68 60.5846 143.616 60.5846 143.552 60.5734H142.951C142.897 60.5837 142.84 60.5837 142.785 60.5734H142.696V60.4838L142.21 59.2811C142.21 59.1403 142.095 59.0252 142.044 58.91C141.994 58.8152 141.929 58.7289 141.852 58.6542C141.79 58.5807 141.711 58.5236 141.622 58.4878C141.521 58.4675 141.417 58.4675 141.315 58.4878H140.97V60.5477C140.976 60.573 140.976 60.5992 140.97 60.6245H140.881H140.715H140.178H140.012H139.922C139.917 60.5992 139.917 60.573 139.922 60.5477V55.6346C139.919 55.587 139.927 55.5394 139.944 55.4951C139.962 55.4508 139.989 55.4111 140.024 55.3787C140.055 55.3493 140.091 55.3262 140.13 55.3108C140.17 55.2954 140.212 55.2881 140.254 55.2892H141.993H142.248C142.451 55.3115 142.649 55.3632 142.836 55.4427C142.997 55.5151 143.144 55.6146 143.271 55.737C143.393 55.8613 143.489 56.0093 143.552 56.172C143.617 56.3524 143.647 56.5434 143.642 56.735C143.668 56.9002 143.668 57.0687 143.642 57.2339C143.602 57.3792 143.533 57.5144 143.437 57.6306C143.345 57.7519 143.233 57.8559 143.105 57.9377C142.972 58.0285 142.825 58.0976 142.67 58.1424L142.888 58.2831L143.092 58.4878C143.162 58.5702 143.222 58.6604 143.271 58.7565L143.437 59.102L143.884 60.1639C143.884 60.2791 143.961 60.3558 143.974 60.3942C143.979 60.4324 143.979 60.4711 143.974 60.5094L143.821 60.4966ZM142.568 56.8501C142.576 56.6908 142.531 56.5332 142.44 56.4023C142.397 56.3335 142.339 56.2749 142.27 56.2308C142.202 56.1866 142.125 56.1578 142.044 56.1464C141.98 56.1379 141.916 56.1379 141.852 56.1464H141.072V57.6818H141.635C141.774 57.6813 141.912 57.6598 142.044 57.6178C142.147 57.5851 142.242 57.533 142.325 57.4643C142.406 57.4015 142.468 57.3173 142.504 57.2212C142.523 57.1154 142.523 57.0071 142.504 56.9013" fill="#009DB7"/>
<path d="M148.78 55.6987C148.78 55.7754 148.78 55.8394 148.78 55.9034C148.787 55.95 148.787 55.9975 148.78 56.0441C148.783 56.0696 148.783 56.0954 148.78 56.1209H147.425V60.4708C147.43 60.4828 147.433 60.496 147.433 60.5092C147.433 60.5225 147.43 60.5356 147.425 60.5476H147.335H147.169H146.645H146.466H146.377C146.371 60.5223 146.371 60.4961 146.377 60.4708V56.1209H145.034H144.958C144.954 56.0954 144.954 56.0696 144.958 56.0441C144.951 55.9975 144.951 55.95 144.958 55.9034C144.951 55.8353 144.951 55.7667 144.958 55.6987C144.951 55.6263 144.951 55.5535 144.958 55.4811C144.949 55.4346 144.949 55.387 144.958 55.3404C144.949 55.3156 144.949 55.2885 144.958 55.2637H145.034H148.869C148.878 55.2885 148.878 55.3156 148.869 55.3404C148.878 55.3869 148.878 55.4347 148.869 55.4811C148.869 55.5451 148.869 55.6091 148.869 55.6987" fill="#009DB7"/>
<path d="M153.177 59.0267C153.186 59.2842 153.129 59.5397 153.011 59.7688C152.915 59.9788 152.77 60.163 152.589 60.3062C152.398 60.4545 152.181 60.5672 151.95 60.6389C151.696 60.7067 151.434 60.7412 151.17 60.7412C151 60.7614 150.829 60.7614 150.659 60.7412C150.516 60.7192 150.375 60.6849 150.237 60.6389C150.131 60.6019 150.028 60.5548 149.93 60.4981L149.752 60.3702C149.729 60.3511 149.711 60.3277 149.697 60.3013C149.684 60.2749 149.677 60.2461 149.675 60.2166C149.665 60.1188 149.665 60.0202 149.675 59.9223C149.668 59.85 149.668 59.7772 149.675 59.7048C149.668 59.6582 149.668 59.6107 149.675 59.5641C149.666 59.5392 149.666 59.5121 149.675 59.4873C149.737 59.4954 149.795 59.5222 149.841 59.5641L150.122 59.7176L150.518 59.8711C150.694 59.9144 150.874 59.9359 151.055 59.9351C151.174 59.9557 151.295 59.9557 151.413 59.9351C151.509 59.9082 151.6 59.865 151.682 59.8072C151.751 59.747 151.808 59.6729 151.848 59.5897C151.867 59.4925 151.867 59.3925 151.848 59.2954C151.85 59.1804 151.814 59.068 151.745 58.9755C151.671 58.883 151.58 58.8049 151.477 58.7452L151.119 58.5533L150.697 58.3613L150.276 58.1438C150.141 58.0557 150.017 57.9527 149.905 57.8367C149.798 57.7106 149.711 57.568 149.649 57.4145C149.58 57.2305 149.545 57.0353 149.547 56.8387C149.544 56.601 149.592 56.3654 149.688 56.1478C149.783 55.9591 149.918 55.7933 150.084 55.6616C150.256 55.5286 150.451 55.4288 150.659 55.3673C150.888 55.3037 151.125 55.2736 151.362 55.2777H151.745L152.103 55.3545L152.397 55.4696C152.458 55.4933 152.515 55.528 152.563 55.572V55.6488C152.563 55.6488 152.563 55.6488 152.563 55.7256C152.563 55.8023 152.563 55.8023 152.563 55.8407V56.2374C152.566 56.28 152.566 56.3227 152.563 56.3653V56.4549C152.538 56.462 152.512 56.462 152.487 56.4549L152.346 56.3909L152.091 56.263C151.985 56.2083 151.873 56.1654 151.758 56.135C151.618 56.1147 151.476 56.1147 151.336 56.135C151.235 56.121 151.131 56.121 151.03 56.135C150.948 56.1672 150.87 56.2102 150.8 56.263C150.739 56.3078 150.695 56.3704 150.672 56.4421C150.654 56.5178 150.654 56.5967 150.672 56.6724C150.67 56.7834 150.706 56.8918 150.774 56.9795C150.848 57.0762 150.939 57.1586 151.042 57.2226L151.413 57.4145L151.835 57.6064L152.257 57.824C152.394 57.9088 152.519 58.0121 152.627 58.131C152.746 58.2511 152.837 58.3951 152.896 58.5533C152.966 58.7324 153.001 58.9237 152.998 59.1162" fill="#009DB7"/>
<path d="M99.0072 12.0822V15.1145L96.8726 12.9651L93.0381 0.695312L99.0072 12.0822Z" fill="#0095B0"/>
<path d="M95.8759 13.9632L98.0232 16.0999H94.9939L83.6182 10.125L95.8759 13.9632Z" fill="#F39200"/>
<path d="M94.9939 17.4922H98.0232L95.8759 19.6289L83.6182 23.4673L94.9939 17.4922Z" fill="#4DA880"/>
<path d="M103.532 19.6289L101.397 17.4922H104.414L115.79 23.4673L103.532 19.6289Z" fill="#F39200"/>
<path d="M104.414 16.0999H101.397L103.532 13.9632L115.79 10.125L104.414 16.0999Z" fill="#4DA880"/>
<path d="M102.548 12.9653L100.4 15.1021L100.413 12.0825L106.369 0.695312L102.548 12.9653Z" fill="#E94E1B"/>
<path d="M8.14198 20.7451H0V43.7751H2.79921V34.0641H8.14198C9.0285 34.0659 9.90652 33.8912 10.7249 33.5501C11.5433 33.2089 12.2858 32.7083 12.9091 32.0772C13.5324 31.4462 14.0241 30.6973 14.3555 29.8743C14.6869 29.0512 14.8515 28.1704 14.8396 27.283C14.8486 26.4055 14.6805 25.5351 14.3456 24.7241C14.0108 23.913 13.5159 23.178 12.8906 22.5628C12.2653 21.9476 11.5225 21.4651 10.7065 21.144C9.89062 20.8228 9.01837 20.6697 8.14198 20.6939V20.7451ZM2.79921 23.3679H7.79686C8.33008 23.3285 8.86565 23.4012 9.36915 23.5813C9.87265 23.7613 10.333 24.0448 10.7205 24.4135C11.1081 24.7822 11.4144 25.2279 11.6197 25.7221C11.825 26.2163 11.9247 26.748 11.9126 27.283C11.9279 27.8367 11.8332 28.3879 11.634 28.9047C11.4348 29.4215 11.1351 29.8935 10.7522 30.2935C10.3693 30.6934 9.91095 31.0132 9.40363 31.2344C8.89631 31.4556 8.35016 31.5737 7.79686 31.582H2.79921V23.3679Z" fill="white"/>
<path d="M23.7615 30.1864C23.2017 30.0419 22.6268 29.9646 22.0487 29.9561C21.2992 29.94 20.5572 30.109 19.8884 30.4482C19.2196 30.7874 18.6446 31.2863 18.2142 31.9009L18.0225 30.1736H15.709V43.8252H18.4571V36.4684C18.4571 34.0119 19.8375 32.3487 21.8953 32.3487C22.395 32.3589 22.8922 32.4233 23.378 32.5406H23.7104L24.0427 30.1864H23.7615Z" fill="white"/>
<path d="M30.715 29.8535C29.7768 29.8215 28.8423 29.986 27.9713 30.3367C27.1004 30.6874 26.3123 31.2164 25.6576 31.8898C25.0029 32.5632 24.4961 33.3662 24.1696 34.2472C23.8431 35.1282 23.7041 36.0678 23.7617 37.0057C23.7041 37.9437 23.8431 38.8833 24.1696 39.7643C24.4961 40.6453 25.0029 41.4482 25.6576 42.1217C26.3123 42.7951 27.1004 43.3241 27.9713 43.6748C28.8423 44.0254 29.7768 44.19 30.715 44.1579C31.651 44.1864 32.5828 44.0191 33.4506 43.6669C34.3185 43.3146 35.1034 42.785 35.7553 42.112C36.4072 41.4389 36.9118 40.6372 37.2368 39.758C37.5617 38.8788 37.7 37.9414 37.6427 37.0057C37.7 36.07 37.5617 35.1327 37.2368 34.2535C36.9118 33.3743 36.4072 32.5726 35.7553 31.8995C35.1034 31.2265 34.3185 30.6969 33.4506 30.3447C32.5828 29.9924 31.651 29.8251 30.715 29.8535ZM30.715 41.8165C28.2737 41.8165 26.5737 39.8334 26.5737 37.0057C26.5737 34.1781 28.2737 32.195 30.715 32.195C33.1563 32.195 34.8435 34.1781 34.8435 37.0057C34.8435 39.8334 33.1435 41.8165 30.715 41.8165Z" fill="white"/>
<path d="M45.8102 32.2468C46.9952 32.2727 48.1429 32.6661 49.0951 33.3727L49.3635 33.5646L50.6417 31.5431L50.386 31.3768C48.9837 30.3958 47.3165 29.8648 45.6057 29.8542C44.6759 29.8407 43.7533 30.0185 42.8951 30.3766C42.0369 30.7348 41.2613 31.2656 40.6165 31.9362C39.9718 32.6068 39.4715 33.4029 39.1468 34.2751C38.8221 35.1473 38.68 36.0769 38.7291 37.0063C38.6683 37.9385 38.8024 38.8732 39.1229 39.7505C39.4434 40.6279 39.9432 41.4287 40.5903 42.1017C41.2375 42.7748 42.0178 43.3054 42.8813 43.6595C43.7449 44.0136 44.6728 44.1836 45.6057 44.1585C47.3186 44.1491 48.9874 43.6131 50.386 42.6231L50.6417 42.4568L49.3635 40.4481L49.0951 40.6272C48.148 41.3483 46.9996 41.7553 45.8102 41.7915C45.2043 41.7871 44.606 41.6566 44.0532 41.4084C43.5004 41.1603 43.0052 40.7997 42.599 40.3498C42.1927 39.8998 41.8844 39.3703 41.6935 38.7947C41.5025 38.2192 41.4332 37.6102 41.4899 37.0063C41.4899 34.166 43.2283 32.2468 45.8102 32.2468Z" fill="white"/>
<path d="M60.9566 37.8382C60.9901 38.3325 60.9211 38.8284 60.7541 39.2948C60.587 39.7612 60.3255 40.1881 59.9858 40.5485C59.6461 40.9089 59.2357 41.1951 58.7803 41.3893C58.3249 41.5834 57.8343 41.6812 57.3394 41.6765C56.9309 41.7017 56.5216 41.6412 56.1378 41.4989C55.754 41.3566 55.4042 41.1357 55.1106 40.8502C54.817 40.5648 54.5862 40.2212 54.433 39.8413C54.2797 39.4614 54.2074 39.0537 54.2206 38.6442V30.123H51.4725V38.9385C51.454 39.6266 51.5778 40.311 51.8363 40.9489C52.0948 41.5867 52.4823 42.1641 52.9745 42.6448C53.4667 43.1255 54.0529 43.499 54.6963 43.7419C55.3397 43.9848 56.0263 44.0919 56.7131 44.0563C57.5779 44.0753 58.4354 43.8934 59.2183 43.5249C60.0011 43.1564 60.688 42.6113 61.225 41.9324L61.4168 43.7237H63.7047V30.1742H60.931L60.9566 37.8382Z" fill="white"/>
<path d="M73.6872 30.186C73.1274 30.0415 72.5525 29.9642 71.9744 29.9557C71.2254 29.943 70.4846 30.1134 69.8164 30.4523C69.1481 30.7912 68.5726 31.2884 68.1399 31.9005L67.961 30.1732H65.6475V43.825H68.3955V36.4681C68.3955 34.0116 69.776 32.3483 71.8211 32.3483C72.325 32.3577 72.8265 32.4221 73.3165 32.5402H73.6488L73.9684 30.186H73.6872Z" fill="white"/>
<path d="M80.6023 29.8535C76.6783 29.8535 73.943 32.7962 73.943 37.0056C73.896 37.9518 74.0465 38.8974 74.3849 39.7822C74.7233 40.6669 75.2422 41.4714 75.9084 42.1443C76.5746 42.8172 77.3736 43.3437 78.2543 43.6904C79.1351 44.037 80.0784 44.1962 81.0241 44.1577C82.7572 44.116 84.4579 43.6784 85.9962 42.8783L86.2646 42.7375L85.3315 40.6776L85.0248 40.8439C83.8542 41.5104 82.5365 41.8753 81.1902 41.9059C80.0652 41.9389 78.9705 41.5375 78.133 40.7849C77.2955 40.0323 76.7792 38.986 76.691 37.8629H86.712V37.5814C86.7308 37.313 86.7308 37.0437 86.712 36.7753C86.712 32.7067 84.1556 29.8663 80.5 29.8663L80.6023 29.8535ZM80.5 32.1309C82.4301 32.1309 83.8105 33.6151 84.0022 35.8669H76.6399C76.6666 34.8668 77.0823 33.9166 77.7986 33.2187C78.5148 32.5209 79.4749 32.1306 80.4745 32.1309" fill="white"/>
<path d="M119.829 29.8553C119.072 29.8388 118.321 29.9856 117.626 30.2859C116.931 30.5861 116.309 31.0328 115.803 31.5954V24.2896L113.067 23.5859V43.8272H115.368L115.56 42.215C116.075 42.8451 116.728 43.3482 117.468 43.6854C118.208 44.0227 119.016 44.185 119.829 44.1598C123.408 44.1598 126.015 41.1531 126.015 37.0076C126.015 32.8621 123.459 29.8553 119.829 29.8553ZM123.216 37.0076C123.216 39.8224 121.618 41.7928 119.382 41.7928C118.896 41.8011 118.414 41.7082 117.967 41.5202C117.519 41.3322 117.115 41.0531 116.781 40.7005C116.447 40.348 116.19 39.9299 116.026 39.4725C115.862 39.0152 115.795 38.5287 115.828 38.0439V35.9584C115.794 35.4742 115.862 34.9883 116.026 34.5316C116.19 34.075 116.448 33.6576 116.782 33.3061C117.116 32.9545 117.52 32.6766 117.968 32.49C118.415 32.3034 118.897 32.2123 119.382 32.2224C121.631 32.2224 123.216 34.2439 123.216 37.0076Z" fill="white"/>
<path d="M130.63 30.1738H127.882V43.8386H130.63V30.1738Z" fill="white"/>
<path d="M129.262 24.9931C129.06 24.986 128.858 25.0205 128.67 25.0943C128.481 25.1682 128.31 25.2799 128.166 25.4225C128.023 25.5651 127.91 25.7357 127.834 25.9237C127.759 26.1117 127.723 26.3131 127.728 26.5156C127.723 26.7181 127.759 26.9196 127.834 27.1076C127.91 27.2955 128.023 27.4661 128.166 27.6087C128.31 27.7514 128.481 27.863 128.67 27.9369C128.858 28.0107 129.06 28.0452 129.262 28.0382C129.458 28.045 129.654 28.0124 129.837 27.9423C130.021 27.8723 130.188 27.7661 130.33 27.6302C130.472 27.4942 130.585 27.3312 130.663 27.1508C130.74 26.9703 130.781 26.7761 130.783 26.5796C130.79 26.3777 130.756 26.1765 130.682 25.9886C130.608 25.8006 130.496 25.6299 130.353 25.4871C130.211 25.3443 130.04 25.2324 129.852 25.1584C129.665 25.0844 129.464 25.0499 129.262 25.057" fill="white"/>
<path d="M141.252 25.0054C141.044 24.996 140.836 25.0306 140.643 25.1067C140.449 25.1828 140.274 25.2988 140.128 25.4473C139.982 25.5957 139.869 25.7732 139.796 25.9682C139.723 26.1632 139.692 26.3714 139.705 26.5792C139.699 26.7829 139.736 26.9854 139.812 27.1743C139.888 27.3632 140.002 27.5344 140.147 27.6773C140.293 27.8201 140.465 27.9315 140.655 28.0045C140.845 28.0776 141.048 28.1107 141.252 28.1019C141.452 28.1072 141.652 28.0714 141.838 27.9966C142.024 27.9218 142.193 27.8097 142.335 27.667C142.476 27.5244 142.586 27.3543 142.66 27.1672C142.733 26.9801 142.767 26.78 142.76 26.5792C142.765 26.3795 142.73 26.1808 142.656 25.9953C142.582 25.8097 142.471 25.6411 142.33 25.4999C142.189 25.3586 142.02 25.2476 141.835 25.1735C141.65 25.0995 141.451 25.0641 141.252 25.0694" fill="white"/>
<path d="M142.594 30.1738H139.858V43.8386H142.594V30.1738Z" fill="white"/>
<path d="M164.386 30.1733L160.551 40.1916L156.589 30.1733H153.688L159.196 43.4158L158.57 44.9896C157.918 46.7168 157.292 47.3565 156.014 47.3565C155.581 47.3469 155.152 47.2825 154.736 47.1646L154.403 47.0751L153.994 49.4165H154.275C154.898 49.5791 155.537 49.665 156.18 49.6724C158.353 49.6724 159.836 48.3929 160.973 45.5269L167.198 30.1094L164.386 30.1733Z" fill="white"/>
<path d="M108.837 43.8262H111.918L99.7365 18.3906L87.5811 43.8262H90.7126L93.7802 37.2753H105.757L108.837 43.8262ZM95.0456 34.6013L99.7109 24.7751L104.453 34.6013H95.0456Z" fill="white"/>
<path d="M138.298 41.6014C137.882 41.7178 137.453 41.7823 137.02 41.7934C136.848 41.8115 136.674 41.7908 136.51 41.7329C136.347 41.675 136.199 41.5813 136.076 41.4587C135.954 41.3361 135.86 41.1876 135.802 41.0242C135.745 40.8607 135.724 40.6864 135.742 40.5139V24.3287L133.007 23.625V40.6546C132.981 41.1238 133.057 41.593 133.228 42.0305C133.399 42.4681 133.662 42.8639 133.998 43.1912C134.335 43.5185 134.738 43.7698 135.18 43.9282C135.622 44.0866 136.092 44.1483 136.56 44.1092C137.118 44.1002 137.673 44.0446 138.222 43.9429L138.298 41.6014Z" fill="white"/>
<path d="M152.844 41.5605C152.318 41.6977 151.777 41.775 151.234 41.7908C150.979 41.7983 150.725 41.7527 150.489 41.6569C150.253 41.5612 150.039 41.4173 149.861 41.2345C149.683 41.0517 149.545 40.8338 149.456 40.5948C149.366 40.3558 149.328 40.1008 149.342 39.846V32.4892H153.317L152.397 30.1734H149.342V26.5781H146.594V30.2373H143.846V32.5532H146.555V40.1019C146.539 40.6574 146.637 41.2103 146.845 41.7255C147.054 42.2406 147.367 42.7068 147.765 43.0943C148.163 43.4818 148.637 43.7822 149.157 43.9763C149.677 44.1704 150.232 44.254 150.786 44.2218C151.478 44.2191 152.167 44.1462 152.844 44.0043V41.5605Z" fill="white"/>
</svg>
