<svg width="589" height="811" viewBox="0 0 589 811" fill="none" xmlns="http://www.w3.org/2000/svg">
<path d="M355.433 503.379C355.614 503.172 355.755 502.924 355.815 502.655L372.803 438.519C373.185 437.009 371.595 435.809 370.307 436.595L314.735 470.028C314.493 470.173 314.292 470.38 314.151 470.628L174.788 705.239C173.721 707.039 176.116 708.88 177.485 707.308L355.433 503.379Z" fill="#F7EFE1"/>
<path d="M496.526 418.472C496.265 418.534 495.983 418.534 495.721 418.451L432.984 402.273C431.535 401.88 431.273 399.873 432.561 399.086L488.133 365.653C488.375 365.509 488.657 365.426 488.918 365.426L756.172 355.35C758.225 355.268 758.607 358.33 756.615 358.785L496.526 418.472Z" fill="#DEEFF3"/>
<path d="M292.473 392.838C292.735 392.776 293.017 392.776 293.278 392.859L356.016 409.038C357.465 409.431 357.727 411.438 356.439 412.224L300.867 445.657C300.625 445.802 300.343 445.885 300.082 445.885L32.8279 455.981C30.7749 456.063 30.3925 453.001 32.3851 452.546L292.473 392.838Z" fill="#DEEFF3"/>
<path d="M433.568 307.932C433.386 308.139 433.246 308.387 433.185 308.656L416.198 372.791C415.815 374.301 417.405 375.501 418.693 374.715L474.266 341.282C474.507 341.137 474.708 340.93 474.849 340.682L614.212 106.071C615.279 104.271 612.884 102.43 611.515 104.003L433.568 307.932Z" fill="#F7EFE1"/>
<path d="M329.81 321.731C330.051 321.876 330.233 322.104 330.373 322.352L362.054 377.963C362.819 379.287 361.652 380.901 360.182 380.529L298.632 364.578C298.35 364.516 298.129 364.371 297.908 364.185L99.5507 181.254C98.021 179.848 99.8123 177.365 101.563 178.482L329.81 321.731Z" fill="#F6E8E4"/>
<path d="M407.2 298.684C407.26 298.953 407.26 299.263 407.18 299.532L390.253 362.447C389.85 363.936 387.898 364.185 387.153 362.86L355.835 307.29C355.694 307.042 355.613 306.773 355.613 306.484L345.469 31.7366C345.388 29.6263 348.367 29.2332 348.81 31.2814L407.2 298.684Z" fill="#E6F1EE"/>
<path d="M460.015 489.269C459.774 489.124 459.593 488.896 459.452 488.648L427.771 433.037C427.006 431.713 428.173 430.099 429.643 430.471L491.193 446.422C491.475 446.484 491.696 446.629 491.917 446.815L690.274 629.725C691.804 631.132 690.013 633.614 688.262 632.497L460.015 489.269Z" fill="#F6E8E4"/>
<path d="M382.625 512.316C382.564 512.047 382.564 511.737 382.645 511.468L399.572 448.553C399.975 447.064 401.927 446.815 402.672 448.14L433.99 503.71C434.131 503.958 434.211 504.227 434.211 504.516L444.356 779.263C444.436 781.374 441.457 781.767 441.015 779.719L382.625 512.316Z" fill="#E6F1EE"/>
</svg>
