<svg width="316" height="255" viewBox="0 0 316 255" fill="none" xmlns="http://www.w3.org/2000/svg">
<g opacity="0.25">
<path d="M176.59 243.31C176.68 243.21 176.75 243.09 176.78 242.96L185.22 211.96C185.41 211.23 184.62 210.65 183.98 211.03L156.37 227.19C156.25 227.26 156.15 227.36 156.08 227.48L86.8402 340.88C86.3102 341.75 87.5002 342.64 88.1802 341.88L176.59 243.31Z" fill="#F5871F"/>
<path d="M246.69 202.27C246.56 202.3 246.42 202.3 246.29 202.26L215.12 194.44C214.4 194.25 214.27 193.28 214.91 192.9L242.52 176.74C242.64 176.67 242.78 176.63 242.91 176.63L375.69 171.76C376.71 171.72 376.9 173.2 375.91 173.42L246.69 202.27Z" fill="#0097AD"/>
<path d="M145.31 189.88C145.44 189.85 145.58 189.85 145.71 189.89L176.88 197.71C177.6 197.9 177.73 198.87 177.09 199.25L149.48 215.41C149.36 215.48 149.22 215.52 149.09 215.52L16.31 220.4C15.29 220.44 15.1 218.96 16.09 218.74L145.31 189.88Z" fill="#0097AD"/>
<path d="M215.41 148.84C215.32 148.94 215.25 149.06 215.22 149.19L206.78 180.19C206.59 180.92 207.38 181.5 208.02 181.12L235.63 164.96C235.75 164.89 235.85 164.79 235.92 164.67L305.16 51.2701C305.69 50.4001 304.5 49.5101 303.82 50.2701L215.41 148.84Z" fill="#F5871F"/>
<path d="M163.86 155.51C163.98 155.58 164.07 155.69 164.14 155.81L179.88 182.69C180.26 183.33 179.68 184.11 178.95 183.93L148.37 176.22C148.23 176.19 148.12 176.12 148.01 176.03L49.46 87.61C48.7 86.93 49.59 85.73 50.46 86.27L163.86 155.51Z" fill="#EE5026"/>
<path d="M202.31 144.37C202.34 144.5 202.34 144.65 202.3 144.78L193.89 175.19C193.69 175.91 192.72 176.03 192.35 175.39L176.79 148.53C176.72 148.41 176.68 148.28 176.68 148.14L171.64 15.3401C171.6 14.3201 173.08 14.1301 173.3 15.1201L202.31 144.37Z" fill="#38A07C"/>
<path d="M228.55 236.49C228.43 236.42 228.34 236.31 228.27 236.19L212.53 209.31C212.15 208.67 212.73 207.89 213.46 208.07L244.04 215.78C244.18 215.81 244.29 215.88 244.4 215.97L342.95 304.38C343.71 305.06 342.82 306.26 341.95 305.72L228.55 236.49Z" fill="#EE5026"/>
<path d="M190.1 247.63C190.07 247.5 190.07 247.35 190.11 247.22L198.52 216.81C198.72 216.09 199.69 215.97 200.06 216.61L215.62 243.47C215.69 243.59 215.73 243.72 215.73 243.86L220.77 376.66C220.81 377.68 219.33 377.87 219.11 376.88L190.1 247.63Z" fill="#38A07C"/>
</g>
</svg>
