<svg width="757" height="722" viewBox="0 0 757 722" fill="none" xmlns="http://www.w3.org/2000/svg">
<g opacity="0.3">
<path d="M605.6 288.808L757 361L605.6 433.191L605.6 288.808Z" fill="#A5E6F5"/>
<path d="M454.2 216.572L605.6 288.805L454.2 360.997L454.2 216.572Z" fill="#84D9EA"/>
<path d="M605.6 433.191L454.2 361L605.6 288.808L605.6 433.191Z" fill="#A3E3F1"/>
<path d="M454.2 360.999L605.6 433.191L454.2 505.382L454.2 360.999Z" fill="#C0EEF9"/>
<path d="M302.801 144.382L454.201 216.573L302.801 288.806L302.801 144.382Z" fill="#EFFAFE"/>
<path d="M454.201 360.997L302.801 288.805L454.201 216.572L454.201 360.997Z" fill="#E6F9FE"/>
<path d="M302.801 288.808L454.201 361L302.801 433.191L302.801 288.808Z" fill="#C1EBF4"/>
<path d="M454.201 505.382L302.801 433.191L454.201 360.999L454.201 505.382Z" fill="#EDFAFC"/>
<path d="M302.801 433.189L454.201 505.381L302.801 577.572L302.801 433.189Z" fill="#C0EAF6"/>
<path d="M151.4 72.1909L302.8 144.382L151.4 216.574L151.4 72.1909Z" fill="#C2EBF5"/>
<path d="M302.8 288.806L151.4 216.573L302.8 144.382L302.8 288.806Z" fill="#C8F0F8"/>
<path d="M151.401 216.572L302.801 288.805L151.401 360.997L151.401 216.572Z" fill="#CEF3FB"/>
<path d="M302.801 433.191L151.401 361L302.801 288.808L302.801 433.191Z" fill="#C8F1F7"/>
<path d="M151.4 360.999L302.8 433.191L151.4 505.382L151.4 360.999Z" fill="#EFFAFD"/>
<path d="M302.8 577.572L151.4 505.381L302.8 433.189L302.8 577.572Z" fill="#AEE2EE"/>
<path d="M151.4 505.38L302.8 577.571L151.4 649.804L151.4 505.38Z" fill="#D1EBF3"/>
<path d="M-4.673e-05 -5.4595e-06L151.4 72.1915L-5.43803e-05 144.383L-4.673e-05 -5.4595e-06Z" fill="#D1F1FB"/>
<path d="M151.4 216.574L-5.05552e-05 144.382L151.4 72.1909L151.4 216.574Z" fill="#72D7EC"/>
<path d="M-4.673e-05 144.382L151.4 216.573L-5.43825e-05 288.806L-4.673e-05 144.382Z" fill="#BAEBF5"/>
<path d="M151.4 360.997L-5.05574e-05 288.805L151.4 216.572L151.4 360.997Z" fill="#9EDDEA"/>
<path d="M-4.673e-05 288.808L151.4 361L-5.43803e-05 433.191L-4.673e-05 288.808Z" fill="#DAF4FC"/>
<path d="M151.4 505.382L-5.05552e-05 433.191L151.4 360.999L151.4 505.382Z" fill="#D5F2FA"/>
<path d="M-4.673e-05 433.189L151.4 505.381L-5.43803e-05 577.572L-4.673e-05 433.189Z" fill="#7ACFDD"/>
<path d="M151.4 649.804L-5.05552e-05 577.571L151.4 505.38L151.4 649.804Z" fill="#A7D9E5"/>
<path d="M-4.673e-05 577.575L151.4 649.808L-5.43825e-05 722L-4.673e-05 577.575Z" fill="#B1E0EB"/>
<mask id="mask0_2352_152" style="mask-type:alpha" maskUnits="userSpaceOnUse" x="0" y="0" width="757" height="722">
<path d="M605.6 288.808L757 361L605.6 433.191L605.6 288.808Z" fill="#A5E6F5"/>
<path d="M454.2 216.572L605.6 288.805L454.2 360.997L454.2 216.572Z" fill="#84D9EA"/>
<path d="M605.6 433.191L454.2 361L605.6 288.808L605.6 433.191Z" fill="#A3E3F1"/>
<path d="M454.2 360.999L605.6 433.191L454.2 505.382L454.2 360.999Z" fill="#C0EEF9"/>
<path d="M302.801 144.382L454.201 216.573L302.801 288.806L302.801 144.382Z" fill="#EFFAFE"/>
<path d="M454.201 360.997L302.801 288.805L454.201 216.572L454.201 360.997Z" fill="#E6F9FE"/>
<path d="M302.801 288.808L454.201 361L302.801 433.191L302.801 288.808Z" fill="#C1EBF4"/>
<path d="M454.201 505.382L302.801 433.191L454.201 360.999L454.201 505.382Z" fill="#EDFAFC"/>
<path d="M302.801 433.189L454.201 505.381L302.801 577.572L302.801 433.189Z" fill="#C0EAF6"/>
<path d="M151.4 72.1909L302.8 144.382L151.4 216.574L151.4 72.1909Z" fill="#C2EBF5"/>
<path d="M302.8 288.806L151.4 216.573L302.8 144.382L302.8 288.806Z" fill="#C8F0F8"/>
<path d="M151.401 216.572L302.801 288.805L151.401 360.997L151.401 216.572Z" fill="#CEF3FB"/>
<path d="M302.801 433.191L151.401 361L302.801 288.808L302.801 433.191Z" fill="#C8F1F7"/>
<path d="M151.4 360.999L302.8 433.191L151.4 505.382L151.4 360.999Z" fill="#EFFAFD"/>
<path d="M302.8 577.572L151.4 505.381L302.8 433.189L302.8 577.572Z" fill="#AEE2EE"/>
<path d="M151.4 505.38L302.8 577.571L151.4 649.804L151.4 505.38Z" fill="#D1EBF3"/>
<path d="M-4.673e-05 -5.4595e-06L151.4 72.1915L-5.43803e-05 144.383L-4.673e-05 -5.4595e-06Z" fill="#D1F1FB"/>
<path d="M151.4 216.574L-5.05552e-05 144.382L151.4 72.1909L151.4 216.574Z" fill="#72D7EC"/>
<path d="M-4.673e-05 144.382L151.4 216.573L-5.43825e-05 288.806L-4.673e-05 144.382Z" fill="#BAEBF5"/>
<path d="M151.4 360.997L-5.05574e-05 288.805L151.4 216.572L151.4 360.997Z" fill="#9EDDEA"/>
<path d="M-4.673e-05 288.808L151.4 361L-5.43803e-05 433.191L-4.673e-05 288.808Z" fill="#DAF4FC"/>
<path d="M151.4 505.382L-5.05552e-05 433.191L151.4 360.999L151.4 505.382Z" fill="#D5F2FA"/>
<path d="M-4.673e-05 433.189L151.4 505.381L-5.43803e-05 577.572L-4.673e-05 433.189Z" fill="#7ACFDD"/>
<path d="M151.4 649.804L-5.05552e-05 577.571L151.4 505.38L151.4 649.804Z" fill="#A7D9E5"/>
<path d="M-4.673e-05 577.575L151.4 649.808L-5.43825e-05 722L-4.673e-05 577.575Z" fill="#B1E0EB"/>
</mask>
<g mask="url(#mask0_2352_152)">
<rect x="-2.32632" y="5.75732" width="779.321" height="721.592" fill="url(#paint0_linear_2352_152)"/>
</g>
</g>
<defs>
<linearGradient id="paint0_linear_2352_152" x1="605.87" y1="113.047" x2="101.701" y2="678.499" gradientUnits="userSpaceOnUse">
<stop stop-color="white"/>
<stop offset="1" stop-color="white" stop-opacity="0"/>
</linearGradient>
</defs>
</svg>
