<svg width="50" height="39" viewBox="0 0 50 39" fill="none" xmlns="http://www.w3.org/2000/svg">
<path opacity="0.3" d="M11.0913 38.4728C7.97184 38.4728 5.31456 37.433 3.11942 35.3534C1.03981 33.1583 0 30.501 0 27.3816C0 25.533 0.346602 23.7422 1.03981 22.0092C1.84854 20.2762 3.06165 18.1966 4.67913 15.7704L15.5971 0L22.5291 4.50583L14.0374 17.5034C16.117 17.85 17.9655 18.9476 19.583 20.7961C21.2005 22.5291 22.0092 24.7243 22.0092 27.3816C22.0092 30.501 20.9117 33.1583 18.7165 35.3534C16.6369 37.433 14.0951 38.4728 11.0913 38.4728ZM38.5621 38.4728C35.4427 38.4728 32.7854 37.433 30.5903 35.3534C28.5107 33.1583 27.4709 30.501 27.4709 27.3816C27.4709 25.533 27.8175 23.7422 28.5107 22.0092C29.3194 20.2762 30.5325 18.1966 32.15 15.7704L43.068 0L50 4.50583L41.5083 17.5034C43.5879 17.85 45.4364 18.9476 47.0539 20.7961C48.6714 22.5291 49.4801 24.7243 49.4801 27.3816C49.4801 30.501 48.3825 33.1583 46.1874 35.3534C44.1078 37.433 41.566 38.4728 38.5621 38.4728Z" fill="#0098AE"/>
</svg>
