<svg width="12" height="10" viewBox="0 0 12 10" fill="#f97352" xmlns="http://www.w3.org/2000/svg">
    <path d="M9.29107 0.804331L9.29105 0.804347L3.96575 6.44439L2.10575 4.47447C2.10575 4.47447 2.10574 4.47446 2.10574 4.47446C1.75741 4.10552 1.18227 4.10564 0.833987 4.47443L0.833972 4.47444C0.498488 4.82972 0.498508 5.39633 0.833958 5.7516L1.13762 5.46488L0.83396 5.7516L3.32982 8.39491C3.32984 8.39493 3.32985 8.39494 3.32987 8.39496C3.67822 8.76395 4.2536 8.76357 4.60165 8.39496L10.5628 2.08152C10.8983 1.72623 10.8982 1.15961 10.5629 0.804361C10.2145 0.435433 9.63938 0.435477 9.29107 0.804331Z" stroke="#f97352" stroke-width="0.83527"/>
</svg>
