<svg width="55" height="59" viewBox="0 0 55 59" fill="none" xmlns="http://www.w3.org/2000/svg">
<g clip-path="url(#clip0_134_817)">
<path d="M27.5016 36.013C26.1886 36.0133 24.9049 35.6361 23.813 34.9291C22.7211 34.222 21.8699 33.2169 21.3672 32.0408C20.8645 30.8647 20.7328 29.5705 20.9887 28.3218C21.2447 27.0731 21.8768 25.9261 22.8051 25.0257C23.7334 24.1254 24.9162 23.5122 26.204 23.2637C27.4917 23.0152 28.8266 23.1426 30.0397 23.6297C31.2528 24.1168 32.2897 24.9418 33.0192 26.0003C33.7487 27.0588 34.1381 28.3033 34.1381 29.5764C34.1361 31.2826 33.4364 32.9184 32.1922 34.125C30.9481 35.3317 29.2612 36.0106 27.5016 36.013ZM27.5016 24.9184C26.5513 24.9181 25.6224 25.191 24.8321 25.7026C24.0418 26.2142 23.4258 26.9416 23.0619 27.7927C22.698 28.6438 22.6026 29.5804 22.7878 30.4841C22.9729 31.3878 23.4303 32.2179 24.1021 32.8695C24.7739 33.5211 25.6299 33.9649 26.5618 34.1448C27.4938 34.3247 28.4598 34.2325 29.3377 33.88C30.2157 33.5275 30.9661 32.9305 31.494 32.1645C32.022 31.3984 32.3038 30.4978 32.3038 29.5764C32.3023 28.3418 31.796 27.1581 30.8957 26.2849C29.9955 25.4117 28.7749 24.9203 27.5016 24.9184Z" fill="#F6881B"/>
<path d="M47.8638 24.9185C46.5514 24.9171 45.2688 24.5385 44.1782 23.8305C43.0875 23.1226 42.2378 22.117 41.7364 20.941C41.235 19.765 41.1044 18.4712 41.361 17.2232C41.6177 15.9752 42.2502 14.829 43.1785 13.9294C44.1068 13.0298 45.2893 12.4172 46.5765 12.169C47.8638 11.9208 49.1981 12.0482 50.4107 12.535C51.6233 13.0219 52.6599 13.8463 53.3895 14.9042C54.119 15.962 54.5088 17.2058 54.5095 18.4784C54.5093 19.3244 54.3372 20.162 54.0031 20.9434C53.669 21.7249 53.1794 22.435 52.5623 23.033C51.9452 23.631 51.2126 24.1053 50.4065 24.4288C49.6003 24.7523 48.7363 24.9187 47.8638 24.9185ZM47.8638 13.8257C46.9138 13.8271 45.9855 14.1017 45.1963 14.6146C44.4071 15.1275 43.7925 15.8558 43.4302 16.7073C43.0679 17.5589 42.9741 18.4955 43.1608 19.3988C43.3474 20.302 43.8061 21.1313 44.4788 21.7818C45.1515 22.4323 46.008 22.8748 46.94 23.0534C47.8721 23.2319 48.8378 23.1385 49.7151 22.7849C50.5924 22.4314 51.3419 21.8335 51.8688 21.0669C52.3956 20.3004 52.6763 19.3996 52.6752 18.4784C52.6728 17.243 52.1647 16.0591 51.2625 15.1867C50.3604 14.3143 49.138 13.8248 47.8638 13.8257Z" fill="#F6881B"/>
<path d="M7.13828 24.9185C5.82526 24.9185 4.54173 24.541 3.45002 23.8336C2.35831 23.1263 1.50747 22.1209 1.00508 20.9447C0.502695 19.7685 0.371339 18.4742 0.62763 17.2256C0.88392 15.977 1.51634 14.8301 2.44491 13.93C3.37348 13.0299 4.55649 12.417 5.84433 12.1689C7.13216 11.9207 8.46696 12.0484 9.67992 12.5359C10.8929 13.0233 11.9295 13.8486 12.6587 14.9073C13.3879 15.966 13.777 17.2106 13.7766 18.4837C13.7747 20.1901 13.0746 21.826 11.83 23.0323C10.5855 24.2387 8.89811 24.9171 7.13828 24.9185ZM7.13828 13.8257C6.18813 13.8257 5.25931 14.0989 4.4693 14.6107C3.67928 15.1226 3.06353 15.8501 2.69993 16.7012C2.33632 17.5523 2.24119 18.4889 2.42655 19.3925C2.61192 20.296 3.06945 21.126 3.74131 21.7774C4.41316 22.4289 5.26917 22.8725 6.20107 23.0522C7.13296 23.232 8.09888 23.1397 8.9767 22.7872C9.85452 22.4346 10.6048 21.8376 11.1327 21.0716C11.6606 20.3056 11.9423 19.405 11.9423 18.4837C11.9408 17.2488 11.4343 16.0648 10.5336 15.1916C9.63302 14.3184 8.41194 13.8271 7.13828 13.8257Z" fill="#F6881B"/>
<path d="M47.8635 47.1129C46.551 47.1126 45.2681 46.7349 44.177 46.0276C43.0859 45.3203 42.2355 44.3152 41.7335 43.1394C41.2315 41.9636 41.1003 40.6698 41.3566 39.4217C41.6129 38.1736 42.2451 37.0272 43.1733 36.1275C44.1015 35.2277 45.284 34.6151 46.5713 34.3669C47.8586 34.1188 49.1929 34.2463 50.4055 34.7334C51.618 35.2205 52.6544 36.0452 53.3836 37.1034C54.1127 38.1615 54.5019 39.4056 54.5019 40.6782C54.4999 42.3845 53.7999 44.0204 52.5553 45.2268C51.3107 46.4332 49.6234 47.1115 47.8635 47.1129ZM47.8635 36.0219C46.9138 36.0223 45.9856 36.2957 45.1961 36.8075C44.4066 37.3194 43.7914 38.0467 43.4282 38.8975C43.065 39.7484 42.9702 40.6845 43.1557 41.5876C43.3412 42.4907 43.7987 43.3202 44.4704 43.9712C45.142 44.6222 45.9977 45.0655 46.9292 45.245C47.8607 45.4246 48.8261 45.3322 49.7035 44.9798C50.5809 44.6273 51.3308 44.0305 51.8584 43.2648C52.386 42.4992 52.6676 41.599 52.6676 40.6782C52.6683 40.0659 52.5446 39.4596 52.3035 38.8937C52.0624 38.3279 51.7087 37.8136 51.2626 37.3804C50.8164 36.9471 50.2866 36.6034 49.7034 36.3688C49.1202 36.1342 48.495 36.0133 47.8635 36.013V36.0219Z" fill="#F6881B"/>
<path d="M7.1386 47.1129C5.8261 47.1126 4.54319 46.7349 3.45206 46.0276C2.36093 45.3203 1.5106 44.3152 1.00858 43.1394C0.506559 41.9636 0.375386 40.6698 0.631664 39.4217C0.887943 38.1736 1.52016 37.0272 2.44837 36.1275C3.37657 35.2277 4.55909 34.6151 5.84639 34.3669C7.1337 34.1188 8.46798 34.2463 9.68054 34.7334C10.8931 35.2205 11.9295 36.0452 12.6586 37.1034C13.3878 38.1615 13.7769 39.4056 13.7769 40.6782C13.775 42.3845 13.0749 44.0204 11.8304 45.2268C10.5858 46.4332 8.89843 47.1115 7.1386 47.1129ZM7.1386 36.0219C6.18889 36.0223 5.26061 36.2957 4.47114 36.8075C3.68166 37.3194 3.06643 38.0467 2.70325 38.8975C2.34006 39.7484 2.24522 40.6845 2.43072 41.5876C2.61622 42.4907 3.07374 43.3202 3.74541 43.9712C4.41708 44.6222 5.27277 45.0655 6.20425 45.245C7.13574 45.4246 8.10121 45.3322 8.97859 44.9798C9.85597 44.6273 10.6059 44.0305 11.1334 43.2648C11.661 42.4992 11.9426 41.599 11.9426 40.6782C11.9431 40.066 11.8192 39.4597 11.5781 38.894C11.3369 38.3282 10.9832 37.8141 10.5371 37.3809C10.091 36.9477 9.56125 36.604 8.97814 36.3693C8.39503 36.1346 7.76996 36.0135 7.1386 36.013V36.0219Z" fill="#F6881B"/>
<path d="M42.8856 38.841C42.7282 38.841 42.5735 38.8018 42.4362 38.7271L32.0357 33.0696C31.9307 33.0124 31.8384 32.9356 31.7639 32.8438C31.6895 32.752 31.6344 32.6468 31.6019 32.5343C31.5693 32.4219 31.56 32.3043 31.5743 32.1883C31.5886 32.0723 31.6264 31.9602 31.6854 31.8584C31.7444 31.7566 31.8235 31.667 31.9183 31.5948C32.013 31.5226 32.1214 31.4693 32.2374 31.4377C32.3534 31.4062 32.4747 31.3971 32.5943 31.411C32.7139 31.4249 32.8295 31.4615 32.9346 31.5187L43.335 37.1762C43.5119 37.2725 43.651 37.423 43.7303 37.6041C43.8096 37.7851 43.8247 37.9866 43.7733 38.1769C43.722 38.3672 43.607 38.5356 43.4463 38.6558C43.2857 38.7759 43.0885 38.8411 42.8856 38.841Z" fill="#F6881B"/>
<path d="M12.1168 38.841C11.914 38.8411 11.7168 38.7759 11.5561 38.6558C11.3955 38.5356 11.2805 38.3672 11.2291 38.1769C11.1778 37.9866 11.1929 37.7851 11.2722 37.6041C11.3515 37.423 11.4905 37.2725 11.6674 37.1762L22.0679 31.5187C22.1729 31.4615 22.2886 31.4249 22.4082 31.411C22.5278 31.3971 22.6491 31.4062 22.7651 31.4377C22.8811 31.4693 22.9895 31.5226 23.0842 31.5948C23.1789 31.667 23.2581 31.7566 23.3171 31.8584C23.3761 31.9602 23.4138 32.0723 23.4282 32.1883C23.4425 32.3043 23.4331 32.4219 23.4006 32.5343C23.3681 32.6468 23.313 32.752 23.2386 32.8438C23.1641 32.9356 23.0718 33.0124 22.9667 33.0696L12.5681 38.7271C12.4303 38.8021 12.2749 38.8413 12.1168 38.841Z" fill="#F6881B"/>
<path d="M32.4842 27.7482C32.2813 27.7483 32.0841 27.6832 31.9235 27.563C31.7629 27.4428 31.6479 27.2744 31.5965 27.0841C31.5451 26.8938 31.5603 26.6923 31.6396 26.5113C31.7189 26.3302 31.8579 26.1798 32.0348 26.0835L42.4353 20.4259C42.5403 20.3687 42.656 20.3321 42.7756 20.3182C42.8952 20.3043 43.0164 20.3134 43.1324 20.3449C43.2484 20.3765 43.3569 20.4299 43.4516 20.5021C43.5463 20.5742 43.6254 20.6638 43.6845 20.7656C43.7435 20.8675 43.7812 20.9796 43.7956 21.0955C43.8099 21.2115 43.8005 21.3291 43.768 21.4416C43.7355 21.554 43.6804 21.6592 43.606 21.751C43.5315 21.8429 43.4391 21.9196 43.3341 21.9768L32.9336 27.6344C32.7964 27.7091 32.6416 27.7483 32.4842 27.7482Z" fill="#F6881B"/>
<path d="M27.6589 13.4451C26.6414 13.4435 25.6379 13.2152 24.7258 12.7777C23.8138 12.3403 23.0177 11.7054 22.3991 10.9221C21.7804 10.1389 21.3557 9.2282 21.1578 8.26046C20.9599 7.29272 20.9941 6.29382 21.2577 5.34094C21.5213 4.38805 22.0073 3.50667 22.6782 2.76489C23.349 2.02312 24.1868 1.44079 25.1267 1.06291C26.0666 0.685017 27.0835 0.521675 28.0989 0.585509C29.1143 0.649344 30.1009 0.938645 30.9826 1.43105C32.2507 2.13846 33.2422 3.23233 33.8029 4.54255C34.3635 5.85276 34.462 7.30589 34.0829 8.67596C33.7038 10.046 32.8684 11.2562 31.7067 12.1184C30.5449 12.9806 29.1219 13.4463 27.6589 13.4433V13.4451ZM27.6827 2.35411C26.5174 2.35239 25.3912 2.76175 24.5142 3.50584C23.6373 4.24992 23.0694 5.27792 22.9165 6.39807C22.7637 7.51822 23.0363 8.65404 23.6836 9.59365C24.3308 10.5333 25.3084 11.2125 26.4341 11.5047C27.5598 11.7969 28.7567 11.682 29.8015 11.1816C30.8463 10.6812 31.6677 9.82931 32.1125 8.78493C32.5572 7.74054 32.5949 6.57495 32.2186 5.50557C31.8423 4.43619 31.0777 3.53604 30.0673 2.97304C29.3415 2.56908 28.5196 2.35575 27.6827 2.35411Z" fill="#F6881B"/>
<path d="M27.6848 58.5774C26.0735 58.5794 24.5164 58.013 23.304 56.984C22.0916 55.9549 21.3066 54.5334 21.0954 52.9845C20.8842 51.4357 21.2612 49.8652 22.1561 48.566C23.0511 47.2668 24.4029 46.3275 25.9593 45.9234C27.5158 45.5193 29.1708 45.6779 30.6156 46.3696C32.0603 47.0613 33.1964 48.239 33.8117 49.6829C34.427 51.1269 34.4797 52.7385 33.9599 54.2173C33.4401 55.6961 32.3833 56.9411 30.9865 57.7202C29.9823 58.2812 28.8438 58.5768 27.6848 58.5774ZM27.6628 47.4864C26.6064 47.4888 25.5803 47.8288 24.7434 48.4539C23.9065 49.0789 23.3055 49.954 23.0335 50.9438C22.7615 51.9335 22.8337 52.9826 23.2389 53.9286C23.6441 54.8745 24.3596 55.6645 25.2747 56.1762C26.1898 56.6879 27.2534 56.8927 28.3008 56.759C29.3481 56.6253 30.3208 56.1605 31.068 55.4365C31.8153 54.7125 32.2956 53.7698 32.4344 52.7544C32.5732 51.739 32.3628 50.7076 31.8358 49.8199C31.4164 49.1068 30.8089 48.5149 30.0755 48.1048C29.3421 47.6947 28.5094 47.4813 27.6628 47.4864Z" fill="#F6881B"/>
<path d="M27.4918 25.0021C27.3704 25.0022 27.2503 24.9788 27.1383 24.9334C27.0263 24.8881 26.9247 24.8216 26.8394 24.7379C26.7541 24.6542 26.6867 24.5549 26.6413 24.4458C26.5958 24.3367 26.5732 24.2199 26.5747 24.1022L26.7031 12.5417C26.706 12.3077 26.8039 12.0842 26.9755 11.9197C27.1472 11.7553 27.3789 11.6631 27.6202 11.6631C27.8635 11.6631 28.0967 11.7568 28.2687 11.9235C28.4407 12.0903 28.5374 12.3165 28.5374 12.5524L28.4089 24.1129C28.4089 24.3487 28.3123 24.5749 28.1403 24.7417C27.9683 24.9084 27.735 25.0021 27.4918 25.0021Z" fill="#F6881B"/>
<path d="M27.6202 47.4918C27.3789 47.4918 27.1472 47.3995 26.9755 47.2351C26.8039 47.0706 26.706 46.8471 26.7031 46.6132L26.5747 35.0526C26.5732 34.935 26.5958 34.8182 26.6413 34.7091C26.6867 34.5999 26.7541 34.5006 26.8394 34.4169C26.9247 34.3332 27.0263 34.2668 27.1383 34.2214C27.2503 34.176 27.3704 34.1527 27.4918 34.1527C27.735 34.1527 27.9683 34.2464 28.1403 34.4132C28.3123 34.5799 28.409 34.8061 28.409 35.042L28.5374 46.6025C28.5386 46.72 28.5157 46.8366 28.4702 46.9455C28.4246 47.0544 28.3573 47.1535 28.272 47.2371C28.1867 47.3206 28.0852 47.3869 27.9733 47.4321C27.8615 47.4774 27.7414 47.5007 27.6202 47.5007V47.4918Z" fill="#F6881B"/>
<path d="M22.5172 27.7481C22.3598 27.7482 22.2051 27.709 22.0678 27.6343L11.6673 21.9768C11.5623 21.9194 11.47 21.8426 11.3956 21.7507C11.3212 21.6587 11.2662 21.5534 11.2337 21.4409C11.2013 21.3283 11.192 21.2107 11.2064 21.0947C11.2209 20.9786 11.2588 20.8665 11.3179 20.7647C11.377 20.6629 11.4563 20.5733 11.5511 20.5012C11.6459 20.429 11.7545 20.3757 11.8706 20.3443C11.9867 20.3128 12.108 20.3038 12.2276 20.3178C12.3473 20.3318 12.4629 20.3685 12.568 20.4259L22.9666 26.0834C23.1435 26.1797 23.2825 26.3302 23.3618 26.5112C23.4411 26.6923 23.4563 26.8937 23.4049 27.084C23.3536 27.2744 23.2385 27.4428 23.0779 27.5629C22.9173 27.6831 22.7201 27.7482 22.5172 27.7481Z" fill="#F6881B"/>
</g>
<defs>
<clipPath id="clip0_134_817">
<rect width="54" height="58" fill="white" transform="translate(0.5 0.577393)"/>
</clipPath>
</defs>
</svg>
