<svg width="73" height="56" viewBox="0 0 73 56" fill="none" xmlns="http://www.w3.org/2000/svg">
<path opacity="0.4" d="M56.6031 -2.28882e-05C61.1411 -2.28882e-05 65.0068 1.49406 68.2003 4.48222C71.2256 7.6364 72.7383 11.4546 72.7383 15.9369C72.7383 18.593 72.2341 21.1662 71.2256 23.6563C70.0491 26.1464 68.2843 29.1346 65.9312 32.6208L50.0482 55.2811L39.9637 48.8067L52.3172 30.1307C49.2918 29.6326 46.6026 28.0555 44.2496 25.3994C41.8965 22.9092 40.72 19.7551 40.72 15.9369C40.72 11.4546 42.3167 7.6364 45.5102 4.48222C48.5355 1.49406 52.2331 -2.28882e-05 56.6031 -2.28882e-05ZM16.6394 -2.28882e-05C21.1774 -2.28882e-05 25.0431 1.49406 28.2366 4.48222C31.2619 7.6364 32.7746 11.4546 32.7746 15.9369C32.7746 18.593 32.2704 21.1662 31.2619 23.6563C30.0854 26.1464 28.3206 29.1346 25.9676 32.6208L10.0845 55.2811L0 48.8067L12.3535 30.1307C9.32814 29.6326 6.63895 28.0555 4.2859 25.3994C1.93286 22.9092 0.75634 19.7551 0.75634 15.9369C0.75634 11.4546 2.35304 7.6364 5.54646 4.48222C8.57182 1.49406 12.2695 -2.28882e-05 16.6394 -2.28882e-05Z" fill="#0098AE"/>
</svg>
