<svg width="693" height="672" viewBox="0 0 693 672" fill="none" xmlns="http://www.w3.org/2000/svg">
<g opacity="0.1">
<path d="M355.559 258.521L342.77 306.348L318.124 263.451L309.537 53.3906L355.559 258.521Z" fill="#0095B0"/>
<path d="M298.197 274.974L322.949 317.809L275.218 304.994L120.939 162.492L298.197 274.974Z" fill="#F39200"/>
<path d="M269.296 327.146L317.027 339.962L274.216 364.658L64.5799 373.262L269.296 327.146Z" fill="#4DA880"/>
<path d="M395.057 397.102L370.305 354.266L418.036 367.081L572.337 509.499L395.057 397.102Z" fill="#F39200"/>
<path d="M423.958 344.937L376.226 332.121L419.06 307.341L628.674 298.821L423.958 344.937Z" fill="#4DA880"/>
<path d="M407.619 287.479L364.87 312.282L377.66 264.454L519.79 109.841L407.619 287.479Z" fill="#E94E1B"/>
<path d="M337.343 413.68L350.133 365.852L374.779 408.749L383.365 618.809L337.343 413.68Z" fill="#0095B0"/>
<path d="M285.66 384.511L328.493 359.731L315.704 407.559L173.489 562.149L285.66 384.511Z" fill="#E94E1B"/>
</g>
</svg>
