<svg width="677" height="646" viewBox="0 0 677 646" fill="none" xmlns="http://www.w3.org/2000/svg">
<g opacity="0.3">
<path d="M135.4 258.375L3.4209e-06 322.96L135.4 387.544L135.4 258.375Z" fill="#A5E6F5"/>
<path d="M270.8 193.751L135.4 258.373L270.8 322.957L270.8 193.751Z" fill="#84D9EA"/>
<path d="M135.4 387.544L270.8 322.96L135.4 258.375L135.4 387.544Z" fill="#A3E3F1"/>
<path d="M270.8 322.959L135.4 387.543L270.8 452.128L270.8 322.959Z" fill="#C0EEF9"/>
<path d="M406.199 129.168L270.799 193.752L406.199 258.374L406.199 129.168Z" fill="#EFFAFE"/>
<path d="M270.799 322.957L406.199 258.373L270.799 193.751L270.799 322.957Z" fill="#E6F9FE"/>
<path d="M406.199 258.375L270.799 322.96L406.199 387.544L406.199 258.375Z" fill="#C1EBF4"/>
<path d="M270.799 452.128L406.199 387.543L270.799 322.959L270.799 452.128Z" fill="#EDFAFC"/>
<path d="M406.199 387.543L270.799 452.127L406.199 516.711L406.199 387.543Z" fill="#C0EAF6"/>
<path d="M541.6 64.5836L406.2 129.168L541.6 193.752L541.6 64.5836Z" fill="#C2EBF5"/>
<path d="M406.2 258.374L541.6 193.752L406.2 129.168L406.2 258.374Z" fill="#C8F0F8"/>
<path d="M541.599 193.751L406.199 258.373L541.599 322.957L541.599 193.751Z" fill="#CEF3FB"/>
<path d="M406.199 387.544L541.599 322.96L406.199 258.375L406.199 387.544Z" fill="#C8F1F7"/>
<path d="M541.6 322.959L406.2 387.543L541.6 452.128L541.6 322.959Z" fill="#EFFAFD"/>
<path d="M406.2 516.711L541.6 452.127L406.2 387.543L406.2 516.711Z" fill="#AEE2EE"/>
<path d="M541.6 452.127L406.2 516.711L541.6 581.333L541.6 452.127Z" fill="#D1EBF3"/>
<path d="M677 -4.88421e-06L541.6 64.5844L677 129.169L677 -4.88421e-06Z" fill="#D1F1FB"/>
<path d="M541.6 193.752L677 129.168L541.6 64.5836L541.6 193.752Z" fill="#72D7EC"/>
<path d="M677 129.168L541.6 193.752L677 258.374L677 129.168Z" fill="#BAEBF5"/>
<path d="M541.6 322.957L677 258.373L541.6 193.751L541.6 322.957Z" fill="#9EDDEA"/>
<path d="M677 258.375L541.6 322.96L677 387.544L677 258.375Z" fill="#DAF4FC"/>
<path d="M541.6 452.128L677 387.543L541.6 322.959L541.6 452.128Z" fill="#D5F2FA"/>
<path d="M677 387.543L541.6 452.127L677 516.711L677 387.543Z" fill="#7ACFDD"/>
<path d="M541.6 581.333L677 516.711L541.6 452.127L541.6 581.333Z" fill="#A7D9E5"/>
<path d="M677 516.714L541.6 581.336L677 645.92L677 516.714Z" fill="#B1E0EB"/>
<mask id="mask0_1334_7749" style="mask-type:alpha" maskUnits="userSpaceOnUse" x="0" y="0" width="678" height="646">
<path d="M135.4 258.375L3.4209e-06 322.96L135.4 387.544L135.4 258.375Z" fill="#A5E6F5"/>
<path d="M270.8 193.751L135.4 258.373L270.8 322.957L270.8 193.751Z" fill="#84D9EA"/>
<path d="M135.4 387.544L270.8 322.96L135.4 258.375L135.4 387.544Z" fill="#A3E3F1"/>
<path d="M270.8 322.959L135.4 387.543L270.8 452.128L270.8 322.959Z" fill="#C0EEF9"/>
<path d="M406.199 129.168L270.799 193.752L406.199 258.374L406.199 129.168Z" fill="#EFFAFE"/>
<path d="M270.799 322.957L406.199 258.373L270.799 193.751L270.799 322.957Z" fill="#E6F9FE"/>
<path d="M406.199 258.375L270.799 322.96L406.199 387.544L406.199 258.375Z" fill="#C1EBF4"/>
<path d="M270.799 452.128L406.199 387.543L270.799 322.959L270.799 452.128Z" fill="#EDFAFC"/>
<path d="M406.199 387.543L270.799 452.127L406.199 516.711L406.199 387.543Z" fill="#C0EAF6"/>
<path d="M541.6 64.5836L406.2 129.168L541.6 193.752L541.6 64.5836Z" fill="#C2EBF5"/>
<path d="M406.2 258.374L541.6 193.752L406.2 129.168L406.2 258.374Z" fill="#C8F0F8"/>
<path d="M541.599 193.751L406.199 258.373L541.599 322.957L541.599 193.751Z" fill="#CEF3FB"/>
<path d="M406.199 387.544L541.599 322.96L406.199 258.375L406.199 387.544Z" fill="#C8F1F7"/>
<path d="M541.6 322.959L406.2 387.543L541.6 452.128L541.6 322.959Z" fill="#EFFAFD"/>
<path d="M406.2 516.711L541.6 452.127L406.2 387.543L406.2 516.711Z" fill="#AEE2EE"/>
<path d="M541.6 452.127L406.2 516.711L541.6 581.333L541.6 452.127Z" fill="#D1EBF3"/>
<path d="M677 -4.88421e-06L541.6 64.5844L677 129.169L677 -4.88421e-06Z" fill="#D1F1FB"/>
<path d="M541.6 193.752L677 129.168L541.6 64.5836L541.6 193.752Z" fill="#72D7EC"/>
<path d="M677 129.168L541.6 193.752L677 258.374L677 129.168Z" fill="#BAEBF5"/>
<path d="M541.6 322.957L677 258.373L541.6 193.751L541.6 322.957Z" fill="#9EDDEA"/>
<path d="M677 258.375L541.6 322.96L677 387.544L677 258.375Z" fill="#DAF4FC"/>
<path d="M541.6 452.128L677 387.543L541.6 322.959L541.6 452.128Z" fill="#D5F2FA"/>
<path d="M677 387.543L541.6 452.127L677 516.711L677 387.543Z" fill="#7ACFDD"/>
<path d="M541.6 581.333L677 516.711L541.6 452.127L541.6 581.333Z" fill="#A7D9E5"/>
<path d="M677 516.714L541.6 581.336L677 645.92L677 516.714Z" fill="#B1E0EB"/>
</mask>
<g mask="url(#mask0_1334_7749)">
<rect width="696.962" height="645.556" transform="matrix(-1 0 0 1 679.081 5.15063)" fill="url(#paint0_linear_1334_7749)"/>
</g>
</g>
<defs>
<linearGradient id="paint0_linear_1334_7749" x1="543.922" y1="95.9841" x2="92.8619" y2="601.699" gradientUnits="userSpaceOnUse">
<stop stop-color="white"/>
<stop offset="1" stop-color="white" stop-opacity="0"/>
</linearGradient>
</defs>
</svg>
