<svg width="188" height="56" viewBox="0 0 188 56" fill="none" xmlns="http://www.w3.org/2000/svg">
<path d="M111.294 13.4622V16.8674L108.894 14.4536L104.584 0.674805L111.294 13.4622Z" fill="#0095B0"/>
<path d="M107.773 15.574L110.187 17.9735H106.782L93.9946 11.2637L107.773 15.574Z" fill="#F39200"/>
<path d="M106.782 19.5396H110.187L107.773 21.939L93.9946 26.2494L106.782 19.5396Z" fill="#4DA880"/>
<path d="M116.38 21.939L113.98 19.5396H117.371L130.159 26.2494L116.38 21.939Z" fill="#F39200"/>
<path d="M117.371 17.9735H113.98L116.38 15.574L130.159 11.2637L117.371 17.9735Z" fill="#4DA880"/>
<path d="M115.274 14.4536L112.86 16.8531L112.874 13.4622L119.57 0.674805L115.274 14.4536Z" fill="#E94E1B"/>
<path d="M9.15235 23.1893H0V49.0515H3.14657V38.1462H9.15235C10.1489 38.1482 11.1359 37.952 12.0558 37.569C12.9758 37.1859 13.8104 36.6236 14.511 35.915C15.2117 35.2063 15.7644 34.3654 16.1369 33.4411C16.5095 32.5168 16.6945 31.5277 16.6811 30.5312C16.6912 29.5458 16.5023 28.5684 16.1259 27.6576C15.7494 26.7468 15.1931 25.9213 14.4902 25.2305C13.7873 24.5397 12.9523 23.9978 12.0352 23.6372C11.118 23.2766 10.1375 23.1047 9.15235 23.1318V23.1893ZM3.14657 26.1347H8.76441C9.3638 26.0904 9.96583 26.172 10.5318 26.3742C11.0978 26.5764 11.6152 26.8948 12.0509 27.3088C12.4866 27.7228 12.8308 28.2234 13.0616 28.7783C13.2924 29.3333 13.4045 29.9304 13.3909 30.5312C13.4081 31.153 13.3016 31.772 13.0777 32.3523C12.8538 32.9327 12.5169 33.4628 12.0865 33.9119C11.6561 34.361 11.1408 34.7201 10.5706 34.9685C10.0003 35.2169 9.38636 35.3496 8.76441 35.3589H3.14657V26.1347Z" fill="#393A40"/>
<path d="M26.71 33.793C26.0808 33.6307 25.4344 33.5439 24.7847 33.5344C23.9421 33.5163 23.108 33.706 22.3562 34.087C21.6044 34.4679 20.9581 35.0282 20.4743 35.7183L20.2588 33.7786H17.6582V49.1092H20.7473V40.8476C20.7473 38.089 22.299 36.2212 24.6123 36.2212C25.174 36.2327 25.7328 36.3049 26.2789 36.4367H26.6525L27.0261 33.793H26.71Z" fill="#393A40"/>
<path d="M34.5257 33.4189C33.4711 33.3829 32.4206 33.5677 31.4416 33.9615C30.4626 34.3553 29.5767 34.9494 28.8408 35.7056C28.1048 36.4618 27.5351 37.3635 27.168 38.3529C26.801 39.3422 26.6449 40.3974 26.7096 41.4506C26.6449 42.5038 26.801 43.559 27.168 44.5483C27.5351 45.5377 28.1048 46.4394 28.8408 47.1956C29.5767 47.9518 30.4626 48.5459 31.4416 48.9397C32.4206 49.3335 33.4711 49.5183 34.5257 49.4823C35.5779 49.5142 36.6253 49.3264 37.6008 48.9308C38.5764 48.5352 39.4587 47.9405 40.1915 47.1847C40.9243 46.4289 41.4915 45.5286 41.8568 44.5413C42.2221 43.554 42.3775 42.5014 42.3131 41.4506C42.3775 40.3999 42.2221 39.3472 41.8568 38.3599C41.4915 37.3726 40.9243 36.4723 40.1915 35.7165C39.4587 34.9607 38.5764 34.3661 37.6008 33.9705C36.6253 33.5749 35.5779 33.387 34.5257 33.4189ZM34.5257 46.8529C31.7814 46.8529 29.8705 44.6259 29.8705 41.4506C29.8705 38.2753 31.7814 36.0483 34.5257 36.0483C37.27 36.0483 39.1665 38.2753 39.1665 41.4506C39.1665 44.6259 37.2556 46.8529 34.5257 46.8529Z" fill="#393A40"/>
<path d="M51.4944 36.1061C52.8264 36.1352 54.1166 36.577 55.1869 37.3704L55.4887 37.586L56.9254 35.3158L56.6381 35.1291C55.0617 34.0274 53.1876 33.4311 51.2645 33.4193C50.2194 33.404 49.1823 33.6037 48.2176 34.0059C47.2528 34.4081 46.381 35.0042 45.6562 35.7573C44.9314 36.5104 44.3691 37.4044 44.0041 38.3838C43.6392 39.3632 43.4793 40.4072 43.5346 41.4509C43.4663 42.4977 43.617 43.5473 43.9773 44.5326C44.3375 45.5178 44.8993 46.4171 45.6268 47.1729C46.3542 47.9288 47.2313 48.5246 48.2021 48.9222C49.1728 49.3199 50.2158 49.5108 51.2645 49.4826C53.19 49.472 55.0659 48.8702 56.6381 47.7585L56.9254 47.5717L55.4887 45.3159L55.1869 45.5171C54.1223 46.3268 52.8313 46.7839 51.4944 46.8245C50.8133 46.8196 50.1408 46.6731 49.5194 46.3944C48.898 46.1157 48.3413 45.7108 47.8847 45.2055C47.428 44.7003 47.0814 44.1056 46.8668 43.4592C46.6522 42.8129 46.5743 42.129 46.638 41.4509C46.638 38.2612 48.5921 36.1061 51.4944 36.1061Z" fill="#393A40"/>
<path d="M68.5205 42.3849C68.5581 42.9401 68.4806 43.497 68.2928 44.0208C68.105 44.5445 67.811 45.0238 67.4292 45.4286C67.0474 45.8333 66.586 46.1547 66.0741 46.3727C65.5622 46.5907 65.0107 46.7005 64.4543 46.6953C63.9952 46.7236 63.5351 46.6556 63.1037 46.4959C62.6723 46.3361 62.279 46.088 61.949 45.7674C61.619 45.4469 61.3595 45.061 61.1873 44.6344C61.015 44.2078 60.9337 43.7499 60.9486 43.2901V33.7211H57.8595V43.6206C57.8386 44.3933 57.9779 45.1619 58.2684 45.8782C58.559 46.5944 58.9946 47.2429 59.5479 47.7826C60.1011 48.3224 60.7601 48.7419 61.4833 49.0147C62.2065 49.2875 62.9784 49.4077 63.7503 49.3678C64.7225 49.3891 65.6864 49.1848 66.5664 48.771C67.4464 48.3572 68.2185 47.7451 68.8222 46.9827L69.0377 48.9942H71.6096V33.7786H68.4917L68.5205 42.3849Z" fill="#393A40"/>
<path d="M82.8309 33.7926C82.2016 33.6303 81.5553 33.5435 80.9056 33.534C80.0636 33.5196 79.2309 33.711 78.4797 34.0916C77.7285 34.4722 77.0816 35.0305 76.5952 35.7179L76.394 33.7782H73.7935V49.1088H76.8825V40.8472C76.8825 38.0886 78.4343 36.2207 80.7332 36.2207C81.2997 36.2313 81.8633 36.3036 82.4142 36.4363H82.7878L83.147 33.7926H82.8309Z" fill="#393A40"/>
<path d="M90.604 33.419C86.1931 33.419 83.1183 36.7236 83.1183 41.4507C83.0655 42.5132 83.2347 43.5751 83.6151 44.5687C83.9955 45.5622 84.5787 46.4656 85.3276 47.2213C86.0765 47.9769 86.9746 48.5682 87.9647 48.9575C88.9548 49.3468 90.0152 49.5255 91.0781 49.4823C93.0263 49.4355 94.938 48.9441 96.6673 48.0455L96.969 47.8875L95.9201 45.5742L95.5753 45.761C94.2595 46.5094 92.7783 46.9192 91.2649 46.9536C90.0003 46.9907 88.7698 46.5399 87.8283 45.6947C86.8868 44.8495 86.3065 43.6746 86.2074 42.4133H97.4719V42.0972C97.493 41.7959 97.493 41.4934 97.4719 41.192C97.4719 36.6231 94.5983 33.4334 90.4891 33.4334L90.604 33.419ZM90.4891 35.9765C92.6586 35.9765 94.2103 37.6432 94.4259 40.1719H86.1499C86.1799 39.0488 86.6472 37.9817 87.4524 37.1981C88.2575 36.4144 89.3368 35.9761 90.4603 35.9765" fill="#393A40"/>
<path d="M134.699 33.4192C133.849 33.4005 133.004 33.5654 132.223 33.9026C131.442 34.2398 130.743 34.7414 130.173 35.3732V27.1691L127.099 26.3789V49.1089H129.685L129.9 47.2986C130.479 48.0061 131.213 48.5711 132.045 48.9498C132.877 49.3285 133.785 49.5107 134.699 49.4825C138.722 49.4825 141.653 46.106 141.653 41.4508C141.653 36.7956 138.78 33.4192 134.699 33.4192ZM138.507 41.4508C138.507 44.6118 136.711 46.8244 134.196 46.8244C133.651 46.8337 133.109 46.7295 132.606 46.5183C132.103 46.3072 131.649 45.9937 131.274 45.5979C130.898 45.202 130.609 44.7324 130.424 44.2189C130.24 43.7053 130.164 43.159 130.202 42.6146V40.2726C130.164 39.7289 130.24 39.1833 130.424 38.6705C130.609 38.1576 130.898 37.6889 131.274 37.2942C131.65 36.8994 132.104 36.5873 132.607 36.3778C133.11 36.1683 133.651 36.0659 134.196 36.0772C136.725 36.0772 138.507 38.3474 138.507 41.4508Z" fill="#393A40"/>
<path d="M146.84 33.7783H143.751V49.1232H146.84V33.7783Z" fill="#393A40"/>
<path d="M145.303 27.9595C145.076 27.9516 144.849 27.9903 144.637 28.0732C144.425 28.1561 144.233 28.2816 144.071 28.4417C143.91 28.6019 143.783 28.7935 143.698 29.0046C143.613 29.2157 143.573 29.4419 143.579 29.6693C143.573 29.8967 143.613 30.1229 143.698 30.334C143.783 30.5451 143.91 30.7367 144.071 30.8968C144.233 31.057 144.425 31.1824 144.637 31.2653C144.849 31.3483 145.076 31.387 145.303 31.3791C145.523 31.3868 145.743 31.3502 145.95 31.2715C146.156 31.1928 146.344 31.0736 146.503 30.9209C146.663 30.7682 146.79 30.5852 146.877 30.3826C146.965 30.1799 147.011 29.9618 147.013 29.7411C147.021 29.5144 146.982 29.2885 146.899 29.0774C146.816 28.8664 146.69 28.6747 146.53 28.5143C146.369 28.3539 146.178 28.2282 145.967 28.1451C145.755 28.062 145.53 28.0233 145.303 28.0313" fill="#393A40"/>
<path d="M158.78 27.9739C158.546 27.9633 158.313 28.0021 158.095 28.0876C157.878 28.1731 157.681 28.3034 157.517 28.47C157.353 28.6367 157.226 28.836 157.144 29.055C157.062 29.274 157.027 29.5078 157.041 29.7411C157.035 29.9698 157.076 30.1972 157.162 30.4094C157.247 30.6215 157.376 30.8137 157.539 30.9741C157.702 31.1345 157.896 31.2596 158.11 31.3416C158.323 31.4236 158.551 31.4608 158.78 31.4509C159.005 31.4569 159.23 31.4167 159.439 31.3327C159.648 31.2488 159.838 31.1228 159.997 30.9626C160.156 30.8024 160.28 30.6114 160.363 30.4013C160.445 30.1913 160.483 29.9666 160.475 29.7411C160.481 29.5169 160.441 29.2938 160.358 29.0854C160.275 28.877 160.15 28.6877 159.992 28.5291C159.833 28.3705 159.644 28.2458 159.436 28.1627C159.227 28.0796 159.004 28.0398 158.78 28.0457" fill="#393A40"/>
<path d="M160.288 33.7783H157.213V49.1232H160.288V33.7783Z" fill="#393A40"/>
<path d="M184.786 33.7784L180.475 45.0285L176.021 33.7784H172.76L178.952 48.6492L178.248 50.4164C177.516 52.3561 176.812 53.0744 175.375 53.0744C174.889 53.0637 174.406 52.9913 173.938 52.8589L173.564 52.7584L173.105 55.3877H173.421C174.12 55.5703 174.839 55.6667 175.562 55.675C178.004 55.675 179.671 54.2383 180.949 51.0198L187.947 33.7065L184.786 33.7784Z" fill="#393A40"/>
<path d="M122.343 49.1088H125.805L112.113 20.5454L98.4487 49.1088H101.969L105.417 41.7524H118.88L122.343 49.1088ZM106.84 38.7495L112.084 27.715L117.414 38.7495H106.84Z" fill="#393A40"/>
<path d="M155.461 46.6093C154.992 46.74 154.51 46.8124 154.024 46.8248C153.83 46.8451 153.634 46.8219 153.451 46.7569C153.267 46.6919 153.1 46.5867 152.963 46.449C152.825 46.3113 152.72 46.1446 152.655 45.961C152.59 45.7775 152.567 45.5817 152.587 45.388V27.2126L149.512 26.4224V45.546C149.484 46.0729 149.568 46.5997 149.761 47.0911C149.953 47.5824 150.248 48.0269 150.627 48.3945C151.005 48.7621 151.458 49.0443 151.955 49.2221C152.452 49.3999 152.981 49.4693 153.507 49.4254C154.133 49.4153 154.758 49.3528 155.374 49.2386L155.461 46.6093Z" fill="#393A40"/>
<path d="M171.811 46.5655C171.22 46.7196 170.612 46.8064 170.001 46.8242C169.714 46.8326 169.429 46.7814 169.164 46.6738C168.898 46.5663 168.658 46.4048 168.458 46.1994C168.258 45.9941 168.103 45.7495 168.002 45.4811C167.902 45.2127 167.858 44.9264 167.874 44.6402V36.3787H172.343L171.308 33.7781H167.874V29.7407H164.785V33.8499H161.696V36.4506H164.742V44.9276C164.723 45.5514 164.834 46.1723 165.068 46.7508C165.302 47.3293 165.654 47.8528 166.102 48.288C166.549 48.7231 167.082 49.0604 167.667 49.2784C168.251 49.4963 168.875 49.5903 169.498 49.5541C170.275 49.5511 171.05 49.4692 171.811 49.3098V46.5655Z" fill="#393A40"/>
</svg>
