<svg width="11" height="11" viewBox="0 0 11 11" fill="none" xmlns="http://www.w3.org/2000/svg">
<path d="M0.147258 0.148316C0.332668 -0.0370755 0.633271 -0.0370755 0.818681 0.148316L10.861 10.1896C11.0463 10.375 11.0463 10.6756 10.861 10.8609C10.6756 11.0464 10.3749 11.0464 10.1895 10.8609L0.147258 0.819667C-0.0381517 0.63428 -0.0381517 0.333703 0.147258 0.148316Z" fill="#B8B8B8"/>
<path d="M10.8527 0.13904C10.6674 -0.0463467 10.3667 -0.0463467 10.1813 0.13904L0.139054 10.1803C-0.0463513 10.3657 -0.0463513 10.6663 0.139054 10.8517C0.324464 11.0371 0.625071 11.0371 0.810476 10.8517L10.8527 0.810396C11.0381 0.625009 11.0381 0.324432 10.8527 0.13904Z" fill="#B8B8B8"/>
</svg>
