<svg width="21" height="21" viewBox="0 0 21 21" fill="none" xmlns="http://www.w3.org/2000/svg">
<path d="M1.45312 10.5C1.45312 15.497 5.50398 19.5478 10.501 19.5478C15.4979 19.5478 19.5488 15.497 19.5488 10.5C19.5488 5.503 15.4979 1.45215 10.501 1.45215C5.50398 1.45215 1.45312 5.503 1.45312 10.5Z" stroke="#bb2700" stroke-width="1.5"/>
<path d="M5.33077 10.5C5.33077 13.3554 7.64554 15.6702 10.501 15.6702C13.3564 15.6702 15.6711 13.3554 15.6711 10.5C15.6711 7.64456 13.3564 5.32979 10.501 5.32979C7.64554 5.32979 5.33077 7.64456 5.33077 10.5Z" stroke="#bb2700" stroke-width="1.5"/>
<path d="M9.20841 10.5C9.20841 11.2138 9.7871 11.7925 10.501 11.7925C11.2148 11.7925 11.7935 11.2138 11.7935 10.5C11.7935 9.78613 11.2148 9.20743 10.501 9.20743C9.7871 9.20743 9.20841 9.78613 9.20841 10.5Z" stroke="#bb2700" stroke-width="1.5"/>
</svg>
