<svg width="349" height="51" viewBox="0 0 349 51" fill="none" xmlns="http://www.w3.org/2000/svg">
<g clip-path="url(#clip0_236_2785)">
<path opacity="0.18" d="M-15.2461 25.5004H37.4868V-31.46" fill="white"/>
<path opacity="0.18" d="M37.4868 -31.46H-15.2461V25.5004" fill="#E6E7E8"/>
<path opacity="0.18" d="M90.2211 25.5004H37.4883V-31.46" fill="#A7A9AC"/>
<path opacity="0.18" d="M37.4883 -31.46H90.2211V25.5004" fill="#D1D3D4"/>
<path opacity="0.18" d="M90.2188 25.4994H142.961V-31.4609" fill="#A7A9AC"/>
<path opacity="0.18" d="M142.961 -31.4609H90.2188V25.4994" fill="white"/>
<path opacity="0.18" d="M195.694 25.4994H142.961V-31.4609" fill="#E6E7E8"/>
<path opacity="0.18" d="M142.961 -31.4609H195.694V25.4994" fill="white"/>
<path opacity="0.18" d="M195.695 25.4994H248.428V-31.4609" fill="#A7A9AC"/>
<path opacity="0.18" d="M248.428 -31.4609H195.695V25.4994" fill="#A7A9AC"/>
<path opacity="0.18" d="M301.163 25.4994H248.43V-31.4609" fill="white"/>
<path opacity="0.18" d="M248.43 -31.4609H301.163V25.4994" fill="#A7A9AC"/>
<path opacity="0.18" d="M301.16 25.4994H353.893V-31.4609" fill="#A7A9AC"/>
<path opacity="0.18" d="M353.893 -31.4609H301.16V25.4994" fill="#E6E7E8"/>
<path opacity="0.18" d="M353.893 82.4603H301.16V25.5" fill="#A7A9AC"/>
<path opacity="0.18" d="M301.16 25.5H353.893V82.4603" fill="white"/>
<path opacity="0.18" d="M248.43 82.4603H301.163V25.5" fill="#E6E7E8"/>
<path opacity="0.18" d="M301.163 25.5H248.43V82.4603" fill="#E6E7E8"/>
<path opacity="0.18" d="M248.428 82.4603H195.695V25.5" fill="white"/>
<path opacity="0.18" d="M195.695 25.5H248.428V82.4603" fill="#F1F2F2"/>
<path opacity="0.18" d="M142.961 82.4603H195.694V25.5" fill="white"/>
<path opacity="0.18" d="M195.694 25.5H142.961V82.4603" fill="#D1D3D4"/>
<path opacity="0.18" d="M142.961 82.4603H90.2188V25.5" fill="white"/>
<path opacity="0.18" d="M90.2188 25.5H142.961V82.4603" fill="white"/>
<path opacity="0.18" d="M37.4883 82.4603H90.2211V25.5" fill="#D1D3D4"/>
<path opacity="0.18" d="M90.2211 25.5H37.4883V82.4603" fill="white"/>
<path opacity="0.18" d="M37.4868 82.4603H-15.2461V25.5" fill="white"/>
<path opacity="0.18" d="M-15.2461 25.5H37.4868V82.4603" fill="#A7A9AC"/>
</g>
<defs>
<clipPath id="clip0_236_2785">
<rect width="350" height="113" fill="white" transform="translate(0 -31)"/>
</clipPath>
</defs>
</svg>
