<svg width="446" height="51" viewBox="0 0 446 51" fill="none" xmlns="http://www.w3.org/2000/svg">
<g clip-path="url(#clip0_619_1705)">
<path opacity="0.18" d="M-19.428 25.5005H47.7687V-46.582" fill="white"/>
<path opacity="0.18" d="M47.7687 -46.582H-19.428V25.5005" fill="#E6E7E8"/>
<path opacity="0.18" d="M114.967 25.5005H47.7708V-46.582" fill="#A7A9AC"/>
<path opacity="0.18" d="M47.7708 -46.582H114.967V25.5005" fill="#D1D3D4"/>
<path opacity="0.18" d="M114.964 25.4993H182.173V-46.5833" fill="#A7A9AC"/>
<path opacity="0.18" d="M182.173 -46.5833H114.964V25.4993" fill="white"/>
<path opacity="0.18" d="M249.37 25.4993H182.173V-46.5833" fill="#E6E7E8"/>
<path opacity="0.18" d="M182.173 -46.5833H249.37V25.4993" fill="white"/>
<path opacity="0.18" d="M249.372 25.4993H316.569V-46.5833" fill="#A7A9AC"/>
<path opacity="0.18" d="M316.569 -46.5833H249.372V25.4993" fill="#A7A9AC"/>
<path opacity="0.18" d="M383.767 25.4993H316.57V-46.5833" fill="white"/>
<path opacity="0.18" d="M316.57 -46.5833H383.767V25.4993" fill="#A7A9AC"/>
<path opacity="0.18" d="M383.764 25.4993H450.961V-46.5833" fill="#A7A9AC"/>
<path opacity="0.18" d="M450.961 -46.5833H383.764V25.4993" fill="#E6E7E8"/>
<path opacity="0.18" d="M450.961 97.5825H383.764V25.5" fill="#A7A9AC"/>
<path opacity="0.18" d="M383.764 25.5H450.961V97.5825" fill="white"/>
<path opacity="0.18" d="M316.57 97.5825H383.767V25.5" fill="#E6E7E8"/>
<path opacity="0.18" d="M383.767 25.5H316.57V97.5825" fill="#E6E7E8"/>
<path opacity="0.18" d="M316.569 97.5825H249.372V25.5" fill="white"/>
<path opacity="0.18" d="M249.372 25.5H316.569V97.5825" fill="#F1F2F2"/>
<path opacity="0.18" d="M182.173 97.5825H249.37V25.5" fill="white"/>
<path opacity="0.18" d="M249.37 25.5H182.173V97.5825" fill="#D1D3D4"/>
<path opacity="0.18" d="M182.173 97.5825H114.964V25.5" fill="white"/>
<path opacity="0.18" d="M114.964 25.5H182.173V97.5825" fill="white"/>
<path opacity="0.18" d="M47.7708 97.5825H114.967V25.5" fill="#D1D3D4"/>
<path opacity="0.18" d="M114.967 25.5H47.7708V97.5825" fill="white"/>
<path opacity="0.18" d="M47.7687 97.5825H-19.428V25.5" fill="white"/>
<path opacity="0.18" d="M-19.428 25.5H47.7687V97.5825" fill="#A7A9AC"/>
</g>
<defs>
<clipPath id="clip0_619_1705">
<rect width="446" height="143" fill="white" transform="translate(0 -46)"/>
</clipPath>
</defs>
</svg>
