<svg width="572" height="462" viewBox="0 0 572 462" fill="none" xmlns="http://www.w3.org/2000/svg">
<path d="M498.988 6.90837C497.649 2.78888 493.809 0 489.478 0H10C4.47715 0 0 4.47715 0 10V452C0 457.523 4.47715 462 10 462H489.488C493.815 462 497.651 459.217 498.994 455.104L572 231.5L498.988 6.90837Z" fill="#F6881B" fill-opacity="0.02"/>
<path d="M489.478 0.5H10C4.7533 0.5 0.5 4.7533 0.5 10V452C0.5 457.247 4.7533 461.5 10 461.5H489.488C493.598 461.5 497.243 458.856 498.518 454.949L571.474 231.5L498.512 7.06295C497.24 3.14944 493.593 0.5 489.478 0.5Z" stroke="#F6881B" stroke-opacity="0.54"/>
<line opacity="0.25" x1="546" y1="154.5" y2="154.5" stroke="#F6881B"/>
<line opacity="0.25" x1="521" y1="77.5" y2="77.5" stroke="#F6881B"/>
<line opacity="0.25" x1="571" y1="231.5" y2="231.5" stroke="#F6881B"/>
<line opacity="0.25" x1="546" y1="308.5" y2="308.5" stroke="#F6881B"/>
<line opacity="0.25" x1="521" y1="385.5" y2="385.5" stroke="#F6881B"/>
</svg>
