<svg width="573" height="539" viewBox="0 0 573 539" fill="none" xmlns="http://www.w3.org/2000/svg">
<path d="M73.2165 7.31041C74.4234 2.98875 78.361 0 82.848 0H562C567.523 0 572 4.47715 572 10V529C572 534.523 567.523 539 562 539H82.848C78.361 539 74.4234 536.011 73.2165 531.69L0 269.5L73.2165 7.31041Z" fill="#3BA17C" fill-opacity="0.02"/>
<path d="M82.848 0.5H562C567.247 0.5 571.5 4.75329 571.5 10V529C571.5 534.247 567.247 538.5 562 538.5H82.848C78.5854 538.5 74.8446 535.661 73.6981 531.555L0.519132 269.5L73.6981 7.44489C74.8446 3.33931 78.5854 0.5 82.848 0.5Z" stroke="#3BA17C" stroke-opacity="0.54"/>
<line opacity="0.25" x1="33.1659" y1="153.5" x2="572.336" y2="153.5" stroke="#3BA17C"/>
<line x1="54.6639" y1="76.5" x2="572.664" y2="76.5" stroke="#CBE6DC"/>
<line opacity="0.25" x1="11.2142" y1="230.5" x2="572.336" y2="230.5" stroke="#3BA17C"/>
<line opacity="0.25" x1="11.2142" y1="307.5" x2="572.336" y2="307.5" stroke="#3BA17C"/>
<line opacity="0.25" x1="32.6639" y1="384.5" x2="572.664" y2="384.5" stroke="#3BA17C"/>
<line opacity="0.25" x1="54.1842" y1="461.5" x2="572.336" y2="461.5" stroke="#3BA17C"/>
</svg>
