<svg width="351" height="40" viewBox="0 0 351 40" fill="none" xmlns="http://www.w3.org/2000/svg">
<g clip-path="url(#clip0_1144_26929)">
<path fill-rule="evenodd" clip-rule="evenodd" d="M5.29975 14.981L2.20235 19.0521L15.0223 19.1389L27.8422 19.2281L28.4623 19.7129C29.8724 20.8175 29.6344 23.0869 28.0132 23.9962C27.5188 24.2735 26.4399 24.3025 14.8272 24.3483L2.17969 24.3989V31.6511V38.9032H6.86397H11.5482V35.5798V32.2564H19.0901C23.2774 32.2564 27.2738 32.1768 28.0753 32.0755C33.2988 31.4171 36.8265 29.0006 38.2728 25.0887C38.6365 24.1071 38.6961 23.6489 38.7057 21.7629C38.7153 19.9203 38.6559 19.3945 38.3281 18.4202C37.1176 14.8267 34.1884 12.4415 29.6894 11.3899C28.2582 11.0547 27.4987 11.0282 18.2765 10.9703L8.397 10.9076L5.29975 14.981ZM42.8929 19.8841C42.8955 28.2264 42.9186 28.9427 43.2324 30.2185C44.4426 35.1505 48.2144 37.883 55.3893 39.0238C57.8139 39.4097 65.0985 39.4579 67.1633 39.101C73.8144 37.953 77.37 35.2928 78.7637 30.4211C79.0297 29.4901 79.0711 28.318 79.1275 20.1446L79.1914 10.9196H74.4123H69.6331V19.4066C69.6331 28.7545 69.6469 28.6219 68.5687 29.7651C67.3767 31.0288 64.8921 31.4798 59.9239 31.3303C55.2266 31.188 53.4045 30.6623 52.6396 29.2273C52.3719 28.7232 52.3393 27.8309 52.2953 19.7949L52.2469 10.9196H47.5686H42.8903L42.8929 19.8841ZM87.1791 14.7809C85.5742 16.9056 84.2203 18.753 84.1699 18.8857C84.0923 19.0955 86.0436 19.1389 97.1685 19.1799C109.11 19.2233 110.305 19.2523 110.787 19.5248C111.578 19.9685 111.925 20.6318 111.925 21.7002C111.925 22.8699 111.575 23.4318 110.542 23.9214C109.754 24.2952 109.648 24.3 96.8446 24.3507L83.9416 24.4014V31.6511V38.9032H88.6257H93.3101V35.493V32.0828L99.4848 32.0876L105.66 32.0924L108.178 35.4978L110.697 38.9032H116.908C120.324 38.9032 123.119 38.8598 123.119 38.8092C123.119 38.5945 119.367 34.2943 117.38 32.2323L115.249 30.0231L115.905 29.8085C118.262 29.0416 120.372 26.871 121.263 24.3001C121.712 23.0025 121.805 19.8938 121.434 18.5287C120.469 14.969 117.406 12.5066 112.643 11.4599C110.59 11.0089 108.403 10.9196 99.5007 10.9196H90.0969L87.1791 14.7809ZM126.355 24.9102V38.9032L139.514 38.8984L152.673 38.8936L155.526 35.0661C157.095 32.9607 158.379 31.1518 158.379 31.0481C158.379 30.9131 155.101 30.8576 147.137 30.8576H135.894V29.5456V28.2336H143.789H151.684L154.28 24.8668L156.876 21.5L146.385 21.4566L135.894 21.4108V20.2772V19.1437L144.194 19.0979L152.494 19.0521L155.19 15.4658C156.673 13.4954 158.04 11.6649 158.229 11.3996L158.572 10.9196H142.464H126.355V24.9102Z" fill="#393A40"/>
<path d="M277.659 13.9688C278.226 12.2251 279.344 11.1085 281.008 10.6261C282.105 10.3078 283.589 10.4549 284.647 10.9879C285.133 11.2315 286.565 12.3722 287.831 13.5178C289.095 14.6658 292.698 17.9289 295.836 20.7699L301.544 25.9383L301.588 18.4305L301.632 10.9228H305.894H310.155L310.106 23.2975L310.059 35.6722L309.668 36.5452C308.795 38.4939 307.323 39.4273 305.121 39.4297C304.001 39.4321 303.612 39.3525 302.908 38.9859C302.388 38.7182 298.909 35.7011 294.049 31.3069L286.041 24.0692L285.997 31.4878L285.952 38.9063H281.602H277.25L277.311 26.8813C277.362 16.1394 277.4 14.7623 277.659 13.9688Z" fill="#E55A35"/>
<path d="M161.009 17.6906C161.834 13.6943 164.517 11.7553 170.211 11.039C170.492 11.0052 176.573 10.9642 183.725 10.9498L196.727 10.9232L196.415 11.3501C196.243 11.584 194.876 13.4339 193.377 15.4597L190.652 19.1425H180.804C170.958 19.1425 170.455 19.1714 170.086 19.7382C169.843 20.112 169.955 21.0671 170.281 21.4023C170.591 21.7206 171.044 21.7375 180.203 21.8147C190.909 21.9039 191.271 21.9401 193.617 23.1098C196.708 24.6485 197.989 27.5764 197.327 31.5895C196.984 33.6685 196.476 34.8792 195.457 36.0344C194.555 37.0618 193.23 37.8384 191.417 38.41L190.141 38.8103L175.109 38.8658C166.841 38.8947 160.081 38.8586 160.086 38.7814C160.091 38.7066 161.414 36.9123 163.024 34.7972L165.953 30.9504L176.794 30.8612C187.151 30.7792 187.651 30.7599 187.994 30.4415C188.481 29.9881 188.481 28.9366 187.994 28.4832C187.653 28.1672 187.162 28.1455 178.157 28.0491C170.007 27.9598 168.499 27.902 167.401 27.6415C162.389 26.4501 159.977 22.695 161.009 17.6906Z" fill="#E55A35"/>
<path d="M201.496 18.9658C201.528 18.8693 202.895 17.0219 204.534 14.861L207.514 10.9347L216.547 10.9274C225.834 10.9226 227.465 11.0094 229.743 11.6365C233.965 12.7965 237.082 15.8474 237.747 19.4723C237.974 20.7071 237.967 22.7402 237.733 23.9003C237.475 25.1712 236.542 27.1079 235.706 28.0967C234.344 29.7102 231.676 31.1741 228.892 31.8349C227.797 32.0954 226.403 32.1509 219.14 32.2136L210.665 32.2859V35.5972V38.9062H205.981H201.297V31.654V24.4019L213.944 24.3537C226.24 24.303 226.608 24.2934 227.17 23.9533C228.103 23.389 228.466 22.7522 228.466 21.679C228.466 20.5865 228.083 19.9233 227.176 19.4482C226.636 19.166 225.652 19.1443 214.016 19.1443C205.61 19.1419 201.458 19.084 201.496 18.9658Z" fill="#E55A35"/>
<path d="M242.344 38.9069V24.9163V10.9233H258.354C267.161 10.9233 274.364 10.9812 274.359 11.0536C274.355 11.1259 273.028 12.9564 271.406 15.1198L268.462 19.0558L260.088 19.1016L251.711 19.1474V20.2809V21.4169H262.187C267.948 21.4169 272.663 21.4844 272.663 21.564C272.663 21.646 271.549 23.1606 270.189 24.9308L267.718 28.1505L259.758 28.2373L251.797 28.3265L251.746 29.5927L251.697 30.8613H263.043C272.171 30.8613 274.38 30.9047 274.336 31.0856C274.305 31.2086 273.016 33.015 271.469 35.0987L268.659 38.8852L255.501 38.8972L242.344 38.9069Z" fill="#E55A35"/>
<path d="M316.167 17.833C316.649 17.1577 317.985 15.3296 319.134 13.7644L321.224 10.9233L328.246 10.9258C336.998 10.9306 338.823 11.1501 342.052 12.5778C344.792 13.7933 346.8 15.4092 348.311 17.6232C352.009 23.0279 350.818 30.5936 345.571 35.0167C344.132 36.2299 341.161 37.7324 339.015 38.3329L337.314 38.8104L326.281 38.8659L315.25 38.9238L315.294 30.215L315.339 21.5037H319.937H324.537L324.582 26.1825L324.629 30.8613H330.067C333.45 30.8613 335.849 30.7865 336.41 30.666C337.702 30.3838 339.141 29.5879 339.808 28.7872C340.919 27.4535 341.406 25.0514 340.915 23.3173C340.402 21.5085 339.335 20.416 337.311 19.6346C336.303 19.2439 336.172 19.2367 325.789 19.1474L315.29 19.0558L316.167 17.833Z" fill="#E55A35"/>
</g>
<defs>
<clipPath id="clip0_1144_26929">
<rect width="350.667" height="40" fill="white" transform="translate(0.0078125)"/>
</clipPath>
</defs>
</svg>
