<svg width="95" height="71" viewBox="0 0 95 71" fill="none" xmlns="http://www.w3.org/2000/svg">
<path fill-rule="evenodd" clip-rule="evenodd" d="M1.47484 64.4377L0.636506 65.489L4.10632 65.5114L7.57615 65.5344L7.74399 65.6596C8.12563 65.9449 8.06122 66.5309 7.62245 66.7657C7.48863 66.8373 7.1966 66.8448 4.05353 66.8566L0.630371 66.8697V68.7425V70.6153H1.89821H3.16605V69.7571V68.8988H5.20732C6.34065 68.8988 7.42232 68.8783 7.63923 68.8521C9.05302 68.6821 10.0078 68.058 10.3993 67.0478C10.4977 66.7944 10.5139 66.676 10.5165 66.189C10.5191 65.7132 10.503 65.5774 10.4142 65.3258C10.0866 64.3978 9.29382 63.7818 8.07611 63.5103C7.68876 63.4237 7.48318 63.4169 4.98712 63.4019L2.31314 63.3857L1.47484 64.4377ZM11.6498 65.7038C11.6505 67.8581 11.6567 68.0431 11.7416 68.3726C12.0692 69.6462 13.0901 70.3518 15.032 70.6464C15.6883 70.7461 17.6599 70.7585 18.2187 70.6664C20.0189 70.3699 20.9813 69.6829 21.3585 68.4249C21.4305 68.1845 21.4417 67.8818 21.457 65.7711L21.4743 63.3889H20.1808H18.8872V65.5805C18.8872 67.9945 18.891 67.9603 18.5991 68.2555C18.2765 68.5818 17.604 68.6983 16.2593 68.6597C14.988 68.6229 14.4948 68.4872 14.2878 68.1166C14.2153 67.9864 14.2065 67.756 14.1946 65.6808L14.1815 63.3889H12.9153H11.6491L11.6498 65.7038ZM23.6362 64.386C23.2018 64.9347 22.8354 65.4117 22.8218 65.446C22.8007 65.5002 23.3289 65.5114 26.3399 65.522C29.5721 65.5332 29.8954 65.5407 30.0259 65.611C30.2401 65.7256 30.334 65.8969 30.334 66.1728C30.334 66.4749 30.2392 66.62 29.9597 66.7464C29.7462 66.8429 29.7177 66.8442 26.2523 66.8573L22.7599 66.8703V68.7425V70.6153H24.0277H25.2956V69.7346V68.854L26.9669 68.8552L28.6381 68.8565L29.3198 69.7359L30.0015 70.6153H31.6826C32.6072 70.6153 33.3636 70.6041 33.3636 70.591C33.3636 70.5356 32.348 69.4251 31.8103 68.8926L31.2337 68.3221L31.4112 68.2667C32.0491 68.0686 32.6201 67.5081 32.8613 66.8442C32.983 66.5091 33.0079 65.7063 32.9076 65.3538C32.6463 64.4345 31.8175 63.7987 30.5283 63.5284C29.9727 63.4119 29.3806 63.3889 26.9712 63.3889H24.4259L23.6362 64.386ZM34.2396 67.0018V70.6153L37.8011 70.614L41.3626 70.6128L42.1348 69.6244C42.5595 69.0807 42.907 68.6136 42.907 68.5868C42.907 68.5519 42.0199 68.5376 39.8642 68.5376H36.8214V68.1988V67.86H38.9583H41.0951L41.7977 66.9905L42.5003 66.1211L39.6609 66.1099L36.8214 66.0981V65.8053V65.5126L39.0678 65.5008L41.3142 65.489L42.0439 64.5628C42.4453 64.054 42.8155 63.5813 42.8665 63.5128L42.9594 63.3889H38.5995H34.2396V67.0018Z" fill="#565B65"/>
<path d="M75.1942 64.1759C75.3475 63.7256 75.6502 63.4372 76.1005 63.3127C76.3975 63.2305 76.7991 63.2685 77.0853 63.4061C77.2171 63.469 77.6047 63.7636 77.9473 64.0594C78.2893 64.3559 79.2646 65.1985 80.1139 65.9322L81.6586 67.2669L81.6707 65.3281L81.6827 63.3893H82.836H83.9893L83.976 66.5849L83.9633 69.7805L83.8576 70.006C83.6213 70.5092 83.223 70.7502 82.627 70.7509C82.3236 70.7515 82.2185 70.7309 82.0279 70.6363C81.8873 70.5671 80.9455 69.788 79.6301 68.6533L77.4628 66.7842L77.4508 68.7L77.4387 70.6157H76.2614H75.0834L75.0998 67.5104C75.1138 64.7364 75.1239 64.3808 75.1942 64.1759Z" fill="#E55A35"/>
<path d="M43.6228 65.1372C43.846 64.1053 44.5723 63.6045 46.1134 63.4195C46.1895 63.4108 47.8354 63.4002 49.7709 63.3965L53.2902 63.3896L53.2056 63.4999C53.1592 63.5603 52.7892 64.038 52.3835 64.5612L51.6458 65.5122H48.9803C46.3156 65.5122 46.1794 65.5196 46.0795 65.666C46.0138 65.7625 46.0441 66.0092 46.1322 66.0957C46.2163 66.178 46.3388 66.1823 48.8178 66.2022C51.7153 66.2253 51.8135 66.2346 52.4485 66.5367C53.2851 66.934 53.6317 67.6901 53.4526 68.7265C53.3597 69.2633 53.2221 69.576 52.9465 69.8743C52.7022 70.1396 52.3437 70.3402 51.8529 70.4878L51.5075 70.5912L47.4389 70.6055C45.2012 70.613 43.3715 70.6036 43.3729 70.5837C43.3744 70.5644 43.7323 70.101 44.1683 69.5548L44.9609 68.5614L47.8952 68.5384C50.6983 68.5172 50.8337 68.5122 50.9264 68.43C51.0583 68.3129 51.0584 68.0414 50.9264 67.9243C50.8343 67.8427 50.7012 67.8371 48.264 67.8122C46.0583 67.7892 45.65 67.7742 45.3527 67.7069C43.9964 67.3993 43.3433 66.4296 43.6228 65.1372Z" fill="#E55A35"/>
<path d="M54.5795 65.4665C54.5881 65.4416 54.958 64.9645 55.4017 64.4065L56.2083 63.3925L58.653 63.3907C61.1668 63.3894 61.6081 63.4118 62.2248 63.5738C63.3675 63.8733 64.2111 64.6612 64.3909 65.5973C64.4524 65.9162 64.4505 66.4412 64.3871 66.7408C64.3175 67.069 64.0648 67.5691 63.8387 67.8244C63.4701 68.2411 62.7479 68.6191 61.9943 68.7898C61.6979 68.857 61.3206 68.8714 59.3549 68.8876L57.0612 68.9063V69.7614V70.6159H55.7934H54.5255V68.7431V66.8703L57.9487 66.8578C61.2765 66.8448 61.3763 66.8423 61.5284 66.7545C61.7809 66.6087 61.879 66.4443 61.879 66.1671C61.879 65.885 61.7753 65.7137 61.5299 65.5911C61.3837 65.5182 61.1175 65.5126 57.9679 65.5126C55.6928 65.512 54.5691 65.497 54.5795 65.4665Z" fill="#E55A35"/>
<path d="M65.6353 70.6161V67.0032V63.3896H69.9685C72.3524 63.3896 74.3018 63.4046 74.3005 63.4233C74.2993 63.442 73.9402 63.9147 73.5013 64.4733L72.7045 65.4898L70.4378 65.5016L68.1705 65.5134V65.8061V66.0995H71.0059C72.5652 66.0995 73.8414 66.1169 73.8414 66.1375C73.8414 66.1586 73.5399 66.5498 73.1719 67.0069L72.5031 67.8384L70.3485 67.8608L68.1939 67.8838L68.18 68.2108L68.1667 68.5384H71.2377C73.7084 68.5384 74.3062 68.5496 74.2942 68.5963C74.286 68.6281 73.937 69.0946 73.5184 69.6327L72.7577 70.6105L69.1965 70.6136L65.6353 70.6161Z" fill="#E55A35"/>
<path d="M85.6166 65.174C85.747 64.9996 86.1087 64.5275 86.4196 64.1233L86.9852 63.3896L88.8858 63.3903C91.2545 63.3915 91.7485 63.4482 92.6225 63.8169C93.3641 64.1308 93.9075 64.5481 94.3167 65.1198C95.3173 66.5155 94.995 68.4693 93.575 69.6115C93.1855 69.9248 92.3812 70.3128 91.8004 70.4678L91.34 70.5912L88.3538 70.6055L85.3683 70.6204L85.3803 68.3715L85.3924 66.1219H86.6369H87.882L87.894 67.3302L87.9067 68.5384H89.3786C90.2944 68.5384 90.9435 68.5191 91.0955 68.4879C91.4451 68.4151 91.8346 68.2096 92.0151 68.0028C92.316 67.6584 92.4477 67.0381 92.3147 66.5903C92.176 66.1231 91.8872 65.841 91.3394 65.6392C91.0664 65.5383 91.0309 65.5365 88.2208 65.5134L85.3791 65.4898L85.6166 65.174Z" fill="#E55A35"/>
<path d="M27.5465 7.47404L20.8965 0.93457H56.2492C58.4272 0.93457 60.6369 1.12591 62.6217 2.00798C76.3721 8.11908 76.3759 27.9167 62.7666 34.3136C60.6972 35.2862 58.3671 35.5004 56.0734 35.5004H45.5965L41.7965 58.5442L24.6965 42.3512L29.1298 14.6363H49.3965V9.03106L61.7465 17.7504L49.3965 26.4697V21.4872H34.5132L31.6632 40.1714L38.3132 46.3995L40.8465 28.9609H54.3695C56.7424 28.9609 59.2116 28.7909 61.1924 27.5061C67.7505 23.2523 67.7638 13.3553 61.2657 9.00609C59.2493 7.65653 56.7078 7.47404 54.2686 7.47404H27.5465Z" fill="#EF5A35"/>
</svg>
