<svg width="439" height="858" viewBox="0 0 439 858" fill="none" xmlns="http://www.w3.org/2000/svg">
<g opacity="0.5">
<path d="M290.549 342.926L438.852 428.645L290.549 514.364L290.549 342.926Z" fill="#A5E6F5"/>
<path d="M142.244 257.154L290.547 342.923L142.244 428.641L142.244 257.154Z" fill="#84D9EA"/>
<path d="M290.547 514.364L142.244 428.645L290.547 342.926L290.547 514.364Z" fill="#A3E3F1"/>
<path d="M142.244 428.644L290.547 514.362L142.244 600.081L142.244 428.644Z" fill="#C0EEF9"/>
<path d="M-6.05644 171.437L142.246 257.155L-6.05645 342.924L-6.05644 171.437Z" fill="#EFFAFE"/>
<path d="M142.246 428.641L-6.05645 342.923L142.246 257.154L142.246 428.641Z" fill="#E6F9FE"/>
<path d="M-6.05644 342.926L142.246 428.645L-6.05645 514.364L-6.05644 342.926Z" fill="#C1EBF4"/>
<path d="M142.246 600.081L-6.05645 514.362L142.246 428.644L142.246 600.081Z" fill="#EDFAFC"/>
<path d="M-6.05644 514.361L142.246 600.08L-6.05645 685.799L-6.05644 514.361Z" fill="#C0EAF6"/>
<mask id="mask0_236_975" style="mask-type:alpha" maskUnits="userSpaceOnUse" x="-303" y="0" width="742" height="858">
<path d="M290.549 342.926L438.852 428.645L290.549 514.364L290.549 342.926Z" fill="#A5E6F5"/>
<path d="M142.244 257.154L290.547 342.923L142.244 428.641L142.244 257.154Z" fill="#84D9EA"/>
<path d="M290.547 514.364L142.244 428.645L290.547 342.926L290.547 514.364Z" fill="#A3E3F1"/>
<path d="M142.244 428.644L290.547 514.362L142.244 600.081L142.244 428.644Z" fill="#C0EEF9"/>
<path d="M-6.05644 171.437L142.246 257.155L-6.05645 342.924L-6.05644 171.437Z" fill="#EFFAFE"/>
<path d="M142.246 428.641L-6.05645 342.923L142.246 257.154L142.246 428.641Z" fill="#E6F9FE"/>
<path d="M-6.05644 342.926L142.246 428.645L-6.05645 514.364L-6.05644 342.926Z" fill="#C1EBF4"/>
<path d="M142.246 600.081L-6.05645 514.362L142.246 428.644L142.246 600.081Z" fill="#EDFAFC"/>
<path d="M-6.05644 514.361L142.246 600.08L-6.05645 685.799L-6.05644 514.361Z" fill="#C0EAF6"/>
</mask>
<g mask="url(#mask0_236_975)">
<rect x="-306" y="7" width="763" height="858" fill="url(#paint0_linear_236_975)"/>
</g>
</g>
<defs>
<linearGradient id="paint0_linear_236_975" x1="289.459" y1="134.571" x2="-312.058" y2="690.067" gradientUnits="userSpaceOnUse">
<stop stop-color="white"/>
<stop offset="1" stop-color="white" stop-opacity="0"/>
</linearGradient>
</defs>
</svg>
