<svg width="819" height="791" viewBox="0 0 819 791" fill="none" xmlns="http://www.w3.org/2000/svg">
<path d="M420.207 304.303L405.092 360.6L375.965 310.106L365.817 62.848L420.207 304.303Z" fill="#E5F4F7"/>
<path d="M352.415 323.674L381.668 374.095L325.258 359.011L142.93 191.274L352.415 323.674Z" fill="#FEF4E5"/>
<path d="M318.26 385.078L374.67 400.163L324.075 429.232L76.3227 439.359L318.26 385.078Z" fill="#EDF6F2"/>
<path d="M466.886 467.422L437.633 417L494.043 432.085L676.399 599.722L466.886 467.422Z" fill="#FEF4E5"/>
<path d="M501.042 406.018L444.632 390.933L495.254 361.765L742.979 351.736L501.042 406.018Z" fill="#EDF6F2"/>
<path d="M481.732 338.39L431.21 367.584L446.325 311.287L614.298 129.295L481.732 338.39Z" fill="#FDEDE8"/>
<path d="M398.679 486.94L413.794 430.642L442.921 481.136L453.069 728.394L398.679 486.94Z" fill="#E5F4F7"/>
<path d="M337.599 452.607L388.221 423.439L373.106 479.737L205.034 661.702L337.599 452.607Z" fill="#FDEDE8"/>
</svg>
