<svg width="707" height="818" viewBox="0 0 707 818" fill="none" xmlns="http://www.w3.org/2000/svg">
<g opacity="0.3">
<path d="M141.4 327.209L3.57249e-06 408.999L141.4 490.79L141.4 327.209Z" fill="#A5E6F5"/>
<path d="M282.8 245.369L141.4 327.206L282.8 408.996L282.8 245.369Z" fill="#84D9EA"/>
<path d="M141.4 490.79L282.8 408.999L141.4 327.209L141.4 490.79Z" fill="#A3E3F1"/>
<path d="M282.8 408.999L141.4 490.789L282.8 572.579L282.8 408.999Z" fill="#C0EEF9"/>
<path d="M424.199 163.579L282.799 245.37L424.199 327.207L424.199 163.579Z" fill="#EFFAFE"/>
<path d="M282.799 408.996L424.199 327.206L282.799 245.369L282.799 408.996Z" fill="#E6F9FE"/>
<path d="M424.199 327.209L282.799 408.999L424.199 490.79L424.199 327.209Z" fill="#C1EBF4"/>
<path d="M282.799 572.579L424.199 490.789L282.799 408.999L282.799 572.579Z" fill="#EDFAFC"/>
<path d="M424.199 490.788L282.799 572.579L424.199 654.369L424.199 490.788Z" fill="#C0EAF6"/>
<path d="M565.6 81.7894L424.2 163.58L565.6 245.37L565.6 81.7894Z" fill="#C2EBF5"/>
<path d="M424.2 327.207L565.6 245.37L424.2 163.579L424.2 327.207Z" fill="#C8F0F8"/>
<path d="M565.599 245.369L424.199 327.206L565.599 408.996L565.599 245.369Z" fill="#CEF3FB"/>
<path d="M424.199 490.79L565.599 408.999L424.199 327.209L424.199 490.79Z" fill="#C8F1F7"/>
<path d="M565.6 408.999L424.2 490.789L565.6 572.579L565.6 408.999Z" fill="#EFFAFD"/>
<path d="M424.2 654.369L565.6 572.579L424.2 490.788L424.2 654.369Z" fill="#AEE2EE"/>
<path d="M565.6 572.578L424.2 654.368L565.6 736.206L565.6 572.578Z" fill="#D1EBF3"/>
<path d="M707 -0.000128256L565.6 81.7902L707 163.581L707 -0.000128256Z" fill="#D1F1FB"/>
<path d="M565.6 245.37L707 163.58L565.6 81.7894L565.6 245.37Z" fill="#72D7EC"/>
<path d="M707 163.579L565.6 245.37L707 327.207L707 163.579Z" fill="#BAEBF5"/>
<path d="M565.6 408.996L707 327.206L565.6 245.369L565.6 408.996Z" fill="#9EDDEA"/>
<path d="M707 327.209L565.6 408.999L707 490.79L707 327.209Z" fill="#DAF4FC"/>
<path d="M565.6 572.579L707 490.789L565.6 408.999L565.6 572.579Z" fill="#D5F2FA"/>
<path d="M707 490.788L565.6 572.579L707 654.369L707 490.788Z" fill="#7ACFDD"/>
<path d="M565.6 736.206L707 654.368L565.6 572.578L565.6 736.206Z" fill="#A7D9E5"/>
<path d="M707 654.372L565.6 736.21L707 818L707 654.372Z" fill="#B1E0EB"/>
<mask id="mask0_2058_12067" style="mask-type:alpha" maskUnits="userSpaceOnUse" x="0" y="-1" width="707" height="819">
<path d="M141.4 327.209L3.57249e-06 408.999L141.4 490.79L141.4 327.209Z" fill="#A5E6F5"/>
<path d="M282.8 245.369L141.4 327.206L282.8 408.996L282.8 245.369Z" fill="#84D9EA"/>
<path d="M141.4 490.79L282.8 408.999L141.4 327.209L141.4 490.79Z" fill="#A3E3F1"/>
<path d="M282.8 408.999L141.4 490.789L282.8 572.579L282.8 408.999Z" fill="#C0EEF9"/>
<path d="M424.199 163.579L282.799 245.37L424.199 327.207L424.199 163.579Z" fill="#EFFAFE"/>
<path d="M282.799 408.996L424.199 327.206L282.799 245.369L282.799 408.996Z" fill="#E6F9FE"/>
<path d="M424.199 327.209L282.799 408.999L424.199 490.79L424.199 327.209Z" fill="#C1EBF4"/>
<path d="M282.799 572.579L424.199 490.789L282.799 408.999L282.799 572.579Z" fill="#EDFAFC"/>
<path d="M424.199 490.788L282.799 572.579L424.199 654.369L424.199 490.788Z" fill="#C0EAF6"/>
<path d="M565.6 81.7894L424.2 163.58L565.6 245.37L565.6 81.7894Z" fill="#C2EBF5"/>
<path d="M424.2 327.207L565.6 245.37L424.2 163.579L424.2 327.207Z" fill="#C8F0F8"/>
<path d="M565.599 245.369L424.199 327.206L565.599 408.996L565.599 245.369Z" fill="#CEF3FB"/>
<path d="M424.199 490.79L565.599 408.999L424.199 327.209L424.199 490.79Z" fill="#C8F1F7"/>
<path d="M565.6 408.999L424.2 490.789L565.6 572.579L565.6 408.999Z" fill="#EFFAFD"/>
<path d="M424.2 654.369L565.6 572.579L424.2 490.788L424.2 654.369Z" fill="#AEE2EE"/>
<path d="M565.6 572.578L424.2 654.368L565.6 736.206L565.6 572.578Z" fill="#D1EBF3"/>
<path d="M707 -0.000128256L565.6 81.7902L707 163.581L707 -0.000128256Z" fill="#D1F1FB"/>
<path d="M565.6 245.37L707 163.58L565.6 81.7894L565.6 245.37Z" fill="#72D7EC"/>
<path d="M707 163.579L565.6 245.37L707 327.207L707 163.579Z" fill="#BAEBF5"/>
<path d="M565.6 408.996L707 327.206L565.6 245.369L565.6 408.996Z" fill="#9EDDEA"/>
<path d="M707 327.209L565.6 408.999L707 490.79L707 327.209Z" fill="#DAF4FC"/>
<path d="M565.6 572.579L707 490.789L565.6 408.999L565.6 572.579Z" fill="#D5F2FA"/>
<path d="M707 490.788L565.6 572.579L707 654.369L707 490.788Z" fill="#7ACFDD"/>
<path d="M565.6 736.206L707 654.368L565.6 572.578L565.6 736.206Z" fill="#A7D9E5"/>
<path d="M707 654.372L565.6 736.21L707 818L707 654.372Z" fill="#B1E0EB"/>
</mask>
<g mask="url(#mask0_2058_12067)">
<rect width="727.846" height="817.538" transform="matrix(-1 0 0 1 709.173 6.52295)" fill="url(#paint0_linear_2058_12067)"/>
</g>
</g>
<defs>
<linearGradient id="paint0_linear_2058_12067" x1="568.025" y1="121.555" x2="-5.17747" y2="651.506" gradientUnits="userSpaceOnUse">
<stop stop-color="white"/>
<stop offset="1" stop-color="white" stop-opacity="0"/>
</linearGradient>
</defs>
</svg>
